<?xml version="1.0" encoding="utf-8"?>
<!-- Generator: Adobe Illustrator 24.0.0, SVG Export Plug-In . SVG Version: 6.00 Build 0)  -->
<svg version="1.1" id="Layer_1" xmlns="http://www.w3.org/2000/svg" xmlns:xlink="http://www.w3.org/1999/xlink" x="0px" y="0px"
	 viewBox="0 0 564 564" style="enable-background:new 0 0 564 564;" xml:space="preserve">
<style type="text/css">
	.st0{fill:#E4E4E4;}
	.st1{fill:#FEB740;}
	.st2{fill:#FFFFFF;}
	.st3{fill:#FFBA4B;}
	.st4{fill:none;stroke:#FEB740;stroke-miterlimit:10;}
	.st5{fill:#1A1A1A;}
	.st6{fill:#231F20;}
	.st7{fill:none;stroke:#FEB740;stroke-linecap:round;stroke-linejoin:round;}
	.st8{fill:none;stroke:#FEB740;stroke-width:1.028;stroke-linecap:round;stroke-linejoin:round;}
	.st9{fill:none;stroke:#FFFFFF;stroke-miterlimit:10;}
	.st10{fill:#3C3C3C;}
	.st11{font-family:'NotoSans-Bold';}
	.st12{font-size:18px;}
</style>
<g id="Group_2854" transform="translate(-709.78 -281.89)">
	<path id="Path_3635" class="st0" d="M912.1,420.9c-1.6-16.8-3.8-31.7-7.1-42.3l-18.7,16.6c15.5,32.3,11,76.1,13.7,110.3
		c3.1,49.6,6.3,251.4,16.2,301.2l20.1,16.8c-10.1-49.7-13.8-245.6-17.9-294.9c-2-27.3-2.6-54.8-4.3-82.1c-1-16.5-5.6-52.3,14.5-61.5
		c6.1,7.6,6.1,18.8,8.4,27.8c5.2,19.7-25.2,22.4-20.3,45.4"/>
	<path id="Path_3636" class="st0" d="M1125.1,845.9c4.1-50.5,8.6-247.5,6.8-297c-1.4-30.4-4.6-60.7-6.1-91
		c-1.3-26.7-3.4-53.6-3.2-80.3c0.1-6.4-2.2-28,2.7-33.1c3.6-3.7,16.6-1,22.2-0.7c-4,59.5-2.7,120.4-0.2,180.1
		c2.9,50.3,9.5,251.7,5.6,301.9L1125.1,845.9z"/>
	<g id="Group_2706" transform="translate(91.596 199.083)">
		<path id="Path_3637" class="st1" d="M773.7,358.3c5.5-0.1,11,0,16.4-0.1c22.8-0.4,45.6-0.6,68.4-0.5c14.6,0,29.2-0.1,43.8,0.7
			c30.7,1.6,62.7-4.2,93.4-3.5c67.4,1.4,101.9-3,102.6-9.3c0.7-7.3,5.9-27.2,2-34c-2.3-4-6.4-5.4-10.8-5.3
			c-10.1,0.2-20.2,0.4-30.4,0.7c-32.5,0.7-65,1.4-97.5,2.2c-33.9,0.8-127.9,1.5-161.8,2.3c-12.2,0.3-24.5,0.5-36.7,0.8
			c-4.1,0.1-8.3,0.2-12.4,0.3c-4.8,0.1-7.1,0-8.7,4.6c-2.5,7.2-0.8,14.9,0.3,22.2c1.1,7.5-6.1,13.2,1.7,18.5
			c4.9,3.3,13,1.8,18.2,1.3C766.1,358.6,769.9,358.4,773.7,358.3z"/>
		<path id="Path_3638" class="st1" d="M754.5,409.7c3.6,0.2,7.1-0.4,10.7-0.6c3.1-0.2,6.4,1.1,9.2,0.9c3-0.3,5.5-2.5,8.3-3.4
			c3.4-1,7-1.6,10.6-1.8c10.8-0.5,21.6,3.7,32.5,3.8c25.9,0.3,51.9,0.5,77.8,1.9c31.9,1.7,63.9,1.4,95.8,1.2
			c24.1-0.2,48.2-0.5,72.2-2.2c5-0.4,11.3,0.6,15.9-1.2c3.5-1.4,9.9-3.9,10.1-8.4c0.1-2,0-3.4,0.7-5.2c1.1-2.7,1.7-5,1-7.9
			c-1.1-4.1-1.4-8.3-2.4-12.5c-0.7-2.8,0-5.1,0.1-7.9c0.2-2.6-1.1-5.7-3.6-6.9c-3.1-1.5-6.3,0.8-8.9,2.2c-2.1,1.2-4.5,1.8-6.9,1.8
			c-6.2,0.1-12.4,0.3-18.6,0.4c-32.5,0.7-65,1.4-97.5,2.2c-33.9,0.8-127.9,1.5-161.8,2.3c-12.2,0.3-24.5,0.5-36.7,0.8
			c-3.9,0-7.8,0.2-11.6,0.8c-2.4,0.4-8.9,0.3-10.7,1.7c-4.4,3.5-0.5,14.9,0.5,19.2c1.3,5.6-0.3,16,6.9,18
			C750.4,409.3,752.4,409.6,754.5,409.7z"/>
		<path id="Path_3639" class="st1" d="M751.9,457.2c6,2.2,12.6,3.6,17.9,5.7c8.1,3.2,9.6,5.7,18.9,3c11.9-3.5,23.4-12.1,36.5-12
			c9.7,0,18.7,1.8,28.6,1.4c14.9-0.6,26.2,6.3,40.1,7.5c17,1.5,34,3.5,51,4.8c13.4,1,27.1,7.1,40.5,5.8c3.5-0.3,5.3-1.1,8.8-2
			c10.5-2.9,23.3,1.6,34.2,1.4c13.7-0.2,27.3,0,40.9-1c6.2-0.4,21.5,0.2,26-5.2c2.7-3.3,1.4-12.6,2.3-17c1-5,3.5-15-1-19
			c-3.3-2.9-12.5-1.6-16.5-1.8c-6.5-0.3-12.9-0.6-19.4-0.9l-97.4-4.6c-33.9-1.6-127.7-5.9-161.7-7.5c-12.2-0.6-24.4-1.1-36.7-1.7
			c-7.9-0.4-15.7-2.7-21.3,3.1c-4.1,4.2-9,12.7-9.1,18.7C734.2,448.5,742.4,453.8,751.9,457.2z"/>
		<g id="Group_2699">
			<path id="Path_3640" class="st2" d="M770.8,354.6c23.1-0.9,105.4-1.5,128.5-0.3c30.7,1.6,62.7-4.2,93.4-3.5
				c16.1,0.3,101.5,1,102.6-9.3c0.7-7.3,5.9-27.2,2-34c-2.3-4-6.4-5.4-10.8-5.3c-10.1,0.2-20.2,0.4-30.4,0.7
				c-32.5,0.7-65,1.4-97.5,2.2c-33.9,0.8-127.9,1.5-161.8,2.3c-12.2,0.3-24.5,0.5-36.7,0.8c-4.1,0.1-8.3,0.2-12.4,0.3
				c-4.8,0.1-7.1,0-8.7,4.6c-2.5,7.2-0.8,14.9,0.3,22.2c0.8,5.5-1.6,17.7,4.7,19.4C746.1,355.2,764.6,354.9,770.8,354.6z"/>
			<g id="Group_2698">
				<path id="Path_3641" class="st3" d="M770.8,355.6c36.4-1.3,72.9-1.3,109.3-0.8c7,0.1,14.1,0.3,21.1,0.6
					c15.9,0.7,31.9-0.5,47.7-1.7c20.5-1.5,40.9-1.8,61.5-1.8c17.3,0,34.7-0.3,52-1.6c7.2-0.4,14.5-1.3,21.6-2.5
					c3.7-0.7,8.6-1.5,11.4-4.3c1.3-1.3,1.1-3.5,1.4-5.2c0.8-4.9,1.7-9.8,2.4-14.7c1-7.2,2.2-18.8-6.7-21.6c-6-1.9-12.9-0.8-19.1-0.6
					c-8.3,0.2-16.7,0.4-25,0.6c-16.6,0.4-33.2,0.7-49.7,1.1c-44.5,1-89.1,1.7-133.6,2.2c-19.7,0.2-39.4,0.5-59,0.8
					c-12,0.2-24,0.5-36,0.8c-7.4,0.2-14.7,0.3-22.1,0.5c-3.9,0.1-7,0.2-9,3.9c-4.1,7.3-1.1,17.1-0.2,24.8c0.7,5.7-1,11.9,2,17.1
					c2,3.6,7.3,2.8,10.7,2.8C757.7,356,764.2,355.9,770.8,355.6c1.3,0,1.3-2,0-2c-8.5,0.3-17,0.7-25.5,0.2
					c-5.4-0.3-4.7-8.9-4.7-12.6c0-6.1-1.3-11.9-1.7-17.9c-0.3-4,0-9.2,2.6-12.5c1.7-2.1,7.5-1.4,9.8-1.4c8.1-0.2,16.2-0.4,24.3-0.5
					c11-0.2,22-0.5,33-0.7c41.6-0.7,83.2-1,124.8-1.6c23.7-0.3,47.3-0.9,71-1.5l49.7-1.1c7.6-0.2,15.2-0.4,22.9-0.5
					c7.5-0.2,18.4-2,20.4,7.7c2,9.6-2,20.2-3.1,29.8c-0.4,3.8-8.1,4.6-10.9,5.1c-16.4,3.2-33.5,3.4-50.1,3.8
					c-13.5,0.3-27.1,0.4-40.6,0.1c-31.4-0.6-62.6,5.1-94,3.5c-36.5-1.8-73.3-0.8-109.7-0.1c-6.1,0.1-12.2,0.2-18.2,0.4
					C769.5,353.7,769.5,355.7,770.8,355.6z"/>
			</g>
		</g>
		<g id="Group_2701">
			<path id="Path_3642" class="st2" d="M751.5,405.7c6.4,0.4,13.2-0.8,19.4-1.1c23.1-0.9,106.6,0.6,129.7,1.8
				c31.9,1.7,63.9,1.4,95.8,1.2c2.6,0,5.1,0,7.7-0.1c16.1-0.1,32.1-0.4,48.1-1.2c7.1-0.3,15.2-2.1,22.2-0.8c5.6,1.2,11.4,0,16.1-3.1
				c1.3-0.8,3-1.7,2.9-3.5c-0.2-2.2-3.2-2-0.9-3.7c1.4-1.1,4-0.3,5-1.8c1.2-1.8,0-6.2-0.3-8.2c-0.4-3.9-2.3-7.7-3-11.6
				c-0.4-2.2-0.3-10.7-0.3-10.7c0.1-2.4-1.8-4.4-4.2-4.5c-0.2,0-0.5,0-0.7,0c0,0-8.8,0.9-14.2,1c-6.2,0.1-12.4,0.3-18.6,0.4
				c-32.5,0.7-65,1.4-97.5,2.2c-33.9,0.8-127.9,1.5-161.8,2.3c-12.2,0.3-24.5,0.5-36.7,0.8c-3.9,0-7.8,0.2-11.6,0.8
				c-2.4,0.4-8.9,0.3-10.7,1.7c-4.4,3.5-0.5,14.9,0.5,19.2c1.3,5.6-0.3,16,6.9,18C747.4,405.3,749.4,405.6,751.5,405.7z"/>
			<g id="Group_2700">
				<path id="Path_3643" class="st3" d="M751.5,406.7c9.7,0.3,19.5-1.2,29.2-1.3c8.5-0.1,17-0.1,25.5,0c20.5,0.1,41,0.5,61.5,1
					c19.4,0.5,38.9,1.5,58.3,2c32.4,0.8,64.9,0.5,97.4,0c7.7-0.1,15.4-0.4,23.1-0.7c7.7-0.3,15.3-1.5,22.9-1.5
					c6.2,0,11.1,1.6,17.2-0.5c2-0.7,8.9-3.4,7.8-6.9c-0.6-2-2.9-2.5,0.4-3.2c1.2-0.2,2.8-0.3,3.5-1.6c2-3.5-0.3-10.5-1.3-14
					c-1.5-4.9-2.2-10-2.1-15c0-2.6-0.1-6-3.1-7c-3.2-1.1-7.1,0-10.4,0.2c-7.1,0.5-14.3,0.5-21.4,0.7c-16.5,0.4-33,0.8-49.5,1.1
					c-24.6,0.5-49.1,1.2-73.7,1.5c-41.7,0.6-83.5,0.9-125.2,1.6c-10,0.2-20.1,0.4-30.1,0.6c-13.3,0.3-26.8,0-39.9,1.9
					c-9.2,1.3-6.6,11.3-4.9,18c1.7,6.7,0.1,17.9,7.2,21.7C746,406.4,749.1,406.5,751.5,406.7c1.3,0.1,1.3-1.9,0-2
					c-4.3-0.3-8.3-0.7-10.2-5.1c-1-2.3-1.1-5.1-1.3-7.6c-0.5-4.2-1.3-8.3-2.4-12.3c-0.8-2.8-1-5.7-0.6-8.6c0.7-3.9,5.5-3.6,8.5-3.8
					c6.8-0.5,13.6-1,20.4-1.2c21.4-0.5,42.8-1,64.2-1.2c41-0.6,82-0.8,123-1.6c30.4-0.6,60.7-1.3,91-2c14-0.3,28-0.2,41.9-1.5
					c2.4-0.2,6.2-1.2,6.7,3.2c0.1,1.3,0.1,2.7,0,4c0,5.5,1.1,9.9,2.7,15.2c0.8,3,1.3,6.1,1.4,9.2c0.1,2.9-3.9,1.8-5.2,3.2
					c-0.6,0.6-1.3,1.2-1,2.2c0.1,0.3,0.4,0.6,0.6,0.9c1.9,2.3-1.1,3.8-2.7,4.8c-6.8,4-13.7,1.7-20.9,1.7c-7.7,0-15.4,1.3-23.1,1.6
					c-32.3,1.3-64.7,1.2-97,1c-34.3-0.3-68.6-2.2-102.9-2.8c-16.2-0.3-32.4-0.5-48.6-0.5c-6.2,0-12.4,0-18.6,0.1
					c-8.7,0.1-17.3,1.5-26,1.2C750.2,404.6,750.2,406.6,751.5,406.7z"/>
			</g>
		</g>
		<g id="Group_2703">
			<path id="Path_3644" class="st2" d="M751.7,449.7c2.4,2.7,4.8,5.6,8,7.1c4.2,2,10.9,1.7,15.7,2.4c20.8,3.1,42.3-6,63.1-7.9
				c11.5-1,25.4-1.3,36.4,2c9,2.7,16,5,25.5,6.1c29.7,3.6,62.9,9.2,92.8,5.6c10.5-1.3,21,4.2,31.7,3.6c14.1-0.8,28.3,0,42.5-1
				c6.2-0.4,21.5,0.2,26-5.2c2.7-3.3,1.4-12.6,2.3-17c1-5,3.5-15-1-19c-3.3-2.9-12.5-1.6-16.5-1.8c-6.5-0.3-12.9-0.6-19.4-0.9
				l-97.4-4.6c-23.1-1.1-46.3-2.2-69.4-3.2l-41.7-1.9c-6-0.3-10.5-0.3-16.1,1.5c-5.5,1.7-7.5,2.6-12.4-0.2c-1.4-0.8-1.3-1.9-3.3-2.8
				c-1.9-0.8-5.7-0.3-7.8-0.4l-10.9-0.5c-12.2-0.6-24.4-1.1-36.7-1.7c-4.1-0.2-8.3-0.4-12.4-0.6c-4.8-0.2-7.1-0.5-9,4
				c-3.5,8.2-4.7,22.8-4.7,22.8c-0.2,2.8,1.7,5.4,4.4,6.2c1.2,0.4,2.4,0.9,3.5,1.5C747.5,445.4,749.8,447.3,751.7,449.7z"/>
			<g id="Group_2702">
				<path id="Path_3645" class="st3" d="M751,450.4c3.6,4.1,6.9,7.4,12.3,8.6c6.1,1.4,13.1,1.6,19.2,1.9c14.7,0.6,29.3-3.9,43.6-6.7
					c14.7-2.9,30.7-3.8,45.4-0.7c6.7,1.4,13.1,3.9,19.7,5.4c7,1.6,14.3,2.2,21.5,3.1c15.3,2,30.6,3.9,46,4.8
					c7.3,0.4,14.6,0.5,22,0.2c8.1-0.3,15.7-1.7,23.8-0.3c6.3,1.1,12.3,2.8,18.7,3c8.2,0.2,16.6-0.4,24.9-0.5
					c11.5,0,23.7,0.2,35.1-1.6c3.7-0.6,7.4-1.4,10.4-3.9c3-2.5,2.7-7.9,2.8-11.4c0.1-4.7,1.1-9,1.7-13.6c0.5-3.7,1.1-9.2-1.8-12.3
					c-2.6-2.8-6.4-2.9-10.1-3c-6.5-0.1-13-0.1-19.5-0.4c-16.5-0.8-33-1.5-49.5-2.3c-33.1-1.6-66.2-3.1-99.3-4.7
					c-16.5-0.8-33.1-1.5-49.6-2.3c-7.6-0.4-15.3-0.9-22.9-1c-2.7,0-5.4,0.3-8.1,0.8c-3.8,0.7-7.4,2.9-11.3,2.3
					c-3-0.5-4.5-2.9-6.9-4.3c-1.9-1.1-5-0.6-7.1-0.5c-7.8,0.3-15.8-0.7-23.6-1.1c-8.4-0.4-16.7-0.8-25.1-1.2
					c-5.7-0.3-12.6-1.7-18.2-0.3c-3.7,0.9-4.8,6.2-5.7,9.2c-1.3,4.9-2.2,9.8-2.7,14.9c-0.3,2.7-0.9,5.8,1.1,8
					c1.1,1.3,2.6,2.2,4.2,2.7C745.4,444.8,748.3,447.4,751,450.4c0.9,1,2.3-0.5,1.4-1.4c-3.1-3.4-6.2-6-10.6-7.5
					c-5.8-2-3.3-10-2.7-13.9c0.7-4.7,1.5-13.7,5.7-16.7c2-1.5,7.1-0.4,9.4-0.3c4.2,0.2,8.5,0.4,12.7,0.6c15.3,0.7,30.9,2.6,46.2,2
					c2.3-0.1,4.6-0.4,6.5,1.6c0.4,0.6,1,1.1,1.6,1.5c1.6,1,3.5,1.7,5.4,1.9c2.1,0,4.2-0.4,6.2-1.1c4-1.3,8.2-2,12.4-2.1
					c16.2-0.3,32.6,1.4,48.7,2.2c16.5,0.8,33.1,1.5,49.6,2.3c33.1,1.6,66.2,3.1,99.4,4.7c14.4,0.7,28.8,1.6,43.2,1.5
					c3.3,0,7.1,0.1,9.1,3.1c1.6,2.4,1.2,6.2,1,8.9c-0.5,5.1-1.7,9.7-1.8,14.9c-0.1,3,0,6.1-1.3,8.8c-1.1,2.4-4.7,3.3-6.9,3.8
					c-5.2,1.4-10.8,1.3-16.2,1.5c-15,0.5-30.1,0.3-45.1,1.1c-7.3,0.4-14.4-1.9-21.5-3.2c-7-1.2-13.9,0.1-20.9,0.5
					c-15.3,0.9-30.7-0.4-46-2c-15.3-1.7-31.3-2.9-46.4-6.4c-6.6-1.5-13-4-19.6-5.4c-6.8-1.3-13.6-1.8-20.5-1.5
					c-16.3,0.2-31.9,4.4-47.8,7.4c-8.8,1.8-17.8,2.2-26.7,1.2c-3.8-0.5-7.7-0.6-11.6-1.2c-5-0.8-8.2-4.4-11.4-8.1
					C751.5,448,750.1,449.4,751,450.4z"/>
			</g>
		</g>
		<path id="Path_3646" class="st4" d="M925.9,314.8c9.2,0.9,17.6,1.4,26.2,4.6c9.3,3.5,15.6,2.6,24.7,0.3c10.4-2.7,22-1,32.7-0.9
			c25,0.2,50-0.2,75-0.2"/>
		<path id="Path_3647" class="st4" d="M1049.6,337.3c5.9-1.2,11.9-1.9,17.9-2"/>
		<path id="Path_3648" class="st1" d="M1067.9,289.1c-0.2,0-0.5,0.1-0.7,0.1c-4.9,0.8-8.7,3.3-13.5,4.6c-6.5,1.7-14.4-0.5-21.2-0.5
			c-16.9,0-32.9-3.4-49.7-2.1c-14.5,1.1-29.1,2-43.6,3.8c-30.5,3.8-62.8,0.4-93.4,3.2c-67.1,6.3-101.9,4.4-103-1.8
			c-1.6-9.1-5.3-18-5.4-27.4c-0.1-5.2,1.9-7.3,5.8-10.2c3.7-2.8,7-6.8,12-6.8c3.9,0.1,7.7,2.4,11.6,3c7,1,14.5-0.1,21.5-0.5
			l88.2-4.4c33.9-1.7,127.6-7.7,161.5-9.4c12.2-0.6,24.4-1.2,36.7-1.8c4.1-0.2,8.3-0.4,12.4-0.6c4.8-0.2,7.1-0.5,9,4
			c3,7,1.9,14.8,1.3,22.2c-0.5,7.1,5.8,11.4-0.3,16.5c-5.1,4.2-14.8,7.2-21.2,7.7C1073.1,288.8,1070.6,288.8,1067.9,289.1z"/>
		<g id="Group_2705">
			<path id="Path_3649" class="st2" d="M1071.7,287.1c-28.3,7.9-57.7,4.1-86.8,7.5c-10.1,1.2-20.1,2.8-30.3,2.4
				c-9.6-0.3-18.2-4.6-27.7-5c-26.1-1-52.3-0.4-78.3,1.9c-26.8,2.5-54.1,4.6-81,3.4c-11.6-0.5-18.9,0.4-23-10.3
				c-3.7-9.9-8.2-16-1.3-23.4c6.3-6.8,12.3-17.9,22-20.2c10.7-2.5,22.7,2,33.7,2.1c10.4,0.1,47.2,1.2,56.2,0.5
				c9.7-0.8,19.4,1.3,29,0.2c6.6-0.7,13.3-1.4,20-1.8c16-0.9,32.1-1.9,48.1-2.9c29.5-1.8,58.9-3.7,88.4-5.2
				c12.2-0.6,24.4-1.2,36.7-1.8l12.4-0.6c4.8-0.2,7.1-0.5,9,4c3,7,1.9,14.8,1.3,22.2c-0.6,8.1,4.2,14.3-3.4,19.1
				c-4.9,3.1-11.6,4.8-17.3,6C1076.8,285.8,1074.3,286.4,1071.7,287.1z"/>
			<g id="Group_2704">
				<path id="Path_3650" class="st3" d="M1071.4,286.2c-15.9,4.3-32.2,5.1-48.5,5.5c-15.9,0.4-31.6,1.2-47.5,3.1
					c-7.5,1.1-15.1,1.5-22.7,1.2c-7.6-0.5-14.8-3.7-22.4-4.6c-15.6-1.7-31.9-0.9-47.5-0.4c-32.1,0.9-63.9,5.5-96,5.8
					c-7.4,0.1-14.7-0.2-22.1-0.5c-5.4-0.2-11.5,0-15.8-3.9c-4-3.6-6-11.4-7.6-16.5c-2.4-7.5,3.4-12.1,7.6-17.5
					c3.6-4.5,7.2-9.1,12.1-12.2c6.9-4.3,16.6-2.4,24.2-1.2c9.3,1.4,18.5,1.6,27.9,1.8c20.5,0.4,41-0.2,61.4,0.7
					c7.5,0.3,14.9-0.9,22.3-1.5c8.2-0.7,16.4-1.1,24.7-1.5c16.2-1,32.3-1.9,48.5-2.9c32.6-2,65.2-3.8,97.8-5.4
					c8.2-0.4,16.4-0.9,24.6-1.2c9.7-0.3,7.3,17.4,6.8,23.5c-0.6,6.7,3.5,15.3-3.1,20C1089.2,283.3,1079.4,284,1071.4,286.2
					c-0.5,0.2-0.8,0.7-0.7,1.2c0.2,0.5,0.7,0.8,1.2,0.7c8.8-2.4,25.5-3.2,29.6-13.2c1.6-3.9-0.4-9.4-0.5-13.4
					c-0.2-7,1.3-13.6-0.2-20.5c-0.8-3.5-2.4-7.1-6.1-8c-2.1-0.5-4.6-0.1-6.7,0c-4.2,0.2-8.4,0.4-12.5,0.6
					c-16.2,0.8-32.3,1.6-48.5,2.5c-32.6,1.8-65.2,3.9-97.8,5.9c-15.7,0.9-31.3,2-47,3.5c-7.7,0.7-15.5-0.6-23.2-0.6
					c-4,0-8,0.4-12,0.4c-9.8,0.1-19.5-0.2-29.3-0.4c-9.5-0.2-19.2,0.1-28.6-1.3c-11.2-1.6-22.9-4.2-32.5,3.3
					c-4.2,3.3-7.4,8-10.8,12.2c-2.7,3.4-6.7,6.7-7.1,11.3c-0.4,4.9,1.8,9.4,3.7,13.9c1.7,4.2,3.1,8.1,6.8,10.9
					c2.9,2.2,6.9,2.5,10.4,2.8c7.1,0.5,14.3,0.6,21.4,0.7c32.1,0.3,64-4.3,96-5.6c16.6-0.7,33.2-0.6,49.8-0.1
					c8.1,0.3,15.9,3.5,23.9,4.6c7.5,1.1,15.4,0.1,22.8-0.7c16.5-1.8,32.8-2.9,49.4-3.3c16.5-0.4,33-1.3,49.1-5.6
					c0.5-0.1,0.8-0.7,0.7-1.2C1072.5,286.3,1072,286,1071.4,286.2z"/>
			</g>
		</g>
		<path id="Path_3651" class="st4" d="M899.6,253.2c-9.1,1.6-17.5,2.6-25.8,6.5c-9.1,4.1-15.4,3.8-24.6,2.1
			c-10.5-1.9-22,0.6-32.7,1.5c-14.1,1.1-28.2,2.1-42.2,3c-11,0.7-26.7-1.5-35.7,5.8"/>
		<path id="Path_3652" class="st4" d="M790.8,284.6c-5.9-0.8-12-1-17.9-0.7"/>
		<path id="Path_3653" class="st4" d="M737.7,385.1c0.1,1.4,0.5,2.7,1.9,3.3c0.7,0.3,1.5,0.5,2.3,0.7c1.4,0.3,2.8,0.4,4.3,0.3
			c1.6,0,3.1,0,4.7,0c7.6-0.1,15.3-0.2,22.9-0.3c7.6-0.1,15.3-0.2,22.9-0.3c7.6-0.1,15.2-0.2,22.9-0.3c7.6-0.1,75.3-0.2,82.9-0.2
			s15.3-0.1,22.9-0.1"/>
		<path id="Path_3654" class="st1" d="M739.4,391.6c1.2-0.3,4.7-2.1,4.6-2l-1.3-0.1C742.7,389.5,736.4,387.1,739.4,391.6z"/>
	</g>
	<path id="Path_3655" class="st4" d="M886.5,529.9c53.1,5.4,165.4,3.7,218.6,3.7"/>
	<g id="Group_2712" transform="translate(91.596 199.083)">
		<g id="Group_2708">
			<path id="Path_3656" class="st2" d="M1044.8,322.8c-0.2-6.5-0.7-13-1.7-19.4c-2.5-16.5-56.5,3.4-66.5,4.6
				c-11.2,1.3-24.3,0.7-33.3-6.2c-12.7-9.7-27.3-7.4-42.1-7.2c-18.6,0.2-37.3,0.4-55.9,0.6c-12.4,0.1-25.4,1.3-37.7,0
				c-7.4-0.8-10,3.4-10.1,5.3c0.8,17.3-4.6,78.6-4.4,87c0.1,4.8,4,5.3,14.7,7.5c12.3,2.5,195.6,17.8,214,18c8,0.1,14.1,0.2,21.9-1.4
				C1043.9,402.1,1045.4,342.8,1044.8,322.8z"/>
			<g id="Group_2707">
				<path id="Path_3657" d="M1045.8,322.8c-0.1-6.8-0.7-13.5-1.8-20.2c-0.5-2-1.8-3.7-3.6-4.7c-5-3.2-12.6-2.1-18.1-1.5
					c-15.2,1.8-29.5,7.2-44.3,10.3c-12.1,2.5-25.5,0.4-35.6-6.8c-10.4-7.6-24.1-6.8-36.3-6.4c-16.3,0.5-32.6,0.5-48.9,0.6
					c-15.9,0.2-32,1.5-47.8,0.3c-4.2-0.3-8.1-0.5-11.3,2.6c-1.9,1.9-1.6,4.3-1.6,6.7c0.1,8-0.4,16.1-0.9,24.1
					c-1,17.8-2.5,35.6-3.4,53.4c-0.2,4.2-1.2,9.1,3,11.6c4.4,2.6,10.4,3,15.4,3.7c9.4,1.3,18.9,2.1,28.3,3
					c33.4,3.2,66.9,6,100.4,8.7c26.2,2.1,52.5,4.5,78.8,5.8c8.6,0.4,17.3,0.3,25.8-1.3c0.4-0.1,0.7-0.5,0.7-1
					C1045.4,382.1,1046.7,352.4,1045.8,322.8c0-1.3-2.1-1.3-2,0c0.5,18.1,0,36.3-0.4,54.5c-0.2,8.6-0.4,17.3-0.6,25.9
					c-0.1,2.5-0.1,4.9-0.2,7.4c0,1.3,0.2,0.2-1.1,0.5c-2.1,0.4-4.3,0.6-6.4,0.8c-3.9,0.3-7.8,0.3-11.6,0.2
					c-23.2-0.2-46.6-2.9-69.7-4.7c-34.4-2.7-68.8-5.6-103.1-8.8c-11.6-1.1-23.2-2.1-34.7-3.4c-2.6-0.3-5.2-0.5-7.8-1
					c-3.7-0.7-11.1-1-13.6-4.4c-1.2-1.6-0.5-5.3-0.4-7.2c0.8-17.5,2.3-35,3.3-52.5c0.5-8.3,0.9-16.6,1-24.9c0-4.4-0.3-7.4,4.9-8.8
					c3.5-0.9,8,0.2,11.6,0.4c4.4,0.2,8.9,0.1,13.3,0c16.3-0.4,32.6-0.6,48.9-0.8c14.9-0.2,30.1-1.4,45-0.5
					c7.4,0.4,14.5,2.9,20.5,7.2c5,3.6,10.7,5.4,16.8,6.3c7.9,1.1,15.9,0.6,23.7-1.4c12.4-3.2,24.7-6.9,37.3-8.8
					c5.5-0.8,11.5-1.5,16.9,0.1c2.2,0.5,3.9,2.1,4.6,4.3c1.7,6.1,1.5,13.4,1.7,19.7C1043.8,324.1,1045.9,324.1,1045.8,322.8z"/>
			</g>
		</g>
		<g id="Group_2710">
			<path id="Path_3658" class="st2" d="M1040.8,322.6c-0.1-7.3,0.4-29.3,0.4-29.3s-83.1-1.8-93-1.1c-35,2.2-70.1,2.6-105.3,2.9
				c-16,0.1-50.7-0.2-50.7-0.2s0.9,33.8-0.1,49.3c-1.1,16.6-2,33.4,0,50c0.6,4.7,2.2,14.3,2.8,18.9c20.1,4,142.6-4,166.1-1.6
				c14.8,1.6,11.4,1.6,27.7,1.6c8.9,0,21.7-9.9,21.7-9.9l8.7-14.2c0,0,11-2.8,15.5-6.9c5.9-5.3,4-19.7,4.3-27.3
				c0.4-9,0.8-18,1.6-26.9C1040.6,326.2,1040.7,324.4,1040.8,322.6z"/>
			<g id="Group_2709">
				<path id="Path_3659" d="M1041.8,322.6c-0.1-9.8,0.2-19.6,0.4-29.3c0-0.6-0.5-1-1-1c-26.5-0.6-53-1.1-79.5-1.3
					c-21-0.1-42,1.7-63.1,2.2c-27.2,0.7-54.3,1-81.5,0.8c-8.3,0-16.6-0.1-24.9-0.2c-0.6,0-1,0.5-1,1c0.4,14.7,0.7,29.5,0.2,44.2
					c-0.4,13.2-1.7,26.4-1.4,39.7c0.3,11.7,2.3,23,4,34.6c0.1,0.4,0.4,0.6,0.7,0.7c11,2.1,22.9,1.3,34,1.1
					c18.5-0.2,37.1-0.9,55.6-1.5c17.7-0.6,35.5-1.3,53.2-1.5c6.1-0.1,12.2-0.1,18.3,0.1c6.6,0.2,13.1,1.4,19.6,1.8
					c5.9,0.3,12.3,0.8,18.1-0.6c5.6-1.4,10.8-4.7,15.5-7.9c5.1-3.5,7.8-10.7,11-16c-0.5,0.8,0,0.3,0.9,0c1.2-0.3,2.4-0.7,3.5-1.1
					c2.8-0.9,5.5-2.1,8-3.5c4.5-2.5,6.5-6.8,7.1-11.8c0.9-6.7,0.2-13.5,0.5-20.2C1040.4,342.8,1041.6,332.7,1041.8,322.6
					c0-0.6-0.5-1-1-1c-0.5,0-1,0.4-1,1c-0.3,13.9-2.1,27.6-1.9,41.5c0.1,5.5,0.2,12.1-3.3,16.6c-3.1,3.9-9.8,5.6-14.3,6.9
					c-1.7,0.5-2,0.8-2.9,2.3c-2,3.3-4.1,6.7-6.1,10c-1.5,2.4-1.2,2.3-3.3,3.8c-4.2,3.1-8.9,5.5-13.8,7.3c-5.1,1.8-11,1-16.2,0.9
					c-3.7-0.1-7.3-0.5-11-0.9c-5.8-0.7-11.6-1-17.4-1.1c-16-0.2-31.9,0.5-47.9,1c-19.1,0.6-38.3,1.3-57.4,1.8
					c-14.3,0.4-28.7,0.9-43-0.1c-1.9-0.1-3.8-0.3-5.6-0.6c-0.2,0-1.9-14.7-2.2-16.2c-2.3-15.9-1.5-32-0.5-48
					c1.1-17.6,0.8-35.2,0.3-52.8c0-0.1,0-0.2,0-0.3l-1,1c48,0.5,96.1,0.4,144.1-2c30.6-1.6,61.3-0.4,91.9,0.2
					c4.3,0.1,8.6,0.2,12.9,0.3l-1-1c-0.2,9.8-0.4,19.5-0.4,29.3c0,0.6,0.5,1,1.1,1C1041.3,323.6,1041.8,323.2,1041.8,322.6z"/>
			</g>
		</g>
		<g id="Group_2711">
			<path id="Path_3660" d="M1030.8,384.2c-2.8,1-9.8,3.8-12.2,5.7c-2,1.6-6.1,8.2-6.8,9.7c-3.8,7.8-24.6,14.1-24.6,14.1
				s10.6,1.4,18.9-2.4c3.7-1.9,7.2-4.2,10.4-7c5-4.4,21.3-22.2,21.8-27.1C1039.4,374.3,1034.8,382.8,1030.8,384.2z"/>
		</g>
	</g>
	<g id="Group_2731" transform="translate(91.596 199.083)">
		<path id="Path_3661" class="st5" d="M984.4,174.2c0-0.1,0.1-0.1,0.1-0.1c2.5-2.5,5.1-4.8,7.9-6.9c1.4-1.2,6.9-6.2,6.9-6.2
			c-0.5-0.4-5.7,0.5-7.1,0.8c-2.9,0.5-14.2,5.6-14.9,6.4c-0.9,1-0.9,2.7-0.9,3.9c0.1,2.4,0.4,4.7,1,7c0-0.2,1.3-0.1,1.4,0
			c0.5,0.1,0.7,3,1.2,3c2.6,0.3,10.3-4.2,11.6-5.2c0.7-0.5,9.3-6.7,9.4-7.5C1000.2,168.9,984.5,174,984.4,174.2z"/>
		<g id="Group_2728">
			<path id="Path_3662" class="st5" d="M974.2,217.1c-2.4-5.1-13.1-13.7-15.8-5.8c-0.9,2.6,2.5,9.1,3.4,11.4
				c1.5,3.8,2.8,7.7,4.4,11.5c3.3-0.8,7.4-0.8,9.6-3.3C975.7,231.1,975.3,219.4,974.2,217.1z"/>
			<g id="Group_2716">
				<g id="Group_2714">
					<path id="Path_3663" class="st2" d="M965.8,169.4c4.3-3,11.7-3.4,12.6,1.7l3.5,11.2c1.2,3.3-3.5,5.7-6.8,7.6
						c-5.1,2.6-6.8-1.2-8.4-5.3C964.8,179.3,960.8,173,965.8,169.4z"/>
					<g id="Group_2713">
						<path id="Path_3664" class="st5" d="M966.5,170.4c4.1-2.5,9.5-3.3,11.1,2c1,3.1,1.9,6.1,2.9,9.2c0.8,2.5-1.1,4.2-3.1,5.5
							c-3.1,2.1-6.3,3.6-8.5-0.5c-2.3-4.2-6.7-12.8-2.3-16.5c1.2-1-0.5-2.7-1.7-1.7c-2.6,2.2-3.1,4.8-2.5,8.1
							c0.8,4,2.9,8.5,4.8,12.1c1.5,2.8,4.1,3.6,7.1,2.8c2.7-0.8,7.5-3.6,8.6-6.4c0.8-2.1,0-3.8-0.7-5.8c-0.9-2.7-1.7-5.5-2.6-8.2
							c-2.1-6.5-9.5-5.8-14.4-2.7C963.9,169.2,965.1,171.3,966.5,170.4z"/>
					</g>
				</g>
				<path id="Path_3665" class="st5" d="M971.5,178.4c-0.2-0.7-0.2-1.5-0.2-2.2c0.1-0.9,1.2-1.4,2-1.6c0.6-0.2,1.3-0.1,1.8,0.3
					c0.5,0.6,0.4,1.7,0.4,2.5c0,0.6-0.1,1.2-0.5,1.7c-0.3,0.4-0.7,0.8-1.1,1C972.7,180.6,971.7,179.4,971.5,178.4z"/>
				<g id="Group_2715">
					<path id="Path_3666" class="st5" d="M968.9,164.3c2.5,0.9,5.1,2.1,6.6,4.4c0.8,1.3,2.9,0.1,2.1-1.2c-1.8-2.9-4.9-4.4-8.1-5.6
						C968,161.4,967.4,163.7,968.9,164.3z"/>
				</g>
			</g>
			<g id="Group_2717">
				<path id="Path_3667" class="st5" d="M976.3,226.2c1.1,3.1,1.9,6.3,2.8,9.5c0.4,1.5,0.9,2.9,1.4,4.4c0.4,1.3,1.6,2.2,2.2,3.3
					c0.3,0.6,1.1,0.8,1.6,0.4c0.6-0.3,0.8-1.1,0.4-1.6c-1.4-2.2-2.6-4.6-3.4-7.1c-0.9-3.2-1.7-6.4-2.8-9.5
					C978.2,224.1,975.8,224.7,976.3,226.2L976.3,226.2z"/>
			</g>
			<g id="Group_2719">
				<path id="Path_3668" class="st1" d="M924.9,187.6c23.6,16.9,57.7,41.2,82.8,54.2l9.4-7l2.5-11.1c-18.9-10.6-19-12.9-37.1-24.8
					c-15.3-9.9-30-21.5-45.5-30.9"/>
				<g id="Group_2718">
					<path id="Path_3669" class="st5" d="M924.3,188.7c26.7,19.1,53.6,39,82.8,54.2c0.4,0.2,0.8,0.2,1.2,0c3.1-2.3,6.9-4.5,9.6-7.2
						c1-1,1.1-4,1.4-5.3c0.5-2.1,1-4.2,1.4-6.3c0.1-0.5-0.1-1.1-0.6-1.4c-11.8-6.7-22.3-14.8-33.5-22.4
						c-16.3-11.1-32.2-23-49.1-33.3c-0.6-0.3-1.3-0.1-1.6,0.5c-0.3,0.6-0.1,1.3,0.4,1.6c16.5,10,31.9,21.8,47.9,32.5
						c11.6,7.8,22.4,16.3,34.6,23.2c-0.2-0.5-0.4-0.9-0.6-1.4c-0.6,2.8-1.3,5.6-1.9,8.4c-0.1,0.6-0.3,1.1-0.4,1.7
						c-0.2,0.9-0.5,0.9,0.3,0.3l-3.4,2.5l-4.2,3.2c-2.1,1.5-1.1,1-3.4-0.2c-5.2-2.8-10.4-5.8-15.4-8.9
						c-22.2-13.5-43.4-28.7-64.5-43.8C924.3,185.7,923.1,187.8,924.3,188.7L924.3,188.7z"/>
				</g>
			</g>
			<g id="Group_2720">
				<path id="Path_3670" class="st5" d="M931.2,183.5c27.2,17.7,53.9,36.1,81.8,52.8c4,2.4,7.6-3.8,3.6-6.2
					c-27.9-16.7-54.6-35.1-81.8-52.8C930.9,174.8,927.3,181,931.2,183.5z"/>
			</g>
			<g id="Group_2722">
				<path id="Path_3671" class="st2" d="M936.2,167.1c4.8,4.4,0.5,11.5-5.9,10.7l0,1c3,5.6-3.7,11.5-8.6,6.8l-1.3-0.8
					c-5.3-7.4-12.2-15.5-14-24.6c7.1-1.8,22.6,4.3,29.6,6.2"/>
				<g id="Group_2721">
					<path id="Path_3672" class="st5" d="M935.4,168c4,4.2-0.1,8.9-5.1,8.6c-0.7,0-1.2,0.5-1.2,1.2c-0.1,3.3,1.9,6.5-2.4,8.1
						c-3.6,1.4-6.7-3.7-8.4-5.9c-4.6-6.2-9.2-12.5-10.9-20.2l-0.8,1.5c5-1.1,10.5,0.6,15.2,2c4.6,1.3,9.1,2.9,13.7,4.3
						c0.6,0.2,1.3-0.2,1.5-0.8s-0.2-1.3-0.8-1.5l0,0c-9.3-2.7-20.3-8.4-30.2-6.2c-0.6,0.2-1,0.8-0.8,1.5c1.3,5.7,4.1,10.6,7.3,15.4
						c2.8,4.1,5.4,8.2,9.2,11.3c2.6,2.2,6,1.5,8.5-0.5c1.1-1,1.8-2.4,2-4c0.2-1.8-0.7-3.2-0.6-4.8c-0.4,0.4-0.8,0.8-1.2,1.2
						c7.1,0.5,12.2-7.1,6.8-12.7C936,165.2,934.3,166.9,935.4,168L935.4,168z"/>
				</g>
			</g>
			<path id="Path_3673" class="st5" d="M913.4,171.5c3.6-1.5,5.4-5.6,3.9-9.3c-0.2-0.5-0.5-1-0.8-1.5l-10.1-0.6l5.5,12L913.4,171.5z
				"/>
			<g id="Group_2723">
				<path id="Path_3674" class="st5" d="M964.2,219.8c-2.1,6.3-4.5,12.5-7.1,18.6c-0.6,1.4,1.5,2.6,2.1,1.2
					c2.7-6.3,5.2-12.6,7.4-19.2C967,219,964.7,218.3,964.2,219.8z"/>
			</g>
			<path id="Path_3675" class="st5" d="M952.4,194.5c-1.7-1.3-5.5-0.4-7.7-0.4l-2.6-0.4c-5.5,3,1.7,17.5,6.8,15.8
				C953.7,208.2,955.8,197.5,952.4,194.5z"/>
			<g id="Group_2724">
				<path id="Path_3676" class="st5" d="M961.1,238.6c-2.1-0.2-3.9-0.4-6-0.4c-0.7,0-1.2,0.5-1.2,1.2c0,0.7,0.5,1.2,1.2,1.2
					c0.8,0,1.6,0,2.4,0c0.1,0,0.3,0,0.4,0c0.2,0-0.3-0.1-0.1,0c1.1,0.2,2.2,0.4,3.3,0.4C962.7,241.2,962.7,238.8,961.1,238.6
					L961.1,238.6z"/>
			</g>
			<g id="Group_2725">
				<path id="Path_3677" class="st5" d="M957.4,238.9c-0.8,1-1.7,2-2.4,3c-0.3,0.6-0.1,1.3,0.4,1.6c0,0,0,0,0,0
					c0.6,0.3,1.3,0.1,1.6-0.4c0.8-1,1.6-2,2.4-3c0.3-0.6,0.1-1.3-0.4-1.6c0,0,0,0,0,0C958.5,238.1,957.8,238.3,957.4,238.9z"/>
			</g>
			<g id="Group_2726">
				<path id="Path_3678" class="st5" d="M979.7,242c2.2-1,4.4-0.6,6.7-0.6c0.7,0,1.2-0.5,1.2-1.2c0-0.7-0.5-1.2-1.2-1.2
					c-2.8,0-5.3-0.3-7.9,0.9C977.1,240.6,978.3,242.7,979.7,242L979.7,242z"/>
			</g>
			<g id="Group_2727">
				<path id="Path_3679" class="st6" d="M974.9,225.1c0.2,1.9,1,3.7,2.2,5.2c1.1,1.1,2.8-0.6,1.7-1.7c-0.9-1.2-1.5-2.6-1.6-4.1
					C977,222.9,974.7,223.5,974.9,225.1L974.9,225.1z"/>
			</g>
		</g>
		<g id="Group_2729">
			<path id="Path_3680" class="st5" d="M974.1,173.4c-2.1-1.5-5.1-1-6.6,1.2c-0.2,0.3-0.4,0.6-0.5,1c-1.3,3-0.1,6.4,2.8,8
				c2.5,1.4,5.2-0.1,6.2-2.5C977.3,178.4,976.5,175.2,974.1,173.4c-1.2-0.9-2.4,1.2-1.2,2.1c2.1,1.5,1.6,7.1-1.7,6.1
				c-4-1.2-2.3-8.6,1.7-6.1C974.2,176.3,975.4,174.2,974.1,173.4z"/>
		</g>
		<g id="Group_2730">
			<path id="Path_3681" class="st5" d="M957.7,212.4c1.1,4.3,1.1,8.8,0.1,13.1c-0.2,0.6,0.2,1.3,0.9,1.5c0.5,0.1,1-0.1,1.3-0.5
				c1.9-3,3.3-6.3,4.2-9.7c0.3-1.3-1.6-2.2-2.2-0.9c-1.6,3.4-2.5,7.2-4.4,10.5c-0.3,0.6-0.1,1.3,0.5,1.6c0.6,0.3,1.3,0.1,1.6-0.4
				c1.1-1.6,2.6-3,4.3-4.1c1.3-0.8,0.1-2.9-1.2-2.1c-2,1.3-3.8,2.9-5.1,4.9c0.7,0.4,1.4,0.8,2.1,1.2c1.9-3.3,2.8-7.1,4.4-10.5
				c-0.7-0.3-1.5-0.6-2.2-0.9c-0.9,3.2-2.2,6.3-4,9.1l2.2,0.9c1.1-4.7,1.1-9.6-0.1-14.3C959.6,210.3,957.3,210.9,957.7,212.4
				L957.7,212.4z"/>
		</g>
		<path id="Path_3682" class="st5" d="M992.7,197.2c-0.8-6.2-3-16.5-11-13.1c-3,1.3-5.3,3.9-7.5,6.6c-2.6,1-5.3,1.8-8,2.4
			c-1.6,0.3-3.7,0.1-5.1,0.7c-1.2,0.4-2.5,1.2-2.2,2.8c0.3,1.7,2,2.8,4.2,3.5c-4.9,3.4-10.3,7.4-9.1,8.1c7.6,4.3,15.3,9.4,20.3,8.8
			S994.7,212.6,992.7,197.2z"/>
	</g>
	<path id="Path_3683" class="st4" d="M829.8,534.5c8,3,15.3,3.4,24.1,3.4"/>
	<path id="Path_3684" class="st4" d="M1184.8,639.9c-12.7-4.8-25.9-5.4-39.3-5.6c-20.3-0.3-40.3-1.4-60.6-2.8"/>
	<path id="Path_3685" class="st4" d="M1186.9,580.5c-7.9,1.3-16.1,0.5-24.1,0.6"/>
	<path id="Path_3686" class="st1" d="M1142.9,526.9c-0.8-0.2-1.7-0.2-2.5,0.2c-0.5,0.2-0.9,0.4-1.3,0.7c-1.6,1.2-0.9,3.3,0,4.7
		c0.7,0.8,1.7,1.2,2.7,1.3C1144.9,533.5,1146.2,527.7,1142.9,526.9z"/>
	<path id="Path_3687" class="st1" d="M1138.9,473.9c-0.8-0.2-1.7-0.2-2.5,0.2c-0.5,0.2-0.9,0.4-1.3,0.7c-1.6,1.2-0.9,3.3,0,4.7
		c0.7,0.8,1.7,1.2,2.7,1.3C1140.9,480.5,1142.2,474.7,1138.9,473.9z"/>
	<path id="Path_3688" class="st1" d="M1136.9,446.9c-0.8-0.2-1.7-0.2-2.5,0.2c-0.5,0.2-0.9,0.4-1.3,0.7c-1.6,1.2-0.9,3.3,0,4.7
		c0.7,0.8,1.7,1.2,2.7,1.3C1138.9,453.5,1140.2,447.7,1136.9,446.9z"/>
	<path id="Path_3689" class="st1" d="M1142.9,584.9c-0.8-0.2-1.7-0.2-2.5,0.2c-0.5,0.2-0.9,0.4-1.3,0.7c-1.6,1.2-0.9,3.3,0,4.7
		c0.7,0.8,1.7,1.2,2.7,1.3C1144.9,591.5,1146.2,585.7,1142.9,584.9z"/>
	<path id="Path_3690" class="st1" d="M1142.9,643.9c-0.8-0.2-1.7-0.2-2.5,0.2c-0.5,0.2-0.9,0.4-1.3,0.7c-1.6,1.2-0.9,3.3,0,4.7
		c0.7,0.8,1.7,1.2,2.7,1.3C1144.9,650.5,1146.2,644.7,1142.9,643.9z"/>
	<path id="Path_3691" class="st1" d="M858.4,520.1c-0.8-0.1-1.7,0-2.4,0.5c-0.4,0.2-0.9,0.5-1.2,0.8c-1.5,1.4-0.5,3.3,0.5,4.6
		c0.8,0.7,1.8,1.1,2.8,1C861,526.4,861.7,520.6,858.4,520.1z"/>
	<path id="Path_3692" class="st1" d="M902.4,526.1c-0.8-0.1-1.7,0-2.4,0.5c-0.4,0.2-0.9,0.5-1.2,0.8c-1.5,1.4-0.5,3.3,0.5,4.6
		c0.8,0.7,1.8,1.1,2.8,1C905,532.4,905.7,526.6,902.4,526.1z"/>
	<path id="Path_3693" class="st1" d="M1106.4,515.1c-0.8-0.1-1.7,0-2.4,0.5c-0.4,0.2-0.9,0.5-1.2,0.8c-1.5,1.4-0.5,3.3,0.5,4.6
		c0.8,0.7,1.8,1.1,2.8,1C1109,521.4,1109.7,515.6,1106.4,515.1z"/>
	<path id="Path_3694" class="st1" d="M864.5,577.8c-0.8-0.1-1.7,0-2.4,0.5c-0.4,0.2-0.9,0.5-1.2,0.8c-1.5,1.4-0.5,3.3,0.5,4.6
		c0.8,0.7,1.8,1.1,2.8,1C867.2,584.1,867.8,578.3,864.5,577.8z"/>
	<path id="Path_3695" class="st1" d="M870.7,636.4c-0.8-0.1-1.7,0-2.4,0.5c-0.4,0.2-0.9,0.5-1.2,0.8c-1.5,1.4-0.5,3.3,0.5,4.6
		c0.8,0.7,1.8,1.1,2.8,1C873.4,642.8,874,636.9,870.7,636.4z"/>
	<path id="Path_3696" class="st7" d="M1143.3,588.2c4,1.2,9,0,13-0.3c2.8-0.2,6.6,0.1,9-1"/>
	<path id="Path_3697" class="st7" d="M829.6,633.8c2.7,7.1,17.9,5.2,23.7,5.2c29.3-0.2,58.5-3.6,87.8-3.5"/>
	<path id="Path_3698" class="st8" d="M990.7,647c9.4,1.2,19.2,0.2,28.8,1c8.5,0.7,17.1,0.7,25.6,0.7"/>
	<path id="Path_3699" class="st7" d="M1084.3,651.1l22.5-1.7"/>
	<path id="Path_3700" class="st4" d="M1193.1,466.6c-1.7-1.2-10.2-0.7-13.5-0.9c-9.2-0.4-18.3-2.2-27.5-2.6
		c-5.8-0.3-16.6-2-21.5,1.5"/>
	<path id="Path_3701" class="st4" d="M1012.1,476.6c20.4-1.9,39.4-10.5,59.6-13c6.2-0.8,13.1-1.6,18.9-3.5"/>
	<path id="Path_3702" class="st9" d="M1128.7,359.5c4.4,10.9,9.1,18.5,10.3,31c1.4,14.2-1.2,28.3,3.2,42.1"/>
	<text transform="matrix(0.9998 -1.745241e-02 1.745241e-02 0.9998 935.7725 477.6504)" class="st10 st11 st12">Questions asked</text>
	<path id="Path_3782" class="st1" d="M711.6,600.7c1,10.9,7.5,20.6,17.2,25.7c1.2-6.5,2.2-13.9-1.7-19.3c-1.8-2.5-4.4-4.3-7.1-5.9
		c-3.4-2.1-6.8-4.1-10.3-5.9"/>
	<path id="Path_3783" class="st1" d="M1268.7,367c-8,7.5-11.7,18.5-9.8,29.3c5.9-3.1,12.3-6.8,14.2-13.2c0.9-3,0.7-6.1,0.4-9.2
		c-0.4-3.9-0.9-7.9-1.6-11.8"/>
</g>
</svg>
