<svg xmlns="http://www.w3.org/2000/svg" width="556.964" height="526.307" viewBox="0 0 556.964 526.307">
  <g id="Group_2865" data-name="Group 2865" transform="translate(-1.396 -4.208)">
    <path id="Path_2399" data-name="Path 2399" d="M245.552,101.275c-48.184,30.14-86.228,55.4-112.572,61.127s-78,22.39-97.536,46.068C13.084,235.576,3.8,255.141,1.819,293.516c-10.184,197.639,166.4,215.072,236.225,168.149,72.1-48.458,132.026,1.552,183.519,1.835,106.472.586,127.124-104.121,131.618-128.834C595.634,101.275,366.727,25.479,245.552,101.275Z" fill="#feb740"/>
    <g id="Group_1803" data-name="Group 1803">
      <path id="Path_2400" data-name="Path 2400" d="M260.059,371.629a8.925,8.925,0,0,1-1.165-4.156c-.1-1.025.159-13.473.379-13.473H220.437c0,3,1.352,15.561-.134,18.248-.715,1.293-13.139,6.075-15.986,7.811-.256.158-.23,2.711,1,2.7.137,0,.274-.02.412-.02,11.254,0,22.507.226,33.761.269,7.5.027,15,.026,22.5-.078,2.965-.041,5.931-.1,8.893-.213,1.669-.061,9.453.96,6.788-2.341-.882-1.094-3.007-2.04-4.219-2.759-3.581-2.123-7.907-2.619-11.617-4.431A4.348,4.348,0,0,1,260.059,371.629Z" fill="#1a1a1a"/>
      <g id="Group_1802" data-name="Group 1802">
        <path id="Path_2401" data-name="Path 2401" d="M261.1,371.019c-1.4-2.959-1.024-6.22-.965-9.361.043-2.251-.441-5.745.3-7.895A1.422,1.422,0,0,0,259.273,352H220.437a1.442,1.442,0,0,0-1.21,1.441c.09,4.952.693,9.985.514,14.946-.1,2.731-.756,3.279-3.033,4.422-2.536,1.273-5.161,2.406-7.751,3.564-3.017,1.348-6.522,1.887-5.764,5.736a2.417,2.417,0,0,0,2.534,1.807c5.3,0,10.592.06,15.887.118,17.656.194,35.319-.187,52.963-.014,1.632.016,6.382-.729,4.573-3.575-4.008-6.307-13.81-4.516-18.235-9.672-1.019-1.186-2.722.535-1.711,1.712,3.375,3.933,10.283,4.313,14.68,6.752,1.018.564,4.665,2.057,1.586,2.339a21.477,21.477,0,0,1-2.661-.012c-3.014-.1-6.028.064-9.043.12-16.035.293-32.075.025-48.109-.128q-2.979-.029-5.958-.042c.014,0-5.372-.149-4.3-.761,1.524-.872,3.183-1.543,4.782-2.262,3.4-1.531,7.5-2.78,10.475-5.09,1.858-1.444,1.532-4.916,1.556-6.967.051-4.264-.485-8.445-.563-12.7-.4.4-.807.269-1.21,1.269h38.836c-.389-1-.778-1.08-1.167-1.59-.827,2.4-.333,5.785-.387,8.278-.079,3.681-.315,7.157,1.3,10.567C259.681,373.665,261.767,372.421,261.1,371.019Z" fill="#feb740"/>
      </g>
    </g>
    <g id="Group_1806" data-name="Group 1806">
      <g id="Group_1805" data-name="Group 1805">
        <path id="Path_2402" data-name="Path 2402" d="M220.505,173.109c4.9.005,9.689-.159,10.937,4.579,1.28,4.855.482,33.217.011,34.368-1.92,4.686-9.245,4.115-14.167,3.943-4.512-.158-9.649-.455-12.795,2.715-2.33,2.35-6.444,13.871-6.444,13.871s-5.118-10.817-7.643-12.716a17.016,17.016,0,0,0-12.9-2.775c-4.515.9-12.046,2.5-15.027-.966-3.134-3.641-3.559-37.935-1.765-40.175C164.147,171.656,213.249,173.1,220.505,173.109Z" fill="#feb740"/>
        <g id="Group_1804" data-name="Group 1804">
          <path id="Path_2403" data-name="Path 2403" d="M220.505,174.319c2.6,0,5.288-.133,7.725.946,2.217.982,2.271,3.75,2.423,5.691.271,3.447.263,6.923.271,10.379.017,6.669.066,13.454-.579,20.1-.439,4.531-10.077,3.466-13.059,3.354-4.334-.163-8.58-.27-12.4,2.029-4.446,2.674-6.355,10.866-8,15.445l2.212-.289c-2.055-4.317-4.2-9.722-7.833-12.96-6.872-6.129-15.9-1.71-23.754-2.017-7-.274-6.03-11.247-6.321-16.147a167.327,167.327,0,0,1-.1-19.766c.062-1.031-.119-3.648.646-4.446.959-1,3.609-1.093,4.866-1.29,6.338-.992,12.882-1.031,19.282-1.167,11.546-.245,23.081.1,34.625.138a1.211,1.211,0,0,0,0-2.42c-12.626-.04-25.239-.4-37.867-.06a114.94,114.94,0,0,0-18.569,1.5c-3.4.655-4.717,1.7-5.169,5.106-.838,6.3-.524,12.883-.289,19.216.213,5.749.156,12.387,2.184,17.862,2.3,6.2,12.371,3.663,17.031,2.736,6.794-1.353,11.923,1.748,15.2,7.32,1.451,2.463,2.746,5.034,3.975,7.615.49,1.029,1.891.6,2.211-.289a104.088,104.088,0,0,1,4.219-10.2c3.143-6.491,9.9-5.638,16.087-5.418,6.795.242,13-.841,13.424-8.375.478-8.489.58-17.059.261-25.554-.11-2.931-.159-5.853-1.729-8.412-2.1-3.424-7.6-3.047-10.971-3.05A1.211,1.211,0,0,0,220.505,174.319Z" fill="#fff"/>
        </g>
      </g>
    </g>
    <g id="Group_1807" data-name="Group 1807">
      <path id="Path_2404" data-name="Path 2404" d="M491.338,19.208c3.615,0,7.337-.32,8.606,3.913.674,2.248.5,5.069.594,7.4.239,5.953.136,11.924.047,17.879-.069,4.6,0,9.131.168,13.724.11,2.946.094,6.061-1.235,8.759-1.659,3.365-6.761,3.858-9.983,4.171-3.408.33-6.935.328-9.657,2.657-2.636,2.253-3.627,7.65-4.926,10.69-1.21,2.83-.752,2.084-1.928-.368-1.36-2.838-2.318-5.889-3.5-8.8-1.233-3.034-4.428-3.569-7.355-3.76-2.852-.186-10.691,1.514-12.482-1.4-1.128-1.836-1.029-5.105-1.234-7.154-.826-8.254-.981-16.6-1.057-24.886-.059-6.482-.387-13.3.6-19.734.544-3.548,14.6-3.162,17.925-3.263,8.479-.258,16.945.138,25.422.18,2.342.012,2.341-3.618,0-3.629-7.353-.038-14.7-.332-22.053-.249-6.8.077-15.591-.473-21.928,2.528-3.853,1.825-3.266,6.571-3.423,10.228-.351,8.167-.217,16.37.045,24.538.22,6.858.376,13.914,1.715,20.666,1.343,6.771,8.976,5.881,14.39,5.783,2.476-.045,5.344-.337,6.447,2.373.97,2.386,1.8,4.831,2.826,7.194.777,1.782,2.871,7.262,5.9,5.553,2.388-1.349,3.271-4.941,4.213-7.313a59.587,59.587,0,0,1,2.556-5.96c1.224-2.314,5.314-2.051,7.513-2.24,6.054-.521,11.978-2.167,14.143-8.432,1.149-3.323.762-7.3.593-10.734-.183-3.714-.116-7.4-.056-11.118a216.133,216.133,0,0,0-.407-23.578c-.714-7.647-5.54-9.235-12.47-9.239A1.816,1.816,0,0,0,491.338,19.208Z" fill="#feb740"/>
    </g>
    <g id="Group_1808" data-name="Group 1808">
      <path id="Path_2405" data-name="Path 2405" d="M467.127,62.775a5.249,5.249,0,0,1,.34-2.009,3.392,3.392,0,0,1,.948-1.328,3.783,3.783,0,0,1,1.416-.732,6.4,6.4,0,0,1,1.744-.228,6.071,6.071,0,0,1,1.68.228,3.788,3.788,0,0,1,1.4.732,3.5,3.5,0,0,1,.961,1.328,5.071,5.071,0,0,1,.353,2.009,4.836,4.836,0,0,1-.353,1.946,3.673,3.673,0,0,1-2.364,2.111,5.822,5.822,0,0,1-1.68.24,6.137,6.137,0,0,1-1.744-.24,3.745,3.745,0,0,1-1.416-.771,3.63,3.63,0,0,1-.948-1.34A5,5,0,0,1,467.127,62.775Zm7.557-8.644h-6.167l-1.289-24.694h8.744Z" fill="#feb740"/>
    </g>
    <g id="Group_1809" data-name="Group 1809">
      <path id="Path_2406" data-name="Path 2406" d="M129.941,296.4q-5.974,4.965-11.947,9.935l-2.551,2.122c-1.213,1.009-.072.121.267.244L110,306.627q-8.73-3.164-17.458-6.326c-3.338-1.209-3.756-.476-6.538,1.709q-7.551,5.926-15.1,11.856l-5.2,4.084c-1.367,1.072.13.048-.758-.567q-4.305-2.994-8.608-5.988c-2.335-1.625-5.047-2.639-7.227-4.5-1.388-1.184-2.528-2.541-4.017-3.617-3.4-2.461-8.541,2.974-10.886,4.717-9.354,6.951-17.767,15.128-26.414,22.916-1.162,1.046.554,2.752,1.71,1.71,8.506-7.658,16.8-15.609,25.925-22.537,2.453-1.861,6.751-6.425,10.134-3.318a33.022,33.022,0,0,0,4.14,3.549c5.144,3.4,10.376,6.621,15.456,10.152a1.232,1.232,0,0,0,1.467-.189q8.655-6.795,17.31-13.59l6.658-5.227c-1.1.868-1,.338.767.977l5.609,2.033q6.581,2.382,13.159,4.768c1.194.431,4.705,2.515,6.046,1.73,5.563-3.26,10.517-8.734,15.483-12.863,1.2-1-.521-2.7-1.711-1.711Z" fill="#1a1a1a"/>
    </g>
    <path id="Path_2407" data-name="Path 2407" d="M142.324,79.252c2.841,0,5.616-.111,6.341,3.212.054.252.086.508.118.763.579,4.546.313,14.513.246,19.083-.042,2.827.9,8.4-1.1,10.77-3.229,3.819-9.758,1.7-11.838,3.89-1.316,1.386-3.182,8.761-4.373,8.347s-2.591-4.949-3.828-7.907c-1.32-3.155-9.9.133-11.961-2.772-1.816-2.556-2.063-31.821-1.024-33.393C116.9,78.231,138.118,79.248,142.324,79.252Z" fill="#1a1a1a"/>
    <g id="Group_1816" data-name="Group 1816">
      <g id="Group_1811" data-name="Group 1811">
        <path id="Path_2408" data-name="Path 2408" d="M479.407,513.248c-5.631-14.642-35.982,4.458-25.025,12.481S485.039,526.762,479.407,513.248Z" fill="#fff"/>
        <g id="Group_1810" data-name="Group 1810">
          <path id="Path_2409" data-name="Path 2409" d="M480.452,512.637c-5.565-12.83-29.184-2.74-29.644,8.942-.3,7.539,12.368,9.373,17.582,8.535,8.746-1.405,15.58-8.016,12.184-17.188-.537-1.449-2.877-.822-2.334.643,6.969,18.818-27.211,16.4-24.8,6.578,2.093-8.533,20.552-16.373,24.925-6.289C478.981,515.288,481.066,514.053,480.452,512.637Z" fill="#feb740"/>
        </g>
      </g>
      <g id="Group_1813" data-name="Group 1813">
        <path id="Path_2410" data-name="Path 2410" d="M457.386,521.959a10.68,10.68,0,0,0,4.505,1.5" fill="#fff"/>
        <g id="Group_1812" data-name="Group 1812">
          <path id="Path_2411" data-name="Path 2411" d="M456.775,523a12.5,12.5,0,0,0,5.116,1.666c1.562.055,1.556-2.365,0-2.42A9.679,9.679,0,0,1,458,520.915c-1.392-.694-2.618,1.392-1.222,2.089Z" fill="#feb740"/>
        </g>
      </g>
      <g id="Group_1815" data-name="Group 1815">
        <path id="Path_2412" data-name="Path 2412" d="M470.9,521.207" fill="#fff"/>
        <g id="Group_1814" data-name="Group 1814">
          <path id="Path_2413" data-name="Path 2413" d="M470.9,522.418a1.211,1.211,0,0,0,0-2.42,1.211,1.211,0,0,0,0,2.42Z" fill="#feb740"/>
        </g>
      </g>
    </g>
    <g id="Group_1823" data-name="Group 1823">
      <g id="Group_1818" data-name="Group 1818">
        <path id="Path_2414" data-name="Path 2414" d="M349.149,523.235c-8.584,18.308-45.859-9.029-31.035-18.344S357.629,506.372,349.149,523.235Z" fill="#fff"/>
        <g id="Group_1817" data-name="Group 1817">
          <path id="Path_2415" data-name="Path 2415" d="M348.1,522.623c-6.815,13.393-28.114.391-31.788-9.6-3.3-8.973,11.552-10.695,17.2-10.195,10.215.9,19.487,9.218,14.585,19.8-.651,1.407,1.434,2.637,2.09,1.221,4.907-10.588-1.644-19.342-11.988-22.541-6.8-2.105-23.938-1.508-24.7,8.5-.637,8.35,8.784,15.108,15.336,18.258,7.407,3.561,17.12,4.1,21.353-4.215C350.9,522.457,348.812,521.233,348.1,522.623Z" fill="#feb740"/>
        </g>
      </g>
      <g id="Group_1820" data-name="Group 1820">
        <path id="Path_2416" data-name="Path 2416" d="M321.631,510.012c2-.826,4-1.654,5.931-1.515" fill="#fff"/>
        <g id="Group_1819" data-name="Group 1819">
          <path id="Path_2417" data-name="Path 2417" d="M321.953,511.18a13.587,13.587,0,0,1,5.609-1.474c1.561.056,1.556-2.364,0-2.42a15.054,15.054,0,0,0-6.252,1.56c-1.422.586-.8,2.928.643,2.334Z" fill="#feb740"/>
        </g>
      </g>
      <g id="Group_1822" data-name="Group 1822">
        <path id="Path_2418" data-name="Path 2418" d="M338.942,512.217" fill="#fff"/>
        <g id="Group_1821" data-name="Group 1821">
          <path id="Path_2419" data-name="Path 2419" d="M338.942,513.428a1.211,1.211,0,0,0,0-2.42,1.211,1.211,0,0,0,0,2.42Z" fill="#feb740"/>
        </g>
      </g>
    </g>
    <g id="Group_1825" data-name="Group 1825">
      <path id="Path_2420" data-name="Path 2420" d="M329.144,350.678c-8.119,1.035-8.629.356-15.45.356H151.208c-11.438,0-20.719-1.879-20.719-13.317l.009-104.741c0-8.054-.572-17,7.517-19.138,14.2-3.762,23.206-1.574,37.893-1.574H329.189c8.513,0,13.123-1.981,17.02,5.24,5.143,9.529,3.985,29.2,3.69,39.473-.307,10.748,0,21.553,0,32.307,0,13.677-1.069,34.74-1.069,48.418C348.831,351.94,340.34,349.25,329.144,350.678Z" fill="#fff"/>
      <g id="Group_1824" data-name="Group 1824">
        <path id="Path_2421" data-name="Path 2421" d="M329.144,349.469c-12.81,1.537-26.205.356-39.088.356h-136.9c-9.251,0-21.453-.287-21.452-12.416q0-4.794,0-9.586,0-21.736,0-43.471,0-21.337,0-42.673,0-4.3,0-8.592c0-4.069-.159-8.141.828-12.123,1.959-7.908,13.94-7.826,20.415-8.087,6.406-.258,12.845.374,19.247.552,8.428.235,16.884.045,25.314.045H294.1c13.472,0,27.04.463,40.5-.184,7.267-.349,10.507,2.994,12.478,9.856,1.862,6.48,1.916,13.525,1.94,20.217.052,14.671-.386,29.343-.322,44.022.061,13.985-.667,27.963-.968,41.942-.116,5.4,1.568,14.539-3.722,17.964-3.9,2.528-10.412,1.661-14.853,2.178-1.531.178-1.548,2.6,0,2.42,6.365-.74,15.325.57,19.23-5.742,2.2-3.555,1.652-8.524,1.693-12.475.07-6.728.3-13.455.508-20.179.424-13.784.511-27.526.413-41.317-.089-12.441.892-24.926.2-37.357-.384-6.949-1.237-20.227-9.193-23.18-4.047-1.5-8.6-.638-12.809-.585-7.478.093-14.964,0-22.443,0H213.224c-15.93,0-31.928.43-47.843-.3a118.405,118.405,0,0,0-18.729.184c-4.914.55-10.736,1.17-14.247,5.011-4.069,4.451-3.117,12.321-3.117,17.808q0,5.511,0,11.021,0,42.954-.008,85.9c0,6.037-.945,13.672,4.6,17.711,5.981,4.357,14.149,3.854,21.165,3.854H299.9c9.681,0,19.609.8,29.239-.356C330.673,351.706,330.691,349.284,329.144,349.469Z" fill="#1a1a1a"/>
      </g>
    </g>
    <g id="Group_1826" data-name="Group 1826">
      <path id="Path_2422" data-name="Path 2422" d="M332.312,339.485c-14.023,1.617-28.007,1.564-42.1,1.564H240.646c-16.215,0-32.435.133-48.647-.2-7.218-.146-14.434-.367-21.651-.543-7.824-.189-16.423.773-24.118-.625-10.056-1.83-7.07-24.023-7.07-31.947V260.721c0-10.092-.491-20.366.051-30.448.267-4.971,2.369-8.667,7.479-9.466a75.963,75.963,0,0,1,7.99-.65c7.848-.385,15.721-.367,23.576-.341,40.559.139,81.084,1.69,121.647,1.69,8.7,0,17.463.322,26.147-.145,3.618-.194,7.114-.635,9.9,2.137,1.55,1.539,2.093,3.765,2.55,5.811,2.543,11.384,1.943,23.838,1.916,35.426-.025,10.906-.295,21.806-.295,32.713,0,9.781-.092,19.564.022,29.343a43.032,43.032,0,0,1-.246,8.471c-.652,3.455-4.75,3.846-7.59,4.223-1.378.183-1.4,2.373,0,2.187,6.946-.92,9.972-3.084,10.08-10.257.216-14.467-.077-28.969-.077-43.442,0-16.484.814-32.963-.428-49.428-.446-5.922-.674-12.909-5.136-17.341-2.45-2.433-6.306-2.26-9.461-2.1-7.049.35-14.112.216-21.168.216-20.579,0-41.138-.019-61.711-.479-20.541-.459-41.082-1.016-61.628-1.184-8.333-.069-16.671-.076-25,.191-4.805.153-10.025.081-14.652,1.564-7.474,2.4-6.159,13.317-6.159,19.231v84.391c0,4.939-.107,10.242,2.481,14.629,1.56,2.644,4.5,3.824,7.366,4.345,6.313,1.149,13.475.28,19.892.409q41.94.852,83.848.822c27.132,0,54.75,1.551,81.753-1.565C333.7,341.514,333.712,339.323,332.312,339.485Z" fill="#1a1a1a"/>
    </g>
    <g id="Group_1828" data-name="Group 1828">
      <rect id="Rectangle_495" data-name="Rectangle 495" width="21.175" height="49.227" transform="translate(164.507 278.754)" fill="#feb740"/>
      <g id="Group_1827" data-name="Group 1827">
        <path id="Path_2423" data-name="Path 2423" d="M185.682,326.772H164.507c.4.4.807.807,1.21,1.209V278.754q-.6.6-1.21,1.209h21.175l-1.21-1.209v49.227a1.211,1.211,0,0,0,2.42,0V278.754a1.222,1.222,0,0,0-1.21-1.211H164.507a1.222,1.222,0,0,0-1.21,1.211v49.227a1.222,1.222,0,0,0,1.21,1.211h21.175A1.211,1.211,0,0,0,185.682,326.772Z" fill="#1a1a1a"/>
      </g>
    </g>
    <g id="Group_1830" data-name="Group 1830">
      <rect id="Rectangle_496" data-name="Rectangle 496" width="21.175" height="33.158" transform="translate(207.574 294.823)" fill="#feb740"/>
      <g id="Group_1829" data-name="Group 1829">
        <path id="Path_2424" data-name="Path 2424" d="M228.748,326.772H207.574c.4.4.806.807,1.21,1.209V294.823c-.4.4-.807.806-1.21,1.211h21.174c-.4-.4-.806-.807-1.209-1.211v33.158a1.21,1.21,0,0,0,2.419,0V294.823a1.221,1.221,0,0,0-1.21-1.209H207.574a1.221,1.221,0,0,0-1.21,1.209v33.158a1.222,1.222,0,0,0,1.21,1.211h21.174A1.211,1.211,0,0,0,228.748,326.772Z" fill="#1a1a1a"/>
      </g>
    </g>
    <g id="Group_1832" data-name="Group 1832">
      <rect id="Rectangle_497" data-name="Rectangle 497" width="21.175" height="50.721" transform="translate(249.51 277.26)" fill="#feb740"/>
      <g id="Group_1831" data-name="Group 1831">
        <path id="Path_2425" data-name="Path 2425" d="M270.685,326.772H249.51c.4.4.807.807,1.21,1.209V277.26c-.4.4-.806.807-1.21,1.211h21.175c-.4-.4-.807-.806-1.21-1.211v50.721a1.211,1.211,0,0,0,2.42,0V277.26a1.221,1.221,0,0,0-1.21-1.209H249.51a1.222,1.222,0,0,0-1.21,1.209v50.721a1.222,1.222,0,0,0,1.21,1.211h21.175A1.211,1.211,0,0,0,270.685,326.772Z" fill="#1a1a1a"/>
      </g>
    </g>
    <g id="Group_1834" data-name="Group 1834">
      <rect id="Rectangle_498" data-name="Rectangle 498" width="21.175" height="40.775" transform="translate(292.182 287.206)" fill="#feb740"/>
      <g id="Group_1833" data-name="Group 1833">
        <path id="Path_2426" data-name="Path 2426" d="M313.357,326.772H292.182c.4.4.807.807,1.21,1.209V287.206q-.6.606-1.21,1.21h21.175q-.6-.606-1.21-1.21v40.775a1.211,1.211,0,0,0,2.42,0V287.206a1.221,1.221,0,0,0-1.21-1.209H292.182a1.221,1.221,0,0,0-1.21,1.209v40.775a1.222,1.222,0,0,0,1.21,1.211h21.175A1.211,1.211,0,0,0,313.357,326.772Z" fill="#1a1a1a"/>
      </g>
    </g>
    <g id="Group_1835" data-name="Group 1835">
      <path id="Path_2427" data-name="Path 2427" d="M150.531,279.8q8.64-6.621,17.278-13.244l9-6.9c1.579-1.211,1.08-.4.188-.953l2.052,1.261,38.692,23.789a1.2,1.2,0,0,0,1.222,0q14.278-9.911,28.558-19.82,5.9-4.089,11.789-8.182c.477-.33-1.3-.187-.321.127l2.057.659,8.814,2.822,21.805,6.984q3.991,1.278,7.981,2.557c.808.258,2.224,1.041,3.124.793,1.29-.356,2.679-1.879,3.723-2.647l8.628-6.345q6.836-5.025,13.67-10.051c1.243-.914.038-3.016-1.222-2.09L313.9,258.61l-8.627,6.346-2.655,1.951c-1.174.863-.094.373-.087.375l-37.38-11.971c-2.2-.705-5.485-2.744-7.609-1.27q-7.158,4.97-14.314,9.934-9.5,6.6-19,13.186l-5.493,3.812c-1.638,1.137.92,1.115-.855.024Q198,268.777,178.126,256.555a1.184,1.184,0,0,0-1.222,0q-13.8,10.58-27.594,21.154c-1.221.936-.017,3.039,1.221,2.09Z" fill="#1a1a1a"/>
    </g>
    <g id="Group_1836" data-name="Group 1836">
      <path id="Path_2428" data-name="Path 2428" d="M514.194,170.769l-28.068,23.266-11.521,9.55c-.29.241,1.669.042.4-.36l-2.83-.9-10.828-3.434-10.42-3.305c-1.5-.475-3.5-1.56-5.1-1.56-1.133,0-2.619,1.546-3.462,2.125l-9.216,6.335L417.925,212.95c.025-.017-13.594-8.591-15.551-9.546-4.077-1.988-7.052-7.279-12.061-5.551-3.082,1.063-6.094,3.632-8.8,5.416-3.491,2.3-6.972,4.707-10.247,7.31-7.221,5.739-14.682,11.168-21.9,16.906-1.222.971.5,2.671,1.711,1.711,10.755-8.545,21.651-17.237,33.122-24.8,2.981-1.965,7.41-6.057,11.251-2.969a33.35,33.35,0,0,0,5.705,4.068c5.709,2.963,11.148,6.287,16.645,9.634a1.2,1.2,0,0,0,1.222,0l26.327-18.1c1.646-1.131-.494-.833,1.475-.209l7.458,2.365,18.922,6c2.572.816,3.073.142,5.092-1.532l13.18-10.925,24.432-20.252c1.2-1-.519-2.7-1.711-1.711Z" fill="#1a1a1a"/>
    </g>
    <g id="Group_1837" data-name="Group 1837">
      <path id="Path_2429" data-name="Path 2429" d="M148.587,329.069q48.624-.033,97.248.051c11.461.033,22.938-.014,34.394.367,14.6.484,29.2-.328,43.794.185,1.412.051,1.407-2.138,0-2.187-14.407-.508-28.813.428-43.225-.166-11.281-.463-22.6-.348-33.891-.383q-49.159-.158-98.32-.055a1.1,1.1,0,0,0,0,2.188Z"/>
    </g>
    <path id="Path_2430" data-name="Path 2430" d="M223.6,282.7a5.439,5.439,0,1,1-5.438-5.44A5.439,5.439,0,0,1,223.6,282.7Z" fill="#1a1a1a"/>
    <path id="Path_2431" data-name="Path 2431" d="M182.954,257.991a5.439,5.439,0,1,1-5.439-5.44A5.438,5.438,0,0,1,182.954,257.991Z" fill="#1a1a1a"/>
    <path id="Path_2432" data-name="Path 2432" d="M264.327,255.043a5.439,5.439,0,1,1-5.439-5.439A5.44,5.44,0,0,1,264.327,255.043Z" fill="#1a1a1a"/>
    <path id="Path_2433" data-name="Path 2433" d="M308.5,267.315a5.439,5.439,0,1,1-5.439-5.44A5.439,5.439,0,0,1,308.5,267.315Z" fill="#1a1a1a"/>
    <g id="Group_1838" data-name="Group 1838">
      <path id="Path_2434" data-name="Path 2434" d="M128.966,101.749V100.6a5.864,5.864,0,0,1,.162-1.431,4.89,4.89,0,0,1,.495-1.223,5.906,5.906,0,0,1,.859-1.13,12.619,12.619,0,0,1,1.27-1.137q.649-.511,1.1-.913a4.883,4.883,0,0,0,.727-.8,2.722,2.722,0,0,0,.4-.828,3.662,3.662,0,0,0,.124-1.006,1.933,1.933,0,0,0-.6-1.455,2.535,2.535,0,0,0-1.818-.573,6.734,6.734,0,0,0-2.3.449,25.322,25.322,0,0,0-2.546,1.1l-1.579-3.42a15.127,15.127,0,0,1,1.447-.736,16.108,16.108,0,0,1,1.625-.619,13.351,13.351,0,0,1,1.71-.426,9.688,9.688,0,0,1,1.7-.154,9.937,9.937,0,0,1,2.848.379,6.075,6.075,0,0,1,2.151,1.107,4.884,4.884,0,0,1,1.354,1.764,5.672,5.672,0,0,1,.472,2.368,6.383,6.383,0,0,1-.217,1.741,5.189,5.189,0,0,1-.642,1.424,7.029,7.029,0,0,1-1.068,1.269q-.642.612-1.493,1.292-.651.511-1.06.891a4.294,4.294,0,0,0-.643.719,2.077,2.077,0,0,0-.317.7,3.8,3.8,0,0,0-.085.859v.929Zm-.511,5.293a3.221,3.221,0,0,1,.209-1.231,2.073,2.073,0,0,1,.581-.812,2.312,2.312,0,0,1,.874-.449,4.007,4.007,0,0,1,1.075-.139,3.725,3.725,0,0,1,1.03.139,2.331,2.331,0,0,1,.859.449,2.149,2.149,0,0,1,.588.812,3.121,3.121,0,0,1,.217,1.231,2.972,2.972,0,0,1-.217,1.192,2.247,2.247,0,0,1-1.447,1.292,3.547,3.547,0,0,1-1.03.147,3.815,3.815,0,0,1-1.075-.147,2.272,2.272,0,0,1-.874-.472,2.21,2.21,0,0,1-.581-.82A3.067,3.067,0,0,1,128.455,107.042Z" fill="#fff"/>
    </g>
    <g id="Group_1841" data-name="Group 1841">
      <g id="Group_1840" data-name="Group 1840">
        <path id="Path_2435" data-name="Path 2435" d="M482.822,176.268c4.9,0,9.688-.162,10.936,4.579,1.281,4.854.483,33.216.011,34.367-1.92,4.686-9.243,4.115-14.167,3.943-4.512-.158-9.648-.455-12.795,2.715-2.33,2.351-6.443,13.871-6.443,13.871s-5.119-10.818-7.644-12.716a17.015,17.015,0,0,0-12.9-2.775c-4.516.9-12.045,2.5-15.028-.966-3.133-3.641-3.558-37.934-1.765-40.175C426.464,174.813,475.567,176.262,482.822,176.268Z" fill="#feb740"/>
        <g id="Group_1839" data-name="Group 1839">
          <path id="Path_2436" data-name="Path 2436" d="M482.822,177.478c2.6,0,5.287-.134,7.724.944,2.217.981,2.271,3.751,2.423,5.692.271,3.447.263,6.924.272,10.379.017,6.669.066,13.454-.579,20.1-.44,4.531-10.078,3.466-13.06,3.354-4.333-.162-8.579-.27-12.4,2.03-4.446,2.673-6.354,10.865-8,15.444l2.212-.289c-2.056-4.317-4.2-9.722-7.833-12.96-6.872-6.129-15.9-1.71-23.754-2.018-7.005-.274-6.03-11.245-6.322-16.146a167.53,167.53,0,0,1-.1-19.765c.061-1.031-.119-3.65.645-4.447.96-1,3.61-1.093,4.867-1.29,6.339-.992,12.883-1.031,19.283-1.167,11.546-.244,23.081.1,34.625.139a1.211,1.211,0,0,0,0-2.42c-12.627-.04-25.239-.4-37.867-.061a114.965,114.965,0,0,0-18.57,1.5c-3.4.655-4.717,1.7-5.17,5.106-.837,6.306-.523,12.883-.288,19.216.214,5.749.156,12.387,2.184,17.863,2.3,6.2,12.371,3.662,17.032,2.735,6.793-1.353,11.922,1.748,15.2,7.319,1.45,2.465,2.746,5.034,3.975,7.616.49,1.029,1.892.6,2.212-.289a104.412,104.412,0,0,1,4.218-10.2c3.144-6.492,9.9-5.639,16.087-5.418,6.8.241,13-.842,13.425-8.376.478-8.489.579-17.058.26-25.554-.11-2.932-.159-5.854-1.729-8.413-2.1-3.423-7.6-3.046-10.97-3.048A1.211,1.211,0,0,0,482.822,177.478Z" fill="#fff"/>
        </g>
      </g>
    </g>
    <g id="Group_1844" data-name="Group 1844">
      <g id="Group_1843" data-name="Group 1843">
        <path id="Path_2437" data-name="Path 2437" d="M175.211,326.022c7.623.008,15.075-.268,17.017,7.607,1.992,8.063.751,55.176.018,57.088-2.99,7.787-14.386,6.838-22.046,6.551-7.022-.262-15.016-.758-19.911,4.51-3.627,3.9-10.026,23.043-10.026,23.043s-7.968-17.971-11.894-21.123a25.171,25.171,0,0,0-20.075-4.612c-7.025,1.495-18.744,4.153-23.383-1.6-4.876-6.049-5.538-63.016-2.749-66.738C87.51,323.608,163.918,326.012,175.211,326.022Z" fill="#feb740"/>
        <g id="Group_1842" data-name="Group 1842">
          <path id="Path_2438" data-name="Path 2438" d="M175.211,327.233c4.212,0,8.7-.27,12.526,1.777,2.917,1.563,3.488,5.1,3.78,8.061.555,5.631.539,11.338.572,16.988.07,11.451,0,22.982-.792,34.412-.5,7.27-9.5,7.77-15.154,7.777-7.806.012-15.873-1.507-23.188,1.967-4.822,2.291-6.872,8.053-8.759,12.629q-2.778,6.738-5.1,13.656l2.212-.289a122.762,122.762,0,0,0-9.65-18.464c-5.185-7.752-16.285-9.4-24.773-7.6-5.551,1.181-11.4,2.42-17.03,1.055-4-.973-4.846-3.819-5.575-7.268-1.606-7.6-1.881-15.572-2.22-23.311-.372-8.478-.457-16.982-.17-25.462.1-2.86-.779-10.792,2.264-12.407,4.734-2.515,11.5-2.441,16.69-2.851,8.516-.674,17.074-.869,25.613-.994,16.257-.235,32.5.277,48.754.32a1.211,1.211,0,0,0,0-2.42c-13.332-.035-26.658-.43-39.991-.393-15.482.045-31.606-.324-46.879,2.6-2.736.523-6.742,1.207-7.713,4.26-1.6,5.051-1.179,11.224-1.276,16.439-.283,15.2-.667,31.776,3,46.635,3.266,13.238,21.4,5.873,30.342,5.461a22.363,22.363,0,0,1,15.226,5.1c2.067,1.854,3.436,4.834,4.762,7.221,2.4,4.311,4.532,8.789,6.537,13.3.461,1.035,1.913.6,2.212-.289,1.743-5.2,3.658-10.346,5.836-15.375,1.421-3.281,2.837-6.539,5.747-8.76,4.278-3.263,10.717-2.758,15.771-2.584,7.055.244,15.486,1.389,21.533-3.1,3.387-2.514,3.373-5.928,3.57-9.688.691-13.209.831-26.5.5-39.721-.114-4.6-.04-9.48-1.4-13.918-2.286-7.488-11.546-7.187-17.785-7.187A1.211,1.211,0,0,0,175.211,327.233Z" fill="#fff"/>
        </g>
      </g>
    </g>
    <g id="Group_1845" data-name="Group 1845">
      <path id="Path_2439" data-name="Path 2439" d="M183.488,190.145v5.21a6.248,6.248,0,0,0,.14,1.473,1.457,1.457,0,0,0,.558.857,1.868,1.868,0,0,0,1.124.3,1.782,1.782,0,0,0,.988-.263,1.619,1.619,0,0,0,.616-.775,5.18,5.18,0,0,0,.209-1.76v-5.046H189.6v5.407a5.553,5.553,0,0,0,.135,1.4,1.4,1.4,0,0,0,.5.763,1.639,1.639,0,0,0,1.01.275,2.018,2.018,0,0,0,1.616-.78,3.274,3.274,0,0,0,.648-2.157,5.085,5.085,0,0,0-.394-2.019,6.65,6.65,0,0,0-1.231-1.838l1.748-1.28a7.961,7.961,0,0,1,1.817,2.445,6.511,6.511,0,0,1,.562,2.708,5.178,5.178,0,0,1-.57,2.457,4.009,4.009,0,0,1-1.62,1.666,4.931,4.931,0,0,1-2.445.586,4.706,4.706,0,0,1-1.625-.246,4.313,4.313,0,0,1-1.419-.968,4.179,4.179,0,0,1-1.354.919,4.367,4.367,0,0,1-1.665.295,4.2,4.2,0,0,1-2.019-.451,4.191,4.191,0,0,1-1.505,2.724,5.192,5.192,0,0,1-3.237.911,7.07,7.07,0,0,1-1.7-.181l.205-1.78a3.411,3.411,0,0,0,1.124.147,4.232,4.232,0,0,0,1.259-.168,2.192,2.192,0,0,0,.9-.529,2,2,0,0,0,.516-.907,6.2,6.2,0,0,0,.152-1.57v-7.828Z" fill="#fff"/>
      <path id="Path_2440" data-name="Path 2440" d="M208.676,192.221a5.411,5.411,0,0,1,.911,1.637,5.532,5.532,0,0,1,.3,1.809,4.123,4.123,0,0,1-1.063,3.052,4.915,4.915,0,0,1-5.965.1,3.134,3.134,0,0,1-1.07-2.444,3.7,3.7,0,0,1,.717-2.265,8.865,8.865,0,0,1,2.679-2.092,4.1,4.1,0,0,0-1.846-.37,3.781,3.781,0,0,0-2.637.854,3.028,3.028,0,0,0-.94,2.363,4.422,4.422,0,0,0,.4,1.932,6,6,0,0,0,1.309,1.7l-1.641,1.279a7.182,7.182,0,0,1-1.99-2.272,5.715,5.715,0,0,1-.6-2.651,4.783,4.783,0,0,1,.714-2.592,4.534,4.534,0,0,1,2.075-1.743,8.009,8.009,0,0,1,3.258-.6,8.669,8.669,0,0,1,2.129.247,6.284,6.284,0,0,1,1.76.73,4.7,4.7,0,0,0,1.132-.841,1.442,1.442,0,0,0,.328-.989,1.671,1.671,0,0,0-.078-.48,1.567,1.567,0,0,0-.234-.472l2.207-1.025a3.633,3.633,0,0,1,.583,1.953,2.721,2.721,0,0,1-.521,1.686A6.455,6.455,0,0,1,208.676,192.221Zm-2.018,1.116a6.252,6.252,0,0,0-1.846,1.46,2.556,2.556,0,0,0-.55,1.6,1.7,1.7,0,0,0,.39,1.185,1.349,1.349,0,0,0,1.054.432,1.475,1.475,0,0,0,1.268-.538,2.819,2.819,0,0,0,.4-1.669,4.747,4.747,0,0,0-.177-1.272A4.29,4.29,0,0,0,206.658,193.337Z" fill="#fff"/>
      <path id="Path_2441" data-name="Path 2441" d="M213.6,197.013a1.462,1.462,0,0,1,1.05.357,1.359,1.359,0,0,1,.377,1.037,1.341,1.341,0,0,1-.389,1.034,1.466,1.466,0,0,1-1.038.361,1.482,1.482,0,0,1-1.058-.361,1.343,1.343,0,0,1-.386-1.034,1.365,1.365,0,0,1,.373-1.037A1.485,1.485,0,0,1,213.6,197.013Z" fill="#fff"/>
      <path id="Path_2442" data-name="Path 2442" d="M218.39,197.013a1.461,1.461,0,0,1,1.05.357,1.356,1.356,0,0,1,.378,1.037,1.338,1.338,0,0,1-.39,1.034,1.466,1.466,0,0,1-1.038.361,1.486,1.486,0,0,1-1.058-.361,1.346,1.346,0,0,1-.386-1.034,1.366,1.366,0,0,1,.374-1.037A1.481,1.481,0,0,1,218.39,197.013Z" fill="#fff"/>
      <path id="Path_2443" data-name="Path 2443" d="M223.182,197.013a1.464,1.464,0,0,1,1.05.357,1.359,1.359,0,0,1,.377,1.037,1.337,1.337,0,0,1-.389,1.034,1.466,1.466,0,0,1-1.038.361,1.486,1.486,0,0,1-1.059-.361,1.346,1.346,0,0,1-.385-1.034,1.365,1.365,0,0,1,.373-1.037A1.485,1.485,0,0,1,223.182,197.013Z" fill="#fff"/>
    </g>
    <g id="Group_1852" data-name="Group 1852">
      <path id="Path_2444" data-name="Path 2444" d="M364.7,470.385c-3.95,0-37.112,2.633-27.636,10,4.737,3.949,15.266,4.475,21.056,5.528,8.423,1.316,16.843,3.158,25.265,3.685,10,.525,21.847,1.842,31.586-2.105" fill="#231f20"/>
      <g id="Group_1847" data-name="Group 1847">
        <path id="Path_2445" data-name="Path 2445" d="M384.543,371.819c-11.11,26.262-35.355,40.406-32.326,71.726,4.041,50.512,98.209,64.809,115.748,5.026,10.686-36.424-17.349-41.291-39.412-76.608" fill="#feb740"/>
        <g id="Group_1846" data-name="Group 1846">
          <path id="Path_2446" data-name="Path 2446" d="M383.5,371.209c-8.628,19.854-26.66,34.819-31.612,56.34a46.206,46.206,0,0,0,12.229,43.364c20.792,20.8,58.2,23.877,82.728,8.337,16.025-10.154,26.4-30.482,24.428-49.47-1.019-9.789-6.968-17.721-13.371-24.78-9.944-10.96-20.307-21.054-28.3-33.646-.834-1.314-2.929-.1-2.09,1.221,6.687,10.531,14.875,19.691,23.5,28.654,6.945,7.217,14.214,14.621,17.043,24.5,5.326,18.59-6.48,40.545-21.652,50.92-25.435,17.394-67.674,11.853-85.893-13.695-9.151-12.834-9.186-30.161-3.2-44.315,7.078-16.73,21.015-29.486,28.282-46.209.616-1.416-1.469-2.65-2.09-1.221Z" fill="#1a1a1a"/>
        </g>
      </g>
      <g id="Group_1849" data-name="Group 1849">
        <path id="Path_2447" data-name="Path 2447" d="M425.332,363.8c-15.007-1.115-50.026-3.894-52.249,8.334-1.668,7.227,17.788,7.784,22.79,7.784,9.45,0,22.746-.467,32.456-2.95C437.592,374.6,440.34,364.907,425.332,363.8Z" fill="#feb740"/>
        <g id="Group_1848" data-name="Group 1848">
          <path id="Path_2448" data-name="Path 2448" d="M425.332,362.586c-14.075-1.046-29.114-2.605-42.956.924-4.283,1.092-8.782,3.225-10.31,7.658-1.576,4.575,3.171,6.928,6.736,8.045,5.4,1.694,11.453,1.891,17.071,1.912a154.478,154.478,0,0,0,29.912-2.337c4.134-.8,11.409-3.09,11.348-8.559-.066-5.924-7.2-7.188-11.8-7.643-1.553-.152-1.539,2.268,0,2.42,3.074.3,8.1.8,9.309,4.282.871,2.507-2.337,4.646-4.092,5.6-6.3,3.408-15.651,3.145-22.613,3.533-9.7.541-20.9,1.249-30.209-2.115-6.018-2.176-2.645-7.053,1.394-9.082,4.586-2.306,10.274-2.7,15.293-3.049,10.286-.716,20.656.073,30.918.836C426.889,365.123,426.878,362.7,425.332,362.586Z" fill="#1a1a1a"/>
        </g>
      </g>
      <g id="Group_1851" data-name="Group 1851">
        <path id="Path_2449" data-name="Path 2449" d="M434.987,403.7c5.147,17.158,7.72,33.455-2.574,51.468" fill="#feb740"/>
        <g id="Group_1850" data-name="Group 1850">
          <path id="Path_2450" data-name="Path 2450" d="M433.82,404.026c5.142,17.4,6.6,34.111-2.452,50.537-.754,1.367,1.337,2.588,2.09,1.221,9.359-16.991,8.03-34.356,2.7-52.4a1.211,1.211,0,0,0-2.334.643Z" fill="#1a1a1a"/>
        </g>
      </g>
      <path id="Path_2451" data-name="Path 2451" d="M425.7,373.35c9.558-3.49-2.986-5.037-7.523-4.978-11.129.146-20.95-.778-31.991.613-3.42.431-10.342,1.7-3.683,5.816C384.76,376.2,420.957,375.082,425.7,373.35Z" fill="#1a1a1a"/>
    </g>
    <g id="Group_1860" data-name="Group 1860">
      <path id="Path_2452" data-name="Path 2452" d="M437.583,293.182c-1.789,5.184-6.117,10.061-12,10.106-4.572.037-9.631-4.846-14.085-1.711-5.789,4.074-4.938,16.2-9.214,15.488s-5.78.379-6.25-2.615,8.421-24.008,12.385-22.67c4.456,1.5,7.741,4.021,11.937,3.047,4.62-1.075,12.9-7.967-6.464-18.975-4.055-2.3.643-8.836,4.941-8.848,3.033-.007,7.871,3.981,10.211,5.727C435.669,277.67,440.516,284.676,437.583,293.182Z" fill="#fff"/>
      <path id="Path_2453" data-name="Path 2453" d="M423.732,305.43c3.073-10.324-3.368-18.033-5.523-20.779-.883-1.129-2.259-3.082-3.765-3.373-.562,1.5.2,3.156.338,4.654.161,1.8.222,3.682.357,5.5a71.873,71.873,0,0,1,.062,11.783c-1.839-.3-3.64-2.047-5.521-.652-1.187.883-2.2,4.187-1.559,5.555.569,1.216,4.262,3.882,5.749,3.7" fill="#1a1a1a"/>
      <g id="Group_1859" data-name="Group 1859">
        <g id="Group_1858" data-name="Group 1858">
          <path id="Path_2454" data-name="Path 2454" d="M456.964,363.725c-.924-1.707-3.912-7.605-4.75-9.139-2.117-3.871-4.147-7.859-6-11.865-.88-1.908-6.482-14.3-8.171-15.67-2.386-1.931-7.975-3.969-7.975-3.969s-13.97,1.225-16.089,6.616c-3.384,8.605-2.959,8.328,3.33,12.918,3.026,2.211,12.479,8.468,15.963,9.847a45.378,45.378,0,0,1,6.916,3.063c3.275,2.086,5.947,7.791,8.051,11.033C451.078,370.928,457.7,365.073,456.964,363.725Z" fill="#1a1a1a"/>
          <g id="Group_1853" data-name="Group 1853">
            <path id="Path_2455" data-name="Path 2455" d="M436.593,350.618c2.634,2.88,4.136,7.236,6.165,10.576,1.95,3.211,4.338,6.129,6.275,9.33a.989.989,0,0,0,1.693,0c.023-.053.047-.106.071-.158.515-1.145-1.174-2.141-1.692-.991l-.072.159h1.693c-1.937-3.2-4.311-6.131-6.276-9.33-2.166-3.528-3.677-7.918-6.471-10.973-.855-.934-2.237.457-1.386,1.387Z" fill="#1a1a1a"/>
          </g>
          <g id="Group_1854" data-name="Group 1854">
            <path id="Path_2456" data-name="Path 2456" d="M423.577,348.463c-.011.082-.2,2.795-.465,2.977a32.1,32.1,0,0,0-4.069,3.994c-2.417,2.4-4.26,5.012-6.438,7.543-.819.953.561,2.348,1.386,1.387,1-1.16,1.7-2.535,2.718-3.711,1.652-1.908,3.525-3.613,5.291-5.41.908-.926,2.455-1.86,3.105-2.969.555-.947.289-2.723.432-3.811.165-1.252-1.8-1.234-1.96,0Z" fill="#1a1a1a"/>
          </g>
          <g id="Group_1856" data-name="Group 1856">
            <path id="Path_2457" data-name="Path 2457" d="M419.594,306.479a7.012,7.012,0,0,1,6.76.922c3.862,2.613,3.867,8.721,3.178,12.8-1.241,7.334-7.419,9.017-13.861,8.789-6.532-.231-6.112-9.016-4.272-13.52a18.6,18.6,0,0,1,4.437-6.568A12.134,12.134,0,0,1,419.594,306.479Z" fill="#fff"/>
            <g id="Group_1855" data-name="Group 1855">
              <path id="Path_2458" data-name="Path 2458" d="M419.855,307.424c8.444-2.4,9.584,6.8,8.731,12.512-.838,5.617-5.546,7.727-10.66,8.066-5.927.393-7.241-3.972-6.5-8.98a15.732,15.732,0,0,1,8.667-11.7c1.143-.539.147-2.229-.989-1.694-10.444,4.922-15.551,27.045,1.274,24.1,6.957-1.219,10.019-5.775,10.465-12.607.451-6.893-3.832-13.766-11.506-11.586A.981.981,0,0,0,419.855,307.424Z" fill="#1a1a1a"/>
            </g>
          </g>
          <g id="Group_1857" data-name="Group 1857">
            <path id="Path_2459" data-name="Path 2459" d="M416.988,314.748c.977-1.81,3.286-2.966,4.921-1.265a4.834,4.834,0,0,1,1.006,2.422c.284,1.3-.646,2.1-1.785,2.463a6.71,6.71,0,0,1-4.012-.352c-1.108-.371-.543-2.441-.13-3.268.564-1.126-1.127-2.119-1.692-.99-.863,1.727-1.358,5.071.924,6.008,2.194.9,4.938,1.1,6.987-.232,2.778-1.811,1.757-5.7-.193-7.731-2.391-2.486-6.323-.631-7.718,1.955C414.7,314.872,416.388,315.862,416.988,314.748Z" fill="#1a1a1a"/>
          </g>
          <path id="Path_2460" data-name="Path 2460" d="M418.48,312.2c.169-.075.363-.041.533-.114a2.46,2.46,0,0,1,.709-.25,1.2,1.2,0,0,1,1.061.475,3.145,3.145,0,0,1,.313,1.822,3.425,3.425,0,0,1-.125,1.086,2.812,2.812,0,0,1-.443.82,2.254,2.254,0,0,1-1.357.985,2.085,2.085,0,0,1-1.087-.094,2.227,2.227,0,0,1-.776-.279,2.659,2.659,0,0,1-1.1-1.373,3.468,3.468,0,0,1,.033-1.643,2.483,2.483,0,0,1,1.209-1.533,1.759,1.759,0,0,1,1.064-.127,2.35,2.35,0,0,1,.5.109c.165.061.156.131.124.3" fill="#1a1a1a"/>
        </g>
      </g>
    </g>
    <g id="Group_1861" data-name="Group 1861">
      <path id="Path_2461" data-name="Path 2461" d="M372.554,307.059c-.693,11.865,1.637,24.241,10.035,33.123,1.074,1.136,2.783-.578,1.711-1.711-7.962-8.422-9.981-20.2-9.326-31.412.091-1.56-2.329-1.551-2.42,0Z" fill="#fff"/>
    </g>
    <g id="Group_1862" data-name="Group 1862">
      <path id="Path_2462" data-name="Path 2462" d="M434.461,253.653c13.545,7.476,25.5,22.821,20.417,38.969-.471,1.493,1.866,2.126,2.333.644,5.41-17.172-7.041-33.706-21.528-41.7-1.368-.754-2.588,1.335-1.222,2.09Z" fill="#fff"/>
    </g>
    <g id="Group_1863" data-name="Group 1863">
      <path id="Path_2463" data-name="Path 2463" d="M411.423,362.078c.651-.75,2.258.276,2.752.826.678.754,1.783-.359,1.11-1.108-1.08-1.2-3.694-2.3-4.971-.826-.659.759.446,1.874,1.109,1.108Z" fill="#1a1a1a"/>
    </g>
    <g id="Group_1864" data-name="Group 1864">
      <path id="Path_2464" data-name="Path 2464" d="M414.521,362.969a3.806,3.806,0,0,1,1.86.763c.74.688,1.851-.418,1.11-1.108a5.2,5.2,0,0,0-2.552-1.167c-.987-.2-1.408,1.309-.418,1.512Z" fill="#1a1a1a"/>
    </g>
    <g id="Group_1865" data-name="Group 1865">
      <path id="Path_2465" data-name="Path 2465" d="M428.255,349.648a12.359,12.359,0,0,1,1.114,7.153c-.568,2.633-2.775,4.927-3.871,7.361-.412.914.94,1.711,1.355.791,1.319-2.933,3.525-5.4,4.215-8.6.5-2.311-.543-5.419-1.459-7.5-.407-.924-1.758-.125-1.354.791Z" fill="#1a1a1a"/>
    </g>
    <g id="Group_1866" data-name="Group 1866">
      <path id="Path_2466" data-name="Path 2466" d="M425,362.694c1.6.525,3.236.95,4.825,1.515.955.341,1.363-1.175.417-1.511-1.589-.566-3.223-.991-4.825-1.516-.964-.315-1.374,1.2-.417,1.512Z" fill="#1a1a1a"/>
    </g>
    <g id="Group_1868" data-name="Group 1868">
      <path id="Path_2467" data-name="Path 2467" d="M416.717,334.01c1.429,3.248,4.186,5.684,6.909,7.856a66.181,66.181,0,0,0,15.789,9.687,30.65,30.65,0,0,0,4.312,1.576c1.14.276,2.321.387,3.461.651.314.072.617.193.93.271a8.769,8.769,0,0,1,1.144.147" fill="#1a1a1a"/>
      <g id="Group_1867" data-name="Group 1867">
        <path id="Path_2468" data-name="Path 2468" d="M416.294,334.258c2.934,5.715,8.692,9.52,13.925,12.977a45.262,45.262,0,0,0,19.043,7.453c.626.078.618-.9,0-.981-6.2-.789-11.773-3.271-17.113-6.419-5.6-3.307-11.971-7.6-15.008-13.524-.289-.562-1.135-.066-.847.494Z" fill="#fff"/>
      </g>
    </g>
    <path id="Path_2469" data-name="Path 2469" d="M396.789,325.786c-4.275-.246-6.068,6.617-3.31,9.652C399.271,342.332,408.165,326.438,396.789,325.786Z" fill="#fff"/>
    <g id="Group_1869" data-name="Group 1869">
      <path id="Path_2470" data-name="Path 2470" d="M386.212,345.234a27.153,27.153,0,0,1,2.744,3.567c.729,1.38,2.817.157,2.089-1.222a26.874,26.874,0,0,0-2.743-3.566,1.239,1.239,0,0,0-1.656-.434,1.211,1.211,0,0,0-.434,1.655Z" fill="#fff"/>
    </g>
    <g id="Group_1870" data-name="Group 1870">
      <path id="Path_2471" data-name="Path 2471" d="M395,358h0c0,2,2,2,2,0h0c0-1-2-1-2,0Z" fill="#fff"/>
    </g>
    <g id="Group_1871" data-name="Group 1871">
      <path id="Path_2472" data-name="Path 2472" d="M452.071,300.337a9.031,9.031,0,0,0-1.537,5.548,1.211,1.211,0,0,0,2.42,0,6.83,6.83,0,0,1,1.207-4.326c.943-1.246-1.16-2.449-2.09-1.222Z" fill="#fff"/>
    </g>
    <g id="Group_1872" data-name="Group 1872">
      <path id="Path_2473" data-name="Path 2473" d="M421.523,242.33a25.531,25.531,0,0,0,4.871,4.87,1.211,1.211,0,0,0,1.655-.434,1.239,1.239,0,0,0-.434-1.656,21.3,21.3,0,0,1-4-4,1.239,1.239,0,0,0-1.656-.434,1.211,1.211,0,0,0-.434,1.656Z" fill="#fff"/>
    </g>
    <g id="Group_1874" data-name="Group 1874">
      <path id="Path_2474" data-name="Path 2474" d="M207.995,524.456c39.929-1.209,78.65-1.209,118.58,1.209" fill="#fff"/>
      <g id="Group_1873" data-name="Group 1873">
        <path id="Path_2475" data-name="Path 2475" d="M207.995,525.665c39.532-1.177,79.089-1.144,118.58,1.209,1.559.093,1.551-2.327,0-2.419-39.491-2.354-79.048-2.387-118.58-1.209-1.557.046-1.562,2.466,0,2.419Z" fill="#feb740"/>
      </g>
    </g>
    <g id="Group_1876" data-name="Group 1876">
      <line id="Line_49" data-name="Line 49" x2="35" transform="translate(414 500)" fill="#fff"/>
      <g id="Group_1875" data-name="Group 1875">
        <path id="Path_2476" data-name="Path 2476" d="M414,501h35c1,0,1-2,0-2H414c-2,0-2,2,0,2Z" fill="#feb740"/>
      </g>
    </g>
    <g id="Group_1878" data-name="Group 1878">
      <path id="Path_2477" data-name="Path 2477" d="M525.014,482.106c7.261,1.209,14.52,1.209,21.78,1.209" fill="#fff"/>
      <g id="Group_1877" data-name="Group 1877">
        <path id="Path_2478" data-name="Path 2478" d="M524.795,483.273A142.1,142.1,0,0,0,547,484.525c1,0,1-2.42,0-2.42a142.607,142.607,0,0,1-21.51-1.166c-1.527-.235-2.234,2.1-.7,2.334Z" fill="#feb740"/>
      </g>
    </g>
    <path id="Path_2479" data-name="Path 2479" d="M349,131.4c2.475,0,4.895-.1,5.526,2.8.647,2.966.244,20.309.006,21.013-.971,2.866-4.673,2.516-7.161,2.411-2.28-.1-4.876-.279-6.466,1.66-1.178,1.437-3.256,8.481-3.256,8.481s-2.587-6.616-3.863-7.776a7.454,7.454,0,0,0-6.52-1.7c-2.281.552-6.086,1.529-7.6-.591-1.582-2.223-1.8-23.193-.892-24.56C320.518,130.512,345.333,131.4,349,131.4Z" fill="#fff"/>
    <g id="Group_1879" data-name="Group 1879">
      <path id="Path_2480" data-name="Path 2480" d="M443.616,202.1c-.252-2.431-2.523-2.742-4.532-2.237-1.976.5-3.9,1.908-3.951,4.12-.044,1.973,2.121,2.816,3.754,2.869a5.719,5.719,0,0,0,5.226-3.135c.55-1.115-1.12-2.1-1.672-.977a3.81,3.81,0,0,1-2.723,2.1c-.76.175-2.074.151-2.562-.586-.586-.883.881-1.9,1.51-2.2.569-.275,2.9-1.087,3.014.045.128,1.229,2.065,1.241,1.936,0Z" fill="#fff"/>
    </g>
    <g id="Group_1880" data-name="Group 1880">
      <path id="Path_2481" data-name="Path 2481" d="M442,196v8.3c0,2.78-.481,5.628.192,8.347a.919.919,0,0,0,1.808-.257V212c0-1-2-1-2,0v.393c1-.086,1.425-.172,2.059-.258-.622-2.512-.059-5.264-.059-7.832V196c0-2-2-2-2,0Z" fill="#fff"/>
    </g>
    <g id="Group_1881" data-name="Group 1881">
      <path id="Path_2482" data-name="Path 2482" d="M443.263,202.183a5.777,5.777,0,0,1,5.676-.753c1.134.485,2.122-1.182.977-1.672a7.7,7.7,0,0,0-7.631.753c-1,.728-.032,2.409.978,1.672Z" fill="#fff"/>
    </g>
    <g id="Group_1882" data-name="Group 1882">
      <path id="Path_2483" data-name="Path 2483" d="M447.293,196.792c4.353-.267,4.1,5.05.768,6.48-1.144.492-.157,2.159.977,1.672,5.157-2.214,4.443-10.468-1.745-10.088-1.24.076-1.247,2.013,0,1.936Z" fill="#fff"/>
    </g>
    <g id="Group_1883" data-name="Group 1883">
      <path id="Path_2484" data-name="Path 2484" d="M447.992,204.492c1.206,7.254,11.183,3.865,12.661-1.506a.969.969,0,0,0-1.867-.515c-.994,3.612-8.058,6.735-8.927,1.506-.205-1.229-2.07-.706-1.867.515Z" fill="#fff"/>
    </g>
    <g id="Group_1884" data-name="Group 1884">
      <path id="Path_2485" data-name="Path 2485" d="M457.657,195.831c1.278,5.014-.31,10.543.31,15.617a1.037,1.037,0,0,0,.71.934l.158.066c1.15.485,1.647-1.39.515-1.867l-.158-.066.711.933c-.642-5.261.947-10.928-.379-16.132a.969.969,0,0,0-1.867.515Z" fill="#fff"/>
    </g>
    <g id="Group_1885" data-name="Group 1885">
      <path id="Path_2486" data-name="Path 2486" d="M464.058,195.077c1.6,5.233-.486,10.794,1.73,15.921.494,1.144,2.161.157,1.671-.977-2.1-4.858.009-10.423-1.534-15.459-.364-1.19-2.234-.682-1.867.515Z" fill="#fff"/>
    </g>
    <g id="Group_1886" data-name="Group 1886">
      <path id="Path_2487" data-name="Path 2487" d="M434.354,196.29c12.511-.013,24.647-.238,37.647-.251,1,0,1-2.039,0-2.039h-1c-1,0-1,2,0,2h1v-1.9c-13,.013-25.079.238-37.589.251-1.249,0-1.307,1.937-.058,1.936Z" fill="#fff"/>
    </g>
    <g id="Group_1887" data-name="Group 1887">
      <path id="Path_2488" data-name="Path 2488" d="M455.489,186.159c-.132,4.152,4.572,5.915,8.088,5.453,2.294-.3,6.889-3.559,4.86-6.137-.771-.981-2.132.4-1.369,1.369.234.3-1.82,1.937-2.045,2.106a3.975,3.975,0,0,1-2.331.812c-2.234.144-5.351-.97-5.268-3.6.04-1.249-1.9-1.245-1.935,0Z" fill="#fff"/>
    </g>
    <g id="Group_1888" data-name="Group 1888">
      <path id="Path_2489" data-name="Path 2489" d="M461.226,184.741c.214,0-.045-.032.013-.006a.99.99,0,0,0,1.325-.347.971.971,0,0,0-.347-1.325,2.382,2.382,0,0,0-.991-.257.968.968,0,0,0,0,1.935Z" fill="#fff"/>
    </g>
    <g id="Group_1889" data-name="Group 1889">
      <path id="Path_2490" data-name="Path 2490" d="M472.288,211.32a1.278,1.278,0,0,0,1.257-1.033.991.991,0,0,0-.676-1.191.97.97,0,0,0-1.191.676.674.674,0,0,1,.61-.387c-1.242.065-1.248,2,0,1.935Z" fill="#fff"/>
    </g>
    <g id="Group_1890" data-name="Group 1890">
      <path id="Path_2491" data-name="Path 2491" d="M477.128,211.642h.324a.969.969,0,0,0,0-1.936h-.324a.969.969,0,0,0,0,1.936Z" fill="#fff"/>
    </g>
    <g id="Group_1891" data-name="Group 1891">
      <path id="Path_2492" data-name="Path 2492" d="M481.968,211.965h.324a.969.969,0,0,0,0-1.936h-.324a.969.969,0,0,0,0,1.936Z" fill="#fff"/>
    </g>
    <g id="Group_1892" data-name="Group 1892">
      <path id="Path_2493" data-name="Path 2493" d="M118.033,374.238h-4.5l-2.526-9.8q-.141-.523-.479-2.163t-.389-2.2q-.077.689-.383,2.214t-.473,2.175l-2.513,9.776h-4.492l-4.761-18.657H101.4l2.387,10.183q.625,2.82.906,4.888.077-.729.351-2.253t.517-2.367l2.718-10.451h3.74l2.718,10.451q.177.7.446,2.144t.409,2.476q.127-1,.408-2.483t.511-2.4l2.373-10.183h3.892Z" fill="#fff"/>
      <path id="Path_2494" data-name="Path 2494" d="M137.992,374.238H134.1V365.9q0-3.09-2.3-3.089a2.613,2.613,0,0,0-2.361,1.11,6.78,6.78,0,0,0-.728,3.6v6.713h-3.892V354.38h3.892v4.046q0,.473-.089,2.221l-.089,1.148h.2a4.509,4.509,0,0,1,4.135-2.092,5.051,5.051,0,0,1,3.815,1.352,5.371,5.371,0,0,1,1.3,3.879Z" fill="#fff"/>
      <path id="Path_2495" data-name="Path 2495" d="M139.958,359.97h4.262L146.913,368a11.1,11.1,0,0,1,.472,2.475h.076A10.972,10.972,0,0,1,148.01,368l2.642-8.028h4.173l-6.036,16.093a6.986,6.986,0,0,1-2.368,3.344,5.98,5.98,0,0,1-3.592,1.109,9.008,9.008,0,0,1-1.978-.217v-3.088a6.629,6.629,0,0,0,1.531.166,2.773,2.773,0,0,0,1.806-.631,4.093,4.093,0,0,0,1.206-1.909l.229-.7Z" fill="#fff"/>
      <path id="Path_2496" data-name="Path 2496" d="M156.318,372.413a2.668,2.668,0,0,1,.172-1.015,1.718,1.718,0,0,1,.479-.67,1.914,1.914,0,0,1,.714-.37,3.27,3.27,0,0,1,.881-.114,3.1,3.1,0,0,1,.849.114,1.919,1.919,0,0,1,.708.37,1.782,1.782,0,0,1,.485.67,2.568,2.568,0,0,1,.179,1.015,2.452,2.452,0,0,1-.179.983,1.854,1.854,0,0,1-1.193,1.065,2.954,2.954,0,0,1-.849.121,3.117,3.117,0,0,1-.881-.121,1.894,1.894,0,0,1-.714-.389,1.841,1.841,0,0,1-.479-.676A2.546,2.546,0,0,1,156.318,372.413Z" fill="#fff"/>
      <path id="Path_2497" data-name="Path 2497" d="M163.771,372.413a2.648,2.648,0,0,1,.172-1.015,1.716,1.716,0,0,1,.478-.67,1.926,1.926,0,0,1,.715-.37,3.265,3.265,0,0,1,.881-.114,3.091,3.091,0,0,1,.848.114,1.919,1.919,0,0,1,.708.37,1.773,1.773,0,0,1,.486.67,2.587,2.587,0,0,1,.178,1.015,2.47,2.47,0,0,1-.178.983,1.858,1.858,0,0,1-1.194,1.065,2.947,2.947,0,0,1-.848.121,3.112,3.112,0,0,1-.881-.121,1.905,1.905,0,0,1-.715-.389,1.839,1.839,0,0,1-.478-.676A2.528,2.528,0,0,1,163.771,372.413Z" fill="#fff"/>
      <path id="Path_2498" data-name="Path 2498" d="M171.223,372.413a2.648,2.648,0,0,1,.173-1.015,1.706,1.706,0,0,1,.478-.67,1.914,1.914,0,0,1,.714-.37,3.27,3.27,0,0,1,.881-.114,3.1,3.1,0,0,1,.849.114,1.919,1.919,0,0,1,.708.37,1.771,1.771,0,0,1,.485.67,2.568,2.568,0,0,1,.179,1.015,2.452,2.452,0,0,1-.179.983,1.854,1.854,0,0,1-1.193,1.065,2.954,2.954,0,0,1-.849.121,3.117,3.117,0,0,1-.881-.121,1.894,1.894,0,0,1-.714-.389,1.828,1.828,0,0,1-.478-.676A2.527,2.527,0,0,1,171.223,372.413Z" fill="#fff"/>
    </g>
    <g id="Group_1893" data-name="Group 1893">
      <path id="Path_2499" data-name="Path 2499" d="M499.561,245.813c5.811-5.882,10.828-12.985,10.241-21.62-.105-1.548-2.526-1.558-2.42,0,.545,8.021-4.152,14.462-9.532,19.91a1.21,1.21,0,0,0,1.711,1.71Z" fill="#fff"/>
    </g>
    <g id="Group_1894" data-name="Group 1894">
      <path id="Path_2500" data-name="Path 2500" d="M508.458,5.961c5.3,7.436,9.727,15.651,8.089,25.076-.264,1.525,2.067,2.178,2.334.643,1.761-10.135-2.572-18.865-8.334-26.94-.9-1.259-3-.052-2.089,1.221Z" fill="#feb740"/>
    </g>
    <g id="Group_1895" data-name="Group 1895">
      <path id="Path_2501" data-name="Path 2501" d="M99.82,116.127a25.84,25.84,0,0,0,8.655,21.607c1.156,1.041,2.873-.665,1.711-1.711a23.56,23.56,0,0,1-7.946-19.9c.115-1.558-2.305-1.546-2.42,0Z" fill="#1a1a1a"/>
    </g>
    <g id="Group_1896" data-name="Group 1896">
      <path id="Path_2502" data-name="Path 2502" d="M223.724,152.985c8.436-.162,16.991,1.141,22.744,7.86,3.9,4.557,5.187,10.951,6.339,16.662.309,1.529,2.641.88,2.334-.643-1.34-6.641-3.054-13.167-7.552-18.42-5.816-6.791-15.473-8.04-23.865-7.879a1.211,1.211,0,0,0,0,2.42Z" fill="#fff"/>
    </g>
    <g id="Group_1897" data-name="Group 1897">
      <path id="Path_2503" data-name="Path 2503" d="M53.115,411.12c1.389,13.4,13.855,20.352,25.9,22.948,1.521.327,2.168-2.005.643-2.334-10.8-2.328-22.846-8.349-24.118-20.614-.159-1.537-2.581-1.552-2.42,0Z" fill="#fff"/>
    </g>
    <g id="Group_1898" data-name="Group 1898">
      <path id="Path_2504" data-name="Path 2504" d="M180.164,433.1a2.758,2.758,0,0,1,2.347.679c1.7,1.608,4.27-.955,2.567-2.567a6.658,6.658,0,0,0-4.914-1.742,1.816,1.816,0,0,0,0,3.63Z" fill="#feb740"/>
    </g>
    <g id="Group_1899" data-name="Group 1899">
      <path id="Path_2505" data-name="Path 2505" d="M80.945,203.806c2.3,19.29,1.212,38.727,2.42,58.079.1,1.55,2.517,1.559,2.42,0-1.208-19.352-.124-38.789-2.42-58.079-.182-1.53-2.6-1.548-2.42,0Z" fill="#fff"/>
    </g>
    <g id="Group_1900" data-name="Group 1900">
      <path id="Path_2506" data-name="Path 2506" d="M86,282.457s1-2.42,0-2.42c-2,0-2,2.42,0,2.42Z" fill="#fff"/>
    </g>
    <g id="Group_1901" data-name="Group 1901">
      <path id="Path_2507" data-name="Path 2507" d="M426,128v32c0,2,2,2,2,0V128c0-2-2-2-2,0Z" fill="#fff"/>
    </g>
    <g id="Group_1902" data-name="Group 1902">
      <path id="Path_2508" data-name="Path 2508" d="M424.584,96a4.044,4.044,0,0,0,.5,1.973c.456.532.913.563,1.913.563,2,0,2-2.419,0-2.42,0,0-.38,0-.571-.009-.144-.012-.115-.006.087.017-.179-.029.246.163.284.195a.812.812,0,0,1,.21.347c-.076-.23.023.258,0-.036C427,96.441,427,96,427,96c0-1-2.421-1-2.42,0Z" fill="#fff"/>
    </g>
    <g id="Group_1903" data-name="Group 1903">
      <path id="Path_2509" data-name="Path 2509" d="M427,114h1c2,0,2-2,0-2h-1c-2,0-2,2,0,2Z" fill="#fff"/>
    </g>
    <g id="Group_1904" data-name="Group 1904">
      <path id="Path_2510" data-name="Path 2510" d="M321.764,47s-.013,14.6-.181,21.819c-.037,1.561,2.383,1.478,2.42-.08.167-7.219.181-13.739.181-21.739,0-1-2.42-1-2.42,0Z" fill="#feb740"/>
    </g>
    <g id="Group_1905" data-name="Group 1905">
      <path id="Path_2511" data-name="Path 2511" d="M321.5,84.093c.01.026.02.051.029.076a1.256,1.256,0,0,0,1.489.846,1.382,1.382,0,0,0,.686-.388,1.21,1.21,0,0,0-1.711-1.711l.381-.235,1.488.845-.027-.076a1.235,1.235,0,0,0-1.489-.846,1.216,1.216,0,0,0-.846,1.489Z" fill="#fff"/>
    </g>
    <g id="Group_1906" data-name="Group 1906">
      <path id="Path_2512" data-name="Path 2512" d="M321.456,92.8a1.347,1.347,0,0,0,1.39,1.39,1.21,1.21,0,0,0,0-2.419l.164.02q.423.423.845.845l.021.164a1.211,1.211,0,0,0-2.42,0Z" fill="#fff"/>
    </g>
    <g id="Group_1907" data-name="Group 1907">
      <path id="Path_2513" data-name="Path 2513" d="M321,106h0a1.5,1.5,0,0,0,3,0h0a1.5,1.5,0,0,0-3,0Z" fill="#fff"/>
    </g>
    <g id="Group_1908" data-name="Group 1908">
      <path id="Path_2514" data-name="Path 2514" d="M111,47V68a1.5,1.5,0,0,0,3,0V47a1.5,1.5,0,0,0-3,0Z" fill="#1a1a1a"/>
    </g>
    <g id="Group_1913" data-name="Group 1913">
      <g id="Group_1911" data-name="Group 1911">
        <g id="Group_1910" data-name="Group 1910">
          <path id="Path_2515" data-name="Path 2515" d="M361.684,386.686c3.051,0,5.864-.08,6.81,3.449.811,3.031.33,23.78.007,25.883-.568,3.686-5.756,3.1-8.822,2.973-2.808-.119-6.007-.344-7.966,2.043-1.451,1.769-4.01,10.449-4.01,10.449s-3.188-8.151-4.759-9.58a9.179,9.179,0,0,0-8.031-2.09c-2.812.678-7.5,1.883-9.356-.727-1.952-2.742-2.216-28.572-1.1-30.259C326.6,385.59,357.167,386.68,361.684,386.686Z" fill="#1a1a1a"/>
          <g id="Group_1909" data-name="Group 1909">
            <path id="Path_2516" data-name="Path 2516" d="M361.684,387.9c7.686.037,6.054,7.764,6.044,13.346-.009,4.716-.042,9.464-.375,14.172-.255,3.593-6.693,2.4-9.1,2.31a9.418,9.418,0,0,0-7.392,2.453c-2.518,2.315-3.385,7.834-4.322,10.983h2.334c-2.863-7.262-5.962-14.5-15.279-12.276-2.269.543-6.61,1.53-7.415-1.642a35.387,35.387,0,0,1-.74-5.87c-.389-4.837-.46-9.71-.413-14.56.017-1.8-.717-7,1.339-7.711,3.716-1.291,8.193-1.127,12.073-1.264,7.752-.273,15.5.016,23.249.059a1.211,1.211,0,0,0,0-2.42c-8.78-.049-17.546-.355-26.325.07-3.313.16-7.276.159-10.382,1.5-2.266.979-2.1,3.285-2.24,5.459-.509,8.2-1.136,18.373,1.367,26.3,1.179,3.74,6.076,3.186,9.03,2.65,5.077-.918,8.495-.209,10.848,4.479.956,1.9,1.773,3.885,2.554,5.863a1.221,1.221,0,0,0,2.334,0q.994-3.342,2.2-6.617c2.214-6.039,7.68-4.727,12.877-4.914,5.164-.188,5.814-3.672,5.985-7.93.252-6.277.353-12.594.1-18.873-.224-5.646-2.54-7.963-8.349-7.992A1.211,1.211,0,0,0,361.684,387.9Z" fill="#feb740"/>
          </g>
        </g>
      </g>
      <g id="Group_1912" data-name="Group 1912">
        <path id="Path_2517" data-name="Path 2517" d="M333.708,403.736a25.226,25.226,0,0,0,7.4,8.179,1.2,1.2,0,0,0,1.222,0c6.4-3.49,10.526-9.61,16.263-13.94,1.229-.928.025-3.031-1.222-2.09a92.734,92.734,0,0,0-9.071,8.425,36.192,36.192,0,0,1-6.048,4.891c-1.7,1.077-6.048-5.953-6.459-6.686a1.21,1.21,0,0,0-2.089,1.221Z" fill="#feb740"/>
      </g>
    </g>
    <g id="Group_1915" data-name="Group 1915">
      <g id="Group_1914" data-name="Group 1914">
        <path id="Path_2518" data-name="Path 2518" d="M325.19,146.084a22.828,22.828,0,0,0,6.706,7.4,1.2,1.2,0,0,0,1.222,0c5.759-3.142,9.472-8.648,14.637-12.545,1.229-.927.025-3.03-1.222-2.09a83.8,83.8,0,0,0-8.188,7.6,32.3,32.3,0,0,1-5.419,4.383c-1.41.9-5.306-5.366-5.646-5.973a1.211,1.211,0,0,0-2.09,1.221Z" fill="#feb740"/>
      </g>
    </g>
    <g id="Group_1917" data-name="Group 1917">
      <path id="Path_2519" data-name="Path 2519" d="M332.444,363.454c0,13.14,0,0,.308,12.716" fill="#feb740"/>
      <g id="Group_1916" data-name="Group 1916">
        <path id="Path_2520" data-name="Path 2520" d="M331.234,363s-.005,4.1.005,6.03c0,.53-.057,1.3.38,1.692a1.242,1.242,0,0,0,1.711.056c.853-.714-1.27.308-.831.366-.348-.2-.7-.386-1.045-.586-.394-.665-.092.038-.066.594.08,1.669.112,3.345.154,5.015a1.21,1.21,0,0,0,2.419,0,44.69,44.69,0,0,0-.269-6.431,1.3,1.3,0,0,0-1.811-.883c-.077.046-.868,1.146-.262.146h1.711c.461,1,.345,1.219.333.576-.006-.322-.005-.839-.006-1.161-.007-1.739,0-3.415,0-5.415,0-1-2.42-1-2.42,0Z" fill="#fff"/>
      </g>
    </g>
  </g>
</svg>
