<svg xmlns="http://www.w3.org/2000/svg" width="539.309" height="534.131" viewBox="0 0 539.309 534.131">
  <g id="Home_About" transform="translate(-8.892 -22.105)">
    <path id="Path_618" data-name="Path 618" d="M22.313,144.407C-11.72,238.54,42.374,362.977,94.52,421.447c101.356,113.646,221.366,62.9,272.641,55.226,56.9-8.005,97.56-1.1,144.009-43.294,55.5-48.359,69.487-279.386-109.1-294.614C363.62,135.486,324.631,105,295.142,80.206,133.022-56.1,45.956,81.908,22.313,144.407Z" fill="#feb740"/>
    <g id="Group_305" data-name="Group 305">
      <g id="Group_302" data-name="Group 302">
        <g id="Group_297" data-name="Group 297">
          <path id="Path_619" data-name="Path 619" d="M189.606,125.555c-4.356.127-31.082,11.882-34.046,15.385a3.265,3.265,0,0,0-.346.577c-9.629,2.542-8.383,5.738-14.542,14.942l17.621-.632c2.661,2.4,31.864-.739,34.612-3.469C195.866,148.857,189.606,125.555,189.606,125.555Z" fill="#1a1a1a"/>
          <g id="Group_296" data-name="Group 296">
            <path id="Path_620" data-name="Path 620" d="M166.5,156.458c-.137,5.978-.681,11.937-.817,17.915-.042,1.848,2.823,1.844,2.865,0,.136-5.978.68-11.937.817-17.915.042-1.848-2.823-1.844-2.865,0Z" fill="#231f20"/>
          </g>
          <path id="Path_621" data-name="Path 621" d="M187.7,105.035c-6.854-1.794-16.518,1.1-15.3,7.993l.617,15.911c-.053,4.725,7.047,5.664,12.2,6.581,7.722.946,8.218-4.635,8.285-10.649C193.578,117.135,195.835,107.277,187.7,105.035Z" fill="#fff"/>
          <path id="Path_622" data-name="Path 622" d="M172.694,109.093c-3.227-3.011-23.712,2.8-23.712,2.8l22.915,8.05" fill="#1a1a1a"/>
          <path id="Path_623" data-name="Path 623" d="M172.891,127.947c-4.32,1.885-23.561-4.165-23.561-4.165l22.594-3.507" fill="#1a1a1a"/>
          <path id="Path_624" data-name="Path 624" d="M187.973,104.033a1.07,1.07,0,0,0-.271-.055,20.9,20.9,0,0,0-6.419-.326c.241-.168.484-.333.719-.515,1.458-1.132-.586-3.144-2.026-2.025-2.87,2.228-7.084,3.21-8.021,7.212a1.375,1.375,0,0,0,.155,1.057,9.917,9.917,0,0,0-.73,4.33q.232,5.979.464,11.957c.105,2.692-.2,5.843,2.359,7.564,6.223,4.184,18.884,6.256,20.053-3.758C195.186,121.507,197.7,107.365,187.973,104.033Zm4.458,22.033c-.1,5.425-1.887,9.34-8.168,8.238-3.266-.573-10.05-1.151-10.226-5.678q-.254-6.557-.508-13.112c-.069-1.781-.37-3.724.215-5.436a1.239,1.239,0,0,0,.974-.993,3.586,3.586,0,0,1,.6-1.3c3.013-2.6,8.847-2.461,12.1-1.748C195.231,108.713,192.543,119.7,192.431,126.066Z" fill="#1a1a1a"/>
        </g>
        <g id="Group_298" data-name="Group 298">
          <path id="Path_625" data-name="Path 625" d="M176.175,173.64c3.483.836,6.948,1.708,10.482,2.292,1.837.3,2.624-2.5.775-2.808-3.535-.584-7-1.456-10.483-2.292-1.825-.438-2.6,2.37-.774,2.808Z" fill="#231f20"/>
        </g>
        <g id="Group_299" data-name="Group 299">
          <path id="Path_626" data-name="Path 626" d="M177.967,174.594c1.556,2.517,3.519,4.776,4.728,7.5.761,1.713,3.269.23,2.514-1.47-1.209-2.72-3.172-4.978-4.728-7.5-.984-1.593-3.5-.132-2.514,1.47Z" fill="#231f20"/>
        </g>
        <g id="Group_300" data-name="Group 300">
          <path id="Path_627" data-name="Path 627" d="M170.034,172.466a13.2,13.2,0,0,0-10.408,7.607c-.74,1.7,1.768,3.188,2.513,1.47a10.375,10.375,0,0,1,7.895-6.166c1.843-.211,1.863-3.125,0-2.911Z" fill="#231f20"/>
        </g>
        <g id="Group_301" data-name="Group 301">
          <path id="Path_628" data-name="Path 628" d="M165.934,174.294c-.514,3.2-.89,6.413-1.4,9.609-.295,1.837,2.511,2.624,2.808.775.514-3.2.89-6.413,1.4-9.61.3-1.836-2.51-2.624-2.807-.774Z" fill="#231f20"/>
        </g>
      </g>
      <g id="Group_304" data-name="Group 304">
        <path id="Path_629" data-name="Path 629" d="M184.99,108.98a16.976,16.976,0,0,1,2.667,4.805,5.94,5.94,0,0,1-.708,5.311c-1.138,1.427-3.457,1.795-4.678.446a4.9,4.9,0,0,1-1-2.3,16.99,16.99,0,0,1-.371-3.619c.007-1.185.328-2.626,1.407-2.955a2.294,2.294,0,0,1,1.618.257,7.2,7.2,0,0,1,2.9,2.53,3.049,3.049,0,0,1,.614,1.833,1.334,1.334,0,0,1-1.162,1.316.9.9,0,0,1-.676-1.39" fill="#fff"/>
        <g id="Group_303" data-name="Group 303">
          <path id="Path_630" data-name="Path 630" d="M184.059,109.524a18.184,18.184,0,0,1,2.558,4.547c.709,2.075.132,5.135-2.5,5.229-2.165.078-2.114-4.408-2.135-5.681-.071-4.323,5.209.495,4.659,1.878.515-1.293-1.572-1.849-2.08-.573-.485,1.219.457,3.1,2,2.716a2.752,2.752,0,0,0,1.521-4.164c-.908-1.573-3.117-4.178-5.229-3.95-2.057.223-2.753,1.656-3.007,3.573-.459,3.47,1.448,10.564,6.362,7.909,5.124-2.768,2.165-9.089-.29-12.572-.794-1.127-2.666-.052-1.862,1.088Z" fill="#1a1a1a"/>
        </g>
      </g>
    </g>
    <g id="Group_306" data-name="Group 306">
      <path id="Path_631" data-name="Path 631" d="M350.85,284.469c-.455-15.467.673-30.934-.118-46.395-.386-7.56-1.124-14.6-.882-22.154.478-15.024,2.411-31.141-.047-46.056-1.071-6.5-12.117-5.927-17.032-6.4-14.518-1.4-29.165-1.705-43.739-1.921-30.722-.456-62.31-.95-92.816,3.294-3.345.466-6.885.941-9.982,2.369-1.545.713-1.233,2.925-1.323,4.366q-.921,14.7-1.7,29.41c-1.715,31.94-3.263,63.946-3.27,95.939,0,10.655-.231,21.68,1.632,32.214.377,2.135.875,4.607,2.755,5.929,3.09,2.172,9.229,1.324,12.7,1.25,16.539-.355,33.08-2.48,49.51-4.262,8.116-.88,16.127-1.894,24.289-1.744l77.362,1.425.562.011a1.519,1.519,0,0,0,1.5-1.5c.555-15.257.6-30.507.6-45.772a1.5,1.5,0,0,0-3,0c0,15.265-.047,30.515-.6,45.772l1.5-1.5-74.554-1.373c-24.1-.445-48.061,4.49-72.124,5.749-4.988.26-10.994,1.047-15.859-.469-1.607-.5-1.8-4.52-2.009-5.939-1.71-11.5-1.315-23.492-1.244-35.084.194-31.839,1.773-63.683,3.515-95.469q.715-13.046,1.532-26.085l.087-1.354c-.1,1.469-.84,1.21.586.719a24.968,24.968,0,0,1,2.464-.67,108.217,108.217,0,0,1,14.625-2.018c32.529-3.02,65.6-2.847,98.228-1.88,11.2.332,22.47.746,33.6,2.119a36.166,36.166,0,0,1,8.343,1.7c2,.757,1.49,7.791,1.554,9.732.459,14.1-.408,28.231-.788,42.321-.208,7.675,1.015,15.228,1.255,22.9.426,13.606-.511,27.215-.111,40.823C347.906,286.4,350.907,286.4,350.85,284.469Z" fill="#1a1a1a"/>
    </g>
    <g id="Group_308" data-name="Group 308">
      <path id="Path_632" data-name="Path 632" d="M148.317,149.57l-8.064.859s.267,32.3.735,42.483c2.044,44.488,3.447,159.916,3.607,169.35.1,5.669,7,2.071,7,2.071" fill="#fff"/>
      <g id="Group_307" data-name="Group 307">
        <path id="Path_633" data-name="Path 633" d="M148.317,148.07l-8.064.859a1.53,1.53,0,0,0-1.5,1.5c.266,31.828,1.623,63.611,2.352,95.43.821,35.834,1.364,71.675,1.863,107.515q.06,4.357.124,8.715c.089,5.517,5.392,5.476,9.26,3.539,1.731-.865.211-3.453-1.514-2.589-5.624,2.814-4.781-3.291-4.832-6.912q-.123-8.805-.248-17.609-.4-27.6-.893-55.206c-.661-36.355-2.244-72.7-2.827-109.047q-.19-11.917-.285-23.836l-1.5,1.5,8.064-.859c1.9-.2,1.923-3.205,0-3Z" fill="#1a1a1a"/>
      </g>
    </g>
    <g id="Group_310" data-name="Group 310">
      <path id="Path_634" data-name="Path 634" d="M187.419,168.708c0-9.331-40.324-19.946-40.324-19.946l5,217s25.44-11.719,34.975-24.644C193.007,333.069,187.419,174.474,187.419,168.708Z" fill="#fff"/>
      <g id="Group_309" data-name="Group 309">
        <path id="Path_635" data-name="Path 635" d="M188.919,168.708c-.52-7.678-13.125-11.671-18.868-13.987a190.863,190.863,0,0,0-22.557-7.4,1.514,1.514,0,0,0-1.9,1.446q1.669,72.405,3.337,144.809.831,36.094,1.663,72.191a1.52,1.52,0,0,0,2.257,1.3,150.669,150.669,0,0,0,17.672-9.817,96.313,96.313,0,0,0,11.864-8.89c2.246-1.98,5.258-4.5,6.417-7.363,2.852-7.046,1.99-16.717,2.2-24.125.919-32.208.044-64.5-.713-96.7-.4-17.14-1.311-34.31-1.374-51.455a1.5,1.5,0,0,0-3,0c.191,52.559,4.466,105.2,1.711,157.761-.3,5.762.064,11.851-3.835,16.272-8.422,9.552-21,16.417-32.457,21.726l2.257,1.295-3.336-144.808q-.833-36.1-1.664-72.192-.949.723-1.9,1.446c6,1.587,11.928,3.492,17.767,5.588a107.33,107.33,0,0,1,13.409,5.741c2.531,1.32,7.82,3.81,8.047,7.171C186.049,170.628,189.05,170.641,188.919,168.708Z" fill="#1a1a1a"/>
      </g>
    </g>
    <g id="Group_311" data-name="Group 311">
      <path id="Path_636" data-name="Path 636" d="M179.237,238.3c.016-.1.033-.205.049-.308l2.947.4c-.447-12.981-.235-26-.5-38.992q-.129-6.342-.339-12.68c-.134-3.961.265-7.747-1.783-11.283-2.133-3.683-7.511-6.044-10.913-8.3-4.834-3.2-9.891-5.933-15.592-7.167-1.887-.408-2.688,2.483-.8,2.893a42.382,42.382,0,0,1,13.459,5.949c4.7,2.924,11.995,6.261,12.518,12.331.674,7.813.412,15.869.553,23.712.2,11.17.011,22.371.4,33.535a1.507,1.507,0,0,0,2.946.4,1.672,1.672,0,0,0,.058-.489c.044-1.935-2.956-1.931-3,0Z" fill="#1a1a1a"/>
      <text id="Leaves_or_Fruits_or_Sprouting_Shoots_" data-name="Leaves or Fruits or Sprouting Shoots?" transform="translate(14.547 195.917)" fill="#1a1a1a" font-size="18" font-family="NotoSans-BoldItalic, Noto Sans" font-weight="700" font-style="italic"><tspan x="33.404" y="19">Leaves or </tspan><tspan x="41.974" y="39">Fruits or </tspan><tspan x="30.653" y="59">Sprouting </tspan><tspan x="48.372" y="79">Shoots?</tspan></text>
    </g>
    <g id="Group_312" data-name="Group 312">
      <path id="Path_637" data-name="Path 637" d="M155.137,258.6c8.819.392,18.205.368,26.438-3.2l-2.052-.538c2.42,3.825,2.027,9.1,2.189,13.473.212,5.691.791,11.361.962,17.058a251.94,251.94,0,0,1-2.272,41.053c-.257,1.913,2.746,1.887,3,0a262.788,262.788,0,0,0,2.216-42.923c-.177-5.893-.786-11.757-.994-17.646-.148-4.18-.2-8.882-2.511-12.529a1.542,1.542,0,0,0-2.052-.538c-7.691,3.329-16.7,3.15-24.924,2.786-1.935-.086-1.927,2.915,0,3Z" fill="#1a1a1a"/>
    </g>
    <g id="Group_314" data-name="Group 314">
      <path id="Path_638" data-name="Path 638" d="M380.6,342.262h6s-.429-16.292-.1-22.252c.638-11.49.65-23.034.207-34.533,0-28.548-.572-91.238-3.339-117.523-.411-5.35-3.771-28.692-3.771-28.692s-11.176,2.48-12.548,4.229" fill="#fff"/>
      <g id="Group_313" data-name="Group 313">
        <path id="Path_639" data-name="Path 639" d="M380.6,343.762h6a1.51,1.51,0,0,0,1.5-1.5c-.491-18.945.8-37.842.11-56.785-.66-18.174-.18-36.441-.529-54.629-.594-30.945-2.23-61.353-6.634-91.985a1.509,1.509,0,0,0-1.846-1.047c-4.089.917-10.047,1.633-13.209,4.614-1.411,1.329.715,3.447,2.121,2.121,2.631-2.479,8.434-3.068,11.886-3.843l-1.845-1.047c4.366,30.365,5.92,60.516,6.527,91.187q.531,26.853.529,53.716c.012,19.224-.609,38.477-.11,57.7l1.5-1.5h-6a1.5,1.5,0,0,0,0,3Z" fill="#1a1a1a"/>
      </g>
    </g>
    <path id="Path_640" data-name="Path 640" d="M461.318,287.726a2.12,2.12,0,0,1-.977.627c-1.465.457-3.827,0-5.375,0H441.48c-1.653,0-5.21.631-6.647-.211-1.479-.865-.938-4.789-.982-6.245-.03-.981-.559-3.929.189-4.741.458-.5,1.206-.324,1.828-.323,2.239.007,4.478,0,6.717,0h13.69c1.164,0,2.329,0,3.494,0a2.864,2.864,0,0,1,1.329.106c1.169.7.954,3.738.986,4.85C462.129,283.382,462.545,286.341,461.318,287.726Z" fill="#fff"/>
    <g id="Group_317" data-name="Group 317">
      <g id="Group_315" data-name="Group 315">
        <path id="Path_641" data-name="Path 641" d="M439.542,225.2c-2.574,1.994-8.073.714-11.1.714H415.567c-2.839,0-9.559,1.5-9.937-3.251-.187-2.358-.076-4.911-.085-7.289-.012-3.4,7.345-2,9.468-2h12.8c3.634,0,7.326-.732,10.952-.241,2.948.4,1.591,10.958.625,12.274-.765,1.042.972,2.037,1.726,1.01,2.1-2.861,1.438-7.668,1.36-11.079-.086-3.719-3.172-4.336-6.275-4.372-6.429-.072-12.91.408-19.356.408-3.348,0-6.736.15-10.077-.084-.8-.056-2.091.089-2.5.974-1.294,2.779-.507,6.067-.618,9.04-.1,2.742.281,6.479,3.756,6.7,6.327.4,12.855-.084,19.206-.084,4.412,0,10.624,1.59,14.352-1.3C441.975,225.825,440.548,224.42,439.542,225.2Z" fill="#fff"/>
      </g>
      <g id="Group_316" data-name="Group 316">
        <path id="Path_642" data-name="Path 642" d="M456.713,245.371c-2.573,1.995-8.072.712-11.1.712H432.739c-2.84,0-9.56,1.5-9.938-3.25-.187-2.357-.075-4.91-.085-7.288-.012-3.4,7.346-2.006,9.469-2.006h12.794c3.634,0,7.327-.731,10.953-.24,2.947.4,1.591,10.957.625,12.274-.764,1.042.973,2.038,1.727,1.009,2.1-2.861,1.437-7.667,1.359-11.078-.085-3.719-3.172-4.337-6.274-4.372-6.43-.072-12.91.407-19.357.407-3.348,0-6.736.148-10.077-.083-.8-.056-2.091.089-2.5.974-1.293,2.779-.506,6.067-.617,9.04-.1,2.742.28,6.48,3.755,6.7,6.327.4,12.855-.085,19.206-.085,4.413,0,10.624,1.591,14.352-1.3C459.146,246,457.719,244.591,456.713,245.371Z" fill="#fff"/>
      </g>
    </g>
    <g id="Group_319" data-name="Group 319">
      <path id="Path_643" data-name="Path 643" d="M102.289,116.392a3.692,3.692,0,0,1-1.9,1.076c-2.732.475-5.985,0-8.765,0H71.952c-1.769,0-5.455.7-6.7-.747-1.6-1.864-.9-5.639-.993-7.893-.052-1.289-.71-6.279.989-6.925a9.152,9.152,0,0,1,2.5.007H88.982c2.044,0,4.094-.239,6.138-.3,1.975-.057,5.3-.517,7.1.55,2.153,1.278,1.2,5.628,1.2,7.745a39.344,39.344,0,0,1,0,4.248A3.875,3.875,0,0,1,102.289,116.392Z" fill="#fff"/>
      <path id="Path_644" data-name="Path 644" d="M76.358,134.759a3.673,3.673,0,0,1-1.9,1.076c-2.731.476-5.984,0-8.763,0H46.021c-1.769,0-5.455.7-6.7-.746-1.6-1.865-.9-5.638-.992-7.893-.053-1.29-.71-6.279.988-6.925a9.15,9.15,0,0,1,2.5.006H63.05c2.045,0,4.094-.238,6.139-.3,1.975-.057,5.3-.516,7.1.551,2.153,1.277,1.2,5.628,1.2,7.745a39.584,39.584,0,0,1,0,4.247A3.877,3.877,0,0,1,76.358,134.759Z" fill="#fff"/>
      <g id="Group_318" data-name="Group 318">
        <path id="Path_645" data-name="Path 645" d="M105.288,156.746c-3.024,2.343-10.292.783-13.89.783H77.626c-4.294,0-8.859.51-8.705-5.415.036-1.375-.873-8.088,1.254-8.233,8.468-.573,17.085.451,25.581-.037,3.179-.182,10.216-1.936,10.578,2.939.2,2.673.333,8.071-1.2,10.165-.764,1.042.973,2.037,1.727,1.009,2.236-3.047,1.665-8.626,1.394-12.278-.245-3.305-2.983-4-5.81-4.151-6.417-.337-13.086.442-19.531.442H71.455c-1.616,0-2.514-.275-3.741.718-2.043,1.651-.711,7.189-.793,9.426-.122,3.3.058,6.548,3.667,7.469,2.111.54,4.874-.054,7.038-.054H89.431c5.072,0,13,1.943,17.271-1.369C107.72,157.371,106.294,155.966,105.288,156.746Z" fill="#fff"/>
      </g>
    </g>
    <g id="Group_321" data-name="Group 321">
      <g id="Group_320" data-name="Group 320">
        <path id="Path_646" data-name="Path 646" d="M169.551,416.987c-2.77,1.777-8.053.664-11.208.664H146.4c-3.044,0-9.886,1.928-10.439-2.438-.279-2.209.077-4.474-.14-6.7-.5-5.171,7.065-3.568,10.32-3.57q6.8,0,13.6,0c3.553,0,10.118-1.577,10.3,3.636.1,2.81.725,6.3-.835,8.768-.692,1.094,1.039,2.1,1.726,1.01,1.546-2.443,3.084-15.622-1.967-15.444-6.943.243-13.927.03-20.874.03-3.506,0-7.013.008-10.519,0-.9,0-2.686-.139-3.2.907-1.412,2.89-.436,7.113-.454,10.285-.018,3.214.874,5.259,4.18,5.737,5.236.754,11.342-.219,16.653-.219,4.635,0,11.751,1.673,15.82-.938C171.643,418.02,170.641,416.288,169.551,416.987Z" fill="#fff"/>
      </g>
      <path id="Path_647" data-name="Path 647" d="M194.608,398.29a3.486,3.486,0,0,1-1.794,1.017c-2.583.449-5.658,0-8.286,0h-18.6c-1.673,0-5.158.662-6.335-.706-1.516-1.763-.851-5.331-.938-7.463-.05-1.219-.671-5.936.934-6.547a8.642,8.642,0,0,1,2.366.006h20.074c1.933,0,3.87-.224,5.8-.28,1.867-.055,5.014-.488,6.713.519,2.035,1.208,1.135,5.322,1.135,7.324a37.34,37.34,0,0,1,0,4.015A3.677,3.677,0,0,1,194.608,398.29Z" fill="#fff"/>
      <path id="Path_648" data-name="Path 648" d="M210.388,422.855H183.879c-1.2,0-10.6.666-10.717-.086-.316-2,.47-5.55.393-7.536-.081-2.088-.242-4.172-.339-6.259a1.237,1.237,0,0,1,.14-.774c.278-.4,3.618-.055,4.211-.055h27.185c1.253,0,4.6-.564,5.494.593a2.212,2.212,0,0,1,.349,1.165c.257,2.606-.207,5.074-.207,7.683A28.889,28.889,0,0,1,210.388,422.855Z" fill="#fff"/>
    </g>
    <g id="Group_326" data-name="Group 326">
      <g id="Group_323" data-name="Group 323">
        <path id="Path_649" data-name="Path 649" d="M379.916,284.65c0-26.042-.667-92.151-3.338-117.524-.668-8.681-5.343-26.71-5.343-26.71s-37.835,16.267-36.726,28.046S342.33,330.8,342.33,330.8l37.586,11.949S380.585,302.014,379.916,284.65Z" fill="#fff"/>
        <g id="Group_322" data-name="Group 322">
          <path id="Path_650" data-name="Path 650" d="M381.416,284.65q-.009-39.028-1.17-78.053c-.708-22.646-1.878-44.557-7.564-66.58a1.527,1.527,0,0,0-2.2-.9c-11.652,5.031-24.429,11.209-33.3,20.471-6.015,6.282-3.761,14.63-3.336,22.532,1.66,30.91,3.034,61.836,4.453,92.758q1.284,27.958,2.533,55.916a1.535,1.535,0,0,0,1.1,1.447l37.586,11.948a1.512,1.512,0,0,0,1.9-1.446c.315-19.346.706-38.757,0-58.1-.07-1.929-3.071-1.936-3,0,.706,19.339.315,38.75,0,58.1l1.9-1.447-37.586-11.948q.549.723,1.1,1.446c-2.27-50.913-4.381-101.843-7.207-152.729-.156-2.8-.31-5.593-.514-8.386-.355-4.867,2.967-8.046,6.464-11.045,8.462-7.26,19.226-12.526,29.42-16.926l-2.2-.9a184.846,184.846,0,0,1,5.6,29.548c1.084,12.041,1.468,24.156,1.857,36.235.835,26.005,1.164,52.035,1.17,78.053A1.5,1.5,0,0,0,381.416,284.65Z" fill="#1a1a1a"/>
        </g>
      </g>
      <g id="Group_324" data-name="Group 324">
        <path id="Path_651" data-name="Path 651" d="M374.031,228.678l-27.769,3.6,1.5,1.5L343.6,169.762c-.125-1.92-3.126-1.932-3,0l4.167,64.019c.048.732.651,1.61,1.5,1.5l27.769-3.6c1.891-.245,1.915-3.248,0-3Z" fill="#1a1a1a"/>
      </g>
      <g id="Group_325" data-name="Group 325">
        <path id="Path_652" data-name="Path 652" d="M372.989,325.465l-18.107-7.655c-1.829-.773-.618-.178-.549.54l-.2-2.077q-.453-4.76-.891-9.521c-1.749-18.946-3.843-37.99-4.41-57.017-.058-1.93-3.058-1.936-3,0,.684,22.967,3.316,45.971,5.52,68.833a1.5,1.5,0,0,0,.743,1.3l19.378,8.192c1.76.744,3.291-1.839,1.514-2.59Z" fill="#1a1a1a"/>
      </g>
    </g>
    <g id="Group_327" data-name="Group 327">
      <path id="Path_653" data-name="Path 653" d="M181.252,350.08c58.379,2.763,118.874.772,175.694-13.977a1.5,1.5,0,0,0-.8-2.892c-56.563,14.681-116.776,16.62-174.9,13.869-1.934-.092-1.925,2.909,0,3Z" fill="#1a1a1a"/>
    </g>
    <path id="Path_654" data-name="Path 654" d="M413.528,98.545A32.535,32.535,0,0,0,430.7,124.276c1.168-6.546,2.169-13.9-1.685-19.318-1.79-2.516-4.431-4.277-7.052-5.908q-5.041-3.135-10.293-5.917" fill="#feb740"/>
    <path id="Path_655" data-name="Path 655" d="M11.621,399.629c1.788,2.518,4.428,4.28,7.049,5.913,3.359,2.092,8.434.51,8.434.51,4.268-9.884-7.593-20.8-17.156-25.741C8.776,386.856,7.77,394.209,11.621,399.629Z" fill="#feb740"/>
    <path id="Path_656" data-name="Path 656" d="M526.432,39.775a32.539,32.539,0,0,0-9.84,29.328c5.891-3.083,12.321-6.792,14.246-13.154.895-2.955.672-6.121.358-9.194q-.606-5.906-1.619-11.76" fill="#feb740"/>
    <g id="Group_348" data-name="Group 348">
      <g id="Group_337" data-name="Group 337">
        <g id="Group_329" data-name="Group 329">
          <path id="Path_658" data-name="Path 658" d="M301.222,242.129c-28.55,2.2-39.4,41.047-8.728,51.037,32.912,11.916,50.206-31.154,19.374-51.347" fill="#fff"/>
          <g id="Group_328" data-name="Group 328">
            <path id="Path_659" data-name="Path 659" d="M301.222,240.893c-13.819,1.309-25.5,10.963-28.022,24.856-2.792,15.367,8.768,25.982,22.513,29.7A26.076,26.076,0,0,0,327.6,278.992c5.461-14.8-2.873-29.963-15.106-38.241-1.324-.9-2.561,1.248-1.248,2.136,11.15,7.545,18,20.147,14.525,33.666-3.3,12.812-15.713,19.245-28.246,16.78-13.257-2.607-24.006-12.728-21.938-26.926,1.86-12.765,13.2-21.863,25.637-23.041,1.573-.149,1.588-2.623,0-2.473Z" fill="#1a1a1a"/>
          </g>
        </g>
        <g id="Group_330" data-name="Group 330">
          <path id="Path_660" data-name="Path 660" d="M293.3,256.858c2.733,0,2.733-4.236,0-4.236s-2.732,4.236,0,4.236Z" fill="#1a1a1a"/>
        </g>
        <g id="Group_331" data-name="Group 331">
          <path id="Path_661" data-name="Path 661" d="M311,265.737c2.733,0,2.733-4.238,0-4.238s-2.732,4.238,0,4.238Z" fill="#1a1a1a"/>
        </g>
        <g id="Group_334" data-name="Group 334">
          <g id="Group_333" data-name="Group 333">
            <path id="Path_662" data-name="Path 662" d="M341.322,287.888c-1.973-6.005-9.25-9.7-14.1-13.6-.02.984-.057,1.973-.125,2.97-.36,5.421-4.051,19.794,3.926,21.652C337.5,300.417,343.357,294.08,341.322,287.888Z" fill="#1a1a1a"/>
            <g id="Group_332" data-name="Group 332">
              <path id="Path_663" data-name="Path 663" d="M342.768,287.49c-2.656-6.719-9.052-10.039-14.484-14.265a1.518,1.518,0,0,0-2.561,1.061c-.229,7.543-3.853,17.464,1.333,24.014,2.635,3.329,7.845,2.533,11.1.881,4.279-2.175,5.653-7.371,4.617-11.691-.451-1.881-3.344-1.083-2.892.8,1.326,5.531-3.958,11.474-9.735,8.684-2.539-1.225-2.646-5.184-2.706-7.553-.129-5.061,1.135-10.075,1.288-15.132l-2.56,1.06c4.852,3.775,11.335,6.928,13.713,12.941C340.578,290.064,343.481,289.291,342.768,287.49Z" fill="#1a1a1a"/>
            </g>
          </g>
        </g>
        <g id="Group_335" data-name="Group 335">
          <path id="Path_664" data-name="Path 664" d="M294.36,261.2a8.483,8.483,0,0,0-4.412,8.473c.252,1.889,3.256,1.913,3,0a5.613,5.613,0,0,1,2.926-5.883c1.705-.915.19-3.506-1.514-2.59Z" fill="#1a1a1a"/>
        </g>
        <g id="Group_336" data-name="Group 336">
          <path id="Path_665" data-name="Path 665" d="M294.593,284.032l1.9-.571a1.5,1.5,0,0,0-.8-2.892l-1.895.57a1.5,1.5,0,0,0,.8,2.893Z" fill="#1a1a1a"/>
        </g>
        <path id="Path_666" data-name="Path 666" d="M280.376,247.51c10.829,4,19.5-2.585,28.349-6.419,1.537,7.924,7.295,34.871,17.931,36.079,6.347.721,5.389-12.666,4.006-17.432-2.306-7.94-6.4-12.735-13.371-17.06-6.14-3.81-11.367-6.763-18.711-5.612-5.606.879-17.734,3.225-19.4,9.546" fill="#1a1a1a"/>
      </g>
      <g id="Group_338" data-name="Group 338">
        <path id="Path_667" data-name="Path 667" d="M281.165,312.174c.284-6.566.447-13.085-.747-19.576-.709-3.849-1.608-8.074-5.491-9.523-8.668-3.235-11.3,3.427-11.649,10.942-.439,9.5-.065,18.272,2.959,27.387.918,2.764,5.638,17.193,10.859,13.375,1.545-1.129.051-3.735-1.513-2.59-1.8,1.317-7.171-13.8-7.546-15.079-1.806-6.139-1.827-11.851-1.809-18.139.013-4.877-1.076-15.717,6.675-13.426,4.459,1.318,4.838,8.3,5.253,12.221a97.456,97.456,0,0,1,.009,14.408c-.084,1.936,2.916,1.927,3,0Z" fill="#1a1a1a"/>
      </g>
      <g id="Group_340" data-name="Group 340">
        <path id="Path_668" data-name="Path 668" d="M275.917,283.586c.874-.337-1.528-8.457-1.5-10.015.038-2.145,1.8-5.72.8-7.73-1.606-3.236-4.734,1.271-5.677,3.177-3.325,6.721-.528,15.326,7.627,16.068" fill="#fff"/>
        <g id="Group_339" data-name="Group 339">
          <path id="Path_669" data-name="Path 669" d="M276.791,284.459c2.073-2.341-.985-8.179-1.138-10.888-.143-2.526,2.3-5.892.632-8.354-.863-1.274-2.275-2.374-3.869-1.4-4.252,2.6-5.94,8.344-5.31,13.043.722,5.389,4.877,8.767,10.061,9.462,1.576.212,1.556-2.265,0-2.473a8.634,8.634,0,0,1-7.7-7.843,11.976,11.976,0,0,1,.564-4.945,11.158,11.158,0,0,1,1.288-2.654c-.014.023,2.793-4.2,2.965-.812.135,2.657-1.358,4.94-.876,7.664.206,1.16,2.052,6.984,1.637,7.452-1.053,1.19.69,2.946,1.749,1.748Z" fill="#1a1a1a"/>
        </g>
      </g>
      <g id="Group_342" data-name="Group 342">
        <path id="Path_670" data-name="Path 670" d="M317.667,293.086c15.5-1,18-.5,25.5,14.5,2,4.5,23.928,37.5-62.833,24.5-3.759-.563-1.667-10-1.667-13.667,9-3,9.334-1.333,18.667-1.333,15.333-.334,18.8-2.129,33.8-.8" fill="#feb740"/>
        <g id="Group_341" data-name="Group 341">
          <path id="Path_671" data-name="Path 671" d="M317.667,294.586c7.368-.464,14.564-1.379,19.375,5.219a73.515,73.515,0,0,1,5.9,10.668c1.881,3.765,3.391,8.134,2.208,12.339-2.276,8.1-13.967,9.68-20.82,10.368-8.458.85-17.048.374-25.494-.346-2.649-.225-5.293-.519-7.934-.824-2.269-.261-9.463.062-10.821-1.837-1.853-2.591,0-8.755.088-11.754q-.552.725-1.1,1.447c8.612-2.75,17.587-1.088,26.519-1.637,8.6-.529,16.92-1.155,25.55-.439,1.93.16,1.914-2.841,0-3-9.113-.756-17.925-.03-27.014.529-8.863.545-17.278-1.084-25.852,1.654a1.531,1.531,0,0,0-1.1,1.446c-.115,3.828-.858,7.556-.332,11.385.611,4.445,5.468,4.1,8.928,4.556,11.462,1.513,23.041,2.621,34.614,2.1,8.906-.4,21.871-1.7,26.725-10.559,2.71-4.947,1.242-10.79-.938-15.618-4.251-9.418-8.806-18.625-20.217-19.009-2.756-.093-5.532.137-8.28.31-1.921.121-1.933,3.121,0,3Z" fill="#1a1a1a"/>
        </g>
      </g>
      <g id="Group_344" data-name="Group 344">
        <path id="Path_672" data-name="Path 672" d="M280.476,318.078c-3.171-1.4-7.8.126-9.782,2.75-2.333,3.084-2.275,6.49-2.012,10.187.122,1.723.085,4.6,2.129,5.294,1.3.44,1.858-.558,2.89-1.129,1.147-.635,1.953-1.63,3.089-2.271,1.462-.826,1.035-.742,2.669-.708Z" fill="#fff"/>
        <g id="Group_343" data-name="Group 343">
          <path id="Path_673" data-name="Path 673" d="M280.8,316.885a10.093,10.093,0,0,0-9.666,1.756c-3.679,3.209-3.982,7.8-3.693,12.374.144,2.289.285,5.73,3.036,6.486,3.573.983,5.587-4.138,8.977-4.064A1.253,1.253,0,0,0,280.7,332.2q.508-7.062,1.017-14.123c.115-1.592-2.358-1.581-2.472,0q-.51,7.062-1.018,14.123l1.237-1.237a6.135,6.135,0,0,0-4.094,1.413c-.8.534-1.481,1.2-2.288,1.736-2.158,1.423-2.99-.628-3.116-2.4-.227-3.2-.373-6.261,1.108-9.216,1.614-3.219,5.9-4.326,9.079-3.222C281.658,319.794,282.3,317.4,280.8,316.885Z" fill="#1a1a1a"/>
        </g>
      </g>
      <g id="Group_345" data-name="Group 345">
        <path id="Path_674" data-name="Path 674" d="M281.4,304.086c-.29-3.5.285-9.826,4.019-11.456,1.77-.771.241-3.355-1.513-2.589-4.741,2.068-5.88,9.527-5.506,14.045.158,1.913,3.16,1.928,3,0Z" fill="#1a1a1a"/>
      </g>
      <g id="Group_346" data-name="Group 346">
        <path id="Path_675" data-name="Path 675" d="M322.72,305.984a74.387,74.387,0,0,0,2.5,9.75c.567,1.844,3.463,1.057,2.893-.8a74.469,74.469,0,0,1-2.5-9.75c-.314-1.9-3.2-1.1-2.893.8Z" fill="#1a1a1a"/>
      </g>
      <g id="Group_347" data-name="Group 347">
        <path id="Path_676" data-name="Path 676" d="M294.72,296.187c-1.326,3.571-.667,9.455,3.638,10.633a5.862,5.862,0,0,0,6-2.446c1.395-2.178,1.349-4.8,1.555-7.288.158-1.93-2.843-1.915-3,0-.192,2.324-.186,7.82-4.049,6.762-2.387-.653-1.852-5.256-1.255-6.864.675-1.817-2.226-2.594-2.893-.8Z" fill="#1a1a1a"/>
      </g>
    </g>
    <g id="Group_351" data-name="Group 351">
      <g id="Group_350" data-name="Group 350">
        <g id="Group_349" data-name="Group 349">
          <path id="Path_677" data-name="Path 677" d="M375.79,444.977c-.423-3.694-15.94-5.019-24.789-4.792a121.5,121.5,0,0,0,20.2-10.206c1.111-.705,2.3-1.581,2.194-2.643-.173-1.767-3.462-2.272-5.907-2.084a26.635,26.635,0,0,0-11.087,2.966,10.12,10.12,0,0,0-4.525,4.846,54.108,54.108,0,0,0-.149-12.787,23.91,23.91,0,0,0-3.887-11.11c-.959-1.344-2.666-2.778-4.725-2.484-2.858.409-2.84,3.341-2.105,5.371,1.58,4.356,4.572,15.542,6.152,19.9-2.477-2.136-6.748-10.874-9.9-12.484-2.372-1.208-8.926-4.991-7.812-.434s8.094,9.915,13.534,14.1a80.265,80.265,0,0,0-12.907-4.946c-2.919-.846-6.4-1.511-9.072-.317a2.159,2.159,0,0,0-1.323,1.208c-.18.741.573,1.414,1.3,1.952a46.659,46.659,0,0,0,14.862,7.135,63.155,63.155,0,0,0-18.145,9.475c-1.551,1.189-3.11,2.76-2.419,4.314.9,2.036,4.789,2.294,7.679,1.8,6.065-1.043,11.545-3.757,15.064-7.461a49.951,49.951,0,0,0-1.681,20.116,3.124,3.124,0,0,0,1.534,2.718,4.37,4.37,0,0,0,4.082-.468,6.341,6.341,0,0,0,2.061-2.824,56,56,0,0,0,4.72-17.219c2.276,4.736,4.577,9.511,8.16,13.809a9.572,9.572,0,0,0,3.406,2.825,5.931,5.931,0,0,0,4.929.054,3.358,3.358,0,0,0,1.484-3.848c-1.311-6.686-7.385-12.858-15.4-16.366C360.225,447.127,376.213,448.673,375.79,444.977Z" fill="#1a1a1a"/>
        </g>
      </g>
      <path id="Path_678" data-name="Path 678" d="M350.441,436.359c-.453-1.6-1.18-4.063-3.445-4-7.6.214-8.016,6.344-7.915,9.293.075,2.2,1.11,4.775,4.01,5.487a6.9,6.9,0,0,0,6.3-1.844C350.747,443.836,350.8,437.638,350.441,436.359Z" fill="#feb740"/>
    </g>
    <g id="Group_354" data-name="Group 354">
      <g id="Group_353" data-name="Group 353">
        <g id="Group_352" data-name="Group 352">
          <path id="Path_679" data-name="Path 679" d="M386.019,399.023c-.3-2.586-11.158-3.514-17.353-3.355a85.047,85.047,0,0,0,14.14-7.144c.778-.493,1.609-1.106,1.536-1.851-.122-1.236-2.423-1.59-4.135-1.458a18.648,18.648,0,0,0-7.761,2.077,7.087,7.087,0,0,0-3.168,3.391,37.906,37.906,0,0,0-.1-8.95,16.739,16.739,0,0,0-2.72-7.777,3.644,3.644,0,0,0-3.308-1.739c-2,.286-1.989,2.338-1.474,3.76,1.106,3.049,3.2,10.879,4.306,13.927-1.733-1.495-4.724-7.611-6.932-8.738-1.66-.846-6.248-3.494-5.468-.3s5.666,6.94,9.474,9.873a56.225,56.225,0,0,0-9.035-3.463c-2.044-.592-4.479-1.058-6.35-.221a1.515,1.515,0,0,0-.927.845c-.126.519.4.989.91,1.366a32.662,32.662,0,0,0,10.4,4.995,44.227,44.227,0,0,0-12.7,6.632c-1.085.833-2.177,1.933-1.693,3.021.634,1.424,3.353,1.605,5.375,1.258a19.193,19.193,0,0,0,10.545-5.223,34.962,34.962,0,0,0-1.176,14.081,2.186,2.186,0,0,0,1.073,1.9,3.059,3.059,0,0,0,2.858-.328,4.442,4.442,0,0,0,1.443-1.976,39.207,39.207,0,0,0,3.3-12.053,44.65,44.65,0,0,0,5.713,9.666,6.674,6.674,0,0,0,2.383,1.977,4.152,4.152,0,0,0,3.451.038,2.351,2.351,0,0,0,1.039-2.694c-.918-4.68-5.17-9-10.783-11.455C375.124,400.528,386.315,401.61,386.019,399.023Z" fill="#1a1a1a"/>
        </g>
      </g>
      <path id="Path_680" data-name="Path 680" d="M368.275,392.99c-.317-1.119-.826-2.844-2.413-2.8-5.32.15-5.61,4.44-5.54,6.505a3.821,3.821,0,0,0,2.807,3.842,4.837,4.837,0,0,0,4.41-1.291C368.489,398.224,368.528,393.885,368.275,392.99Z" fill="#feb740"/>
    </g>
    <g id="Group_359" data-name="Group 359">
      <g id="Group_355" data-name="Group 355">
        <path id="Path_681" data-name="Path 681" d="M380.419,468.8c9.709-43.03,10.3-89.716,31.961-129.183l-1.368.358c16.551,8.229,5.622,23.164,2.635,36.071-1.422,6.146,1.821,11,4.459,16.295,2.028,4.076,2.646,10.214-1.378,13.259-1.613,1.221-3.227,2.42-3.938,4.418-1.732,4.87-2.717,9.919-4.4,14.773-2.111,6.089-10.585,8.709-15.374,12.137-9.88,7.075-11.229,19.587-14.4,30.436a1,1,0,0,0,1.928.531c1.985-6.792,3.228-14.008,6.186-20.469,3.319-7.25,10.131-10.39,16.485-14.469,3.747-2.406,6.52-5.162,7.673-9.52.7-2.647,1.212-5.317,2.03-7.937a16.92,16.92,0,0,1,5.639-8.8c3.882-3.373,3.791-9.745,1.823-14.143s-4.959-8.383-5.192-13.358c-.15-3.2,1.55-6.892,2.623-9.832,2.15-5.895,4.828-11.849,4.486-18.26-.331-6.222-5.075-10.276-10.277-12.861a1.015,1.015,0,0,0-1.369.358c-21.763,39.65-22.409,86.437-32.163,129.662-.283,1.256,1.645,1.789,1.929.531Z" fill="#fff"/>
      </g>
      <g id="Group_356" data-name="Group 356">
        <path id="Path_682" data-name="Path 682" d="M389.568,424.161c8-5.571,16.4-12.039,25.8-14.991,1.226-.384.7-2.315-.532-1.927-9.6,3.012-18.117,9.506-26.279,15.191-1.05.732-.052,2.466,1.01,1.727Z" fill="#fff"/>
      </g>
      <g id="Group_357" data-name="Group 357">
        <path id="Path_683" data-name="Path 683" d="M390.853,402.039c8.877-3.565,16.168-11.246,25.432-13.808a1,1,0,0,0-.532-1.928c-9.31,2.574-16.539,10.237-25.432,13.808-1.181.473-.666,2.409.532,1.928Z" fill="#fff"/>
      </g>
      <g id="Group_358" data-name="Group 358">
        <path id="Path_684" data-name="Path 684" d="M397.435,376.788a134.378,134.378,0,0,1,22.36-13.474c1.166-.55.15-2.274-1.009-1.727a134.451,134.451,0,0,0-22.361,13.474c-1.024.758-.028,2.495,1.01,1.727Z" fill="#fff"/>
      </g>
    </g>
    <g id="Group_363" data-name="Group 363">
      <g id="Group_360" data-name="Group 360">
        <path id="Path_685" data-name="Path 685" d="M384.29,454.672c14.215-7.3,25.6-19.573,38.029-29.4,7.162-5.665,14.852-10.906,23.435-14.152a38.306,38.306,0,0,1,11.5-2.392c3.107-.169,3.931-.1,4.23,3.261a26.559,26.559,0,0,1-.476,7.855c-1.392,6.6-6.966,9.189-13.119,8.818-2.51-.152-5.816.315-7.778,2.081a34.872,34.872,0,0,0-5.475,5.482c-1.381,1.941-2.3,3.566-4.377,4.9-3.252,2.1-7.111.973-10.636.849a7.6,7.6,0,0,0-6.327,3.494c-2.914,4.358-7.952,5.174-12.813,5.318-6.7.2-10.539,2.2-14.763,7.6-.785,1,.619,2.429,1.414,1.414,3.162-4.041,6.318-6.757,11.6-6.975a34.768,34.768,0,0,0,10.458-1.558c4.848-1.687,6.442-7.432,11.984-7.237,5.172.18,9.058.572,12.88-3.438a21.975,21.975,0,0,0,2.309-3.358c1.275-1.977,3.229-3.155,4.848-4.8,3.608-3.654,9.373-.378,13.57-2.2,9.052-3.934,9.391-14.165,8.195-22.586a1,1,0,0,0-.964-.734c-15.041-1.477-28.639,7.215-40,16.077-12.732,9.928-24.253,22.515-38.73,29.952-1.148.589-.135,2.314,1.01,1.726Z" fill="#fff"/>
      </g>
      <g id="Group_361" data-name="Group 361">
        <path id="Path_686" data-name="Path 686" d="M405.529,439.227c5.817-1.535,10.772,3.8,16.269,4.846,1.261.239,1.8-1.688.533-1.928-5.993-1.138-10.885-6.549-17.334-4.846a1,1,0,0,0,.532,1.928Z" fill="#fff"/>
      </g>
      <g id="Group_362" data-name="Group 362">
        <path id="Path_687" data-name="Path 687" d="M423.521,424.328c7.181-.5,13.348,6.15,20.519,6.629,1.288.086,1.279-1.914,0-2-7.172-.479-13.216-7.137-20.519-6.629-1.279.089-1.288,2.09,0,2Z" fill="#fff"/>
      </g>
    </g>
    <g id="Group_364" data-name="Group 364">
      <path id="Path_688" data-name="Path 688" d="M404.667,529.838a1,1,0,0,0,0-2,1,1,0,0,0,0,2Z" fill="#efca34"/>
    </g>
    <g id="Group_377" data-name="Group 377">
      <g id="Group_365" data-name="Group 365">
        <path id="Path_689" data-name="Path 689" d="M225.956,236.488c4.024,2.329,5.308,7.715,6.261,11.918,1.479,6.516,1.8,13.312,1.981,19.97.307,11.106-.416,22.182-.988,33.265-.066,1.289,1.934,1.283,2,0,.631-12.229,1.361-24.43.873-36.683-.348-8.721-.261-25.071-9.117-30.2a1,1,0,0,0-1.01,1.727Z" fill="#1a1a1a"/>
      </g>
      <g id="Group_376" data-name="Group 376">
        <g id="Group_367" data-name="Group 367">
          <path id="Path_690" data-name="Path 690" d="M226.962,239.166c-5.247,18.124-33.789,2.334-23.153-1.34-7.56-2.748-6.112-10.55,2.094-9.833-4.477-4.867.225-9.911,5.917-7.241-2.616-9.093,4.127-9.186,9.576-5.216,4.882,4.134,9.125,14.606,5.317,20.625" fill="#fff"/>
          <g id="Group_366" data-name="Group 366">
            <path id="Path_691" data-name="Path 691" d="M226,238.9c-2.217,6.841-8.274,8.774-14.837,7.234-1.867-.437-12.546-5.2-7.087-7.344.693-.272,1.133-1.446.24-1.828-2.079-.887-4.2-2.063-4.445-4.6-.3-3.147,4.032-3.431,6.034-3.365a1.011,1.011,0,0,0,.707-1.707c-5-6.419,2.246-6.578,4.944-5.569.749.28,1.4-.548,1.23-1.23-2.437-9.948,7.264-5.834,10.678-1.093,3.211,4.459,5.144,11.188,2.388,16.262-.616,1.134,1.111,2.143,1.727,1.01,3.949-7.271.013-18.133-6.6-22.617-2.484-1.686-5.714-2.633-8.544-1.384-3.055,1.346-2.168,5.961-1.582,8.353l1.229-1.23c-6.717-2.511-11.37,3.156-6.889,8.912q.354-.854.707-1.707c-8.674-.286-10.611,8.276-2.6,11.7q.118-.913.239-1.828c-7.168,2.815.295,8.723,4.221,10.255,8.238,3.215,17.211,1.424,20.163-7.685.4-1.23-1.533-1.753-1.929-.531Z" fill="#1a1a1a"/>
          </g>
        </g>
        <g id="Group_369" data-name="Group 369">
          <path id="Path_692" data-name="Path 692" d="M227.412,225.739c-2.278,3.406-10.023,22.532-6.185,22.215C237.121,245.952,229.69,222.332,227.412,225.739Z" fill="#fff"/>
          <g id="Group_368" data-name="Group 368">
            <path id="Path_693" data-name="Path 693" d="M226.548,225.234a56.97,56.97,0,0,0-7.136,18.784c-1.179,6.117,4.012,5.76,7.989,2.6,4.749-3.77,5.293-10.167,4.289-15.757-.23-1.285-2.4-8.948-4.985-5.832-.819.984.589,2.406,1.414,1.414-.02.024,1.944,7.033,2,8.022.266,4.506-1.133,9.064-5.233,11.386-2.228,1.262-3.992,1.54-3.549-1.3a39.963,39.963,0,0,1,1.8-6.486,55.136,55.136,0,0,1,5.134-11.82C228.966,225.149,227.235,224.147,226.548,225.234Z" fill="#1a1a1a"/>
          </g>
        </g>
        <g id="Group_371" data-name="Group 371">
          <path id="Path_694" data-name="Path 694" d="M212.981,239.719c2.484.345,4.792,1.005,7.135.861" fill="#fff"/>
          <g id="Group_370" data-name="Group 370">
            <path id="Path_695" data-name="Path 695" d="M212.716,240.684a40.352,40.352,0,0,0,7.4.9c1.285-.049,1.29-2.049,0-2a37.381,37.381,0,0,1-6.869-.825c-1.261-.187-1.8,1.741-.531,1.929Z" fill="#1a1a1a"/>
          </g>
        </g>
        <g id="Group_373" data-name="Group 373">
          <path id="Path_696" data-name="Path 696" d="M217.619,232.824q1.89,1.045,3.779,2.091" fill="#fff"/>
          <g id="Group_372" data-name="Group 372">
            <path id="Path_697" data-name="Path 697" d="M217.114,233.687l3.78,2.091c1.129.625,2.138-1.1,1.009-1.727l-3.779-2.09c-1.129-.625-2.138,1.1-1.01,1.726Z" fill="#1a1a1a"/>
          </g>
        </g>
        <g id="Group_375" data-name="Group 375">
          <path id="Path_698" data-name="Path 698" d="M218.789,222.158c2.556,2.443,4.031,5.726,5.26,9.081" fill="#fff"/>
          <g id="Group_374" data-name="Group 374">
            <path id="Path_699" data-name="Path 699" d="M218.082,222.865a23.077,23.077,0,0,1,5,8.639c.445,1.2,2.378.681,1.929-.531-1.3-3.494-2.845-6.858-5.518-9.522a1,1,0,0,0-1.414,1.414Z" fill="#1a1a1a"/>
          </g>
        </g>
      </g>
    </g>
    <g id="Group_382" data-name="Group 382">
      <g id="Group_379" data-name="Group 379">
        <path id="Path_700" data-name="Path 700" d="M240.331,282.479c-.379-9.771,9.378-16.8,18.386-14.363-1.263,6.909-9.423,19.2-17.108,14.1" fill="#fff"/>
        <g id="Group_378" data-name="Group 378">
          <path id="Path_701" data-name="Path 701" d="M241.331,282.479a13.8,13.8,0,0,1,17.121-13.4l-.7-1.23c-1.284,6.121-7.92,18.067-15.639,13.507a1,1,0,0,0-1.01,1.726c9.041,5.34,17-7.2,18.578-14.7a1.012,1.012,0,0,0-.7-1.229,15.836,15.836,0,0,0-19.652,15.327,1,1,0,0,0,2,0Z" fill="#1a1a1a"/>
        </g>
      </g>
      <g id="Group_381" data-name="Group 381">
        <path id="Path_702" data-name="Path 702" d="M257.189,269.133c-6.593,6.5-14.3,12.017-21.362,17.7" fill="#fff"/>
        <g id="Group_380" data-name="Group 380">
          <path id="Path_703" data-name="Path 703" d="M256.482,268.426c-6.657,6.454-14.135,11.921-21.362,17.7-1.008.806.417,2.211,1.414,1.415,7.227-5.782,14.705-11.249,21.363-17.7.927-.9-.489-2.311-1.415-1.414Z" fill="#1a1a1a"/>
        </g>
      </g>
    </g>
    <g id="Group_387" data-name="Group 387">
      <g id="Group_384" data-name="Group 384">
        <path id="Path_704" data-name="Path 704" d="M229.052,269.687c-9.384,2.747-18.579-5-18.411-14.333,7.01-.458,20.921,4.461,17.849,13.156" fill="#fff"/>
        <g id="Group_383" data-name="Group 383">
          <path id="Path_705" data-name="Path 705" d="M228.787,268.723a13.81,13.81,0,0,1-17.146-13.369l-1,1c6.236-.26,19.461,3.318,16.884,11.891a1,1,0,0,0,1.929.531c3.023-10.059-11.2-14.739-18.813-14.422a1.011,1.011,0,0,0-1,1,15.843,15.843,0,0,0,19.677,15.3,1,1,0,0,0-.531-1.928Z" fill="#1a1a1a"/>
        </g>
      </g>
      <g id="Group_386" data-name="Group 386">
        <path id="Path_706" data-name="Path 706" d="M212,256.587c7.914,4.81,15.139,10.941,22.374,16.407" fill="#fff"/>
        <g id="Group_385" data-name="Group 385">
          <path id="Path_707" data-name="Path 707" d="M211.495,257.451c7.879,4.887,15.007,10.8,22.374,16.406,1.027.781,2.022-.957,1.009-1.727-7.367-5.6-14.493-11.517-22.374-16.406-1.1-.682-2.1,1.049-1.009,1.727Z" fill="#1a1a1a"/>
        </g>
      </g>
    </g>
    <g id="Group_394" data-name="Group 394">
      <g id="Group_391" data-name="Group 391">
        <g id="Group_390" data-name="Group 390">
          <g id="Group_389" data-name="Group 389">
            <path id="Path_708" data-name="Path 708" d="M240.241,301.725c-7.546,0-17.46-1.262-25.056.979.39,2.044.585,4.085.776,6.13,1.067,6.258,2.668,12.225,4.269,18.2.534,2.275,1.067,8.532,2.668,10.236,2.936,3.127,12.806,1.989,16.809,0,7.2-3.7,9.6-21.039,11.205-27.867C253.047,299.735,248.778,301.725,240.241,301.725Z" fill="#fff"/>
            <g id="Group_388" data-name="Group 388">
              <path id="Path_709" data-name="Path 709" d="M240.241,300.925c-8.441-.08-16.993-1.162-25.269,1.007a.816.816,0,0,0-.558.985c1.287,7.625,2.57,15.03,4.565,22.535.883,3.324.559,9.994,3.354,12.38,5.442,4.652,17.04,2.331,21.258-3.005,5.412-6.846,6.227-16.994,8.093-25.214.494-2.178,1.44-6.118-.743-7.781-2.747-2.091-7.546-.94-10.7-.907a.8.8,0,0,0,0,1.6c2.744-.029,9.9-1.648,10.4,2.365.445,3.568-1.341,8.335-2.093,11.841a67.547,67.547,0,0,1-4.094,13.47c-2.093,4.682-5.1,6.831-10.042,7.806a22.244,22.244,0,0,1-8,.087c-3.334-.572-3.9-3.183-4.478-5.943-1.141-5.413-2.419-10.75-3.7-16.141a82.75,82.75,0,0,1-1.787-10.242c-.422-3.873,3.07-3.231,6.394-3.484,5.78-.44,11.615.186,17.4.241A.8.8,0,0,0,240.241,300.925Z" fill="#1a1a1a"/>
            </g>
          </g>
        </g>
      </g>
      <g id="Group_393" data-name="Group 393">
        <path id="Path_710" data-name="Path 710" d="M217.664,309.116c11.264,0,20.861,2.13,32.125,1.618" fill="#fff"/>
        <g id="Group_392" data-name="Group 392">
          <path id="Path_711" data-name="Path 711" d="M217.664,309.916c10.741.109,21.37,1.974,32.125,1.618,1.028-.035,1.032-1.634,0-1.6-10.755.356-21.384-1.51-32.125-1.618a.8.8,0,0,0,0,1.6Z" fill="#1a1a1a"/>
        </g>
      </g>
    </g>
    <g id="Group_407" data-name="Group 407">
      <g id="Group_396" data-name="Group 396">
        <path id="Path_712" data-name="Path 712" d="M374.312,461.393c0,14.081-1.9,18.981-9.526,30-6.353,9.792-6.353,17.753-3.811,30,1.9,12.243,4.505,12.186,18.48,12.186a160.585,160.585,0,0,0,24.078-2.39c9.527-1.837,6.352-7.347,6.352-18.369,0-13.466-2.542-15.915-10.163-25.712-4.447-5.51-.636-17.754-5.717-22.65-3.812-4.286-13.339-1.838-19.693-3.673" fill="#feb740"/>
        <g id="Group_395" data-name="Group 395">
          <path id="Path_713" data-name="Path 713" d="M373.312,461.393c-.03,5.2-.254,10.337-1.7,15.356-1.49,5.169-4.682,9.757-7.688,14.14-6.478,9.447-6.071,20.011-3.912,30.768,1.3,6.454,2.458,11.611,9.737,12.61,9.514,1.306,19.746-.031,29.183-1.321,7.8-1.067,12.772-2.629,12.408-11.222-.373-8.8.4-18.362-4.188-26.232-2.5-4.3-6.921-7.816-8.278-12.654s-.51-10.054-1.784-14.941c-2.548-9.779-15.328-6.342-22.51-8.078-1.253-.3-1.785,1.625-.532,1.928,3.639.88,7.344.83,11.066.954,7.036.232,10.145,3.383,10.82,10.256.381,3.881.262,7.743,1.324,11.528,1,3.554,4.293,6.5,6.406,9.383,5.251,7.157,4.914,14.654,5.36,23.156.176,3.356,1.427,8.235-.914,11.1-2.5,3.056-10.212,2.989-13.673,3.4-8.129.973-16.86,1.816-25.019.7-8.26-1.134-8.338-14.15-8.909-20.418-1.037-11.395,5.115-18.709,10.284-28.056,3.836-6.938,4.477-14.569,4.521-22.353a1,1,0,0,0-2,0Z" fill="#fff"/>
        </g>
      </g>
      <g id="Group_397" data-name="Group 397">
        <path id="Path_714" data-name="Path 714" d="M373.932,472.8c7.379-2.673,15.365-1.968,23-3.334,1.269-.226.73-2.153-.531-1.927-7.642,1.366-15.608.655-23,3.333-1.2.436-.684,2.369.531,1.928Z" fill="#fff"/>
      </g>
      <g id="Group_401" data-name="Group 401">
        <g id="Group_399" data-name="Group 399">
          <path id="Path_715" data-name="Path 715" d="M385.252,522.907c-1.631,11.425,20.854,13.059,29.833,8.977l6.079-8.977C415.452,511.482,388.517,504.953,385.252,522.907Z" fill="#fff"/>
          <g id="Group_398" data-name="Group 398">
            <path id="Path_716" data-name="Path 716" d="M384.252,522.907c-.9,9.984,12.12,11.942,19.471,12.006,2.68.023,10.494.033,12.225-2.524q3.041-4.488,6.079-8.977a1,1,0,0,0,0-1.01c-7.153-13.193-33.877-17.778-37.739.239-.269,1.258,1.658,1.792,1.929.531,1.919-8.957,10-11.417,18.216-9.956,3.609.642,17.71,6.466,15.016,10.443q-2.363,3.491-4.727,6.98c-1.345,1.987-6.642,2.046-8.846,2.206-6.5.471-20.46-.648-19.624-9.938C386.368,521.622,384.367,521.633,384.252,522.907Z" fill="#feb740"/>
          </g>
        </g>
        <g id="Group_400" data-name="Group 400">
          <path id="Path_717" data-name="Path 717" d="M394.96,526.545c1.035,1.036,2.156,2.208,3.707,2.293,1.289.071,1.282-1.929,0-2-.885-.047-1.72-1.134-2.293-1.707a1,1,0,0,0-1.414,1.414Z" fill="#feb740"/>
        </g>
      </g>
      <g id="Group_406" data-name="Group 406">
        <path id="Path_718" data-name="Path 718" d="M493.352,528.42C464,479.969,389.71,537.414,417.14,548.543s45.008-2,57.06-2.916C487.056,544.707,502.552,543.606,493.352,528.42Z" fill="#feb740"/>
        <g id="Group_402" data-name="Group 402">
          <path id="Path_719" data-name="Path 719" d="M454.941,524.979a.991.991,0,0,0,0-1.98.991.991,0,0,0,0,1.98Z" fill="#fff"/>
        </g>
        <g id="Group_403" data-name="Group 403">
          <path id="Path_720" data-name="Path 720" d="M447.069,526.04a.991.991,0,0,0,0-1.981.991.991,0,0,0,0,1.981Z" fill="#fff"/>
        </g>
        <g id="Group_404" data-name="Group 404">
          <path id="Path_721" data-name="Path 721" d="M453.956,524.987c6.8-.053,13.888-.2,20.211,2.674,1.153.523,2.16-1.182,1-1.709-6.68-3.035-14.009-3-21.21-2.944a.99.99,0,0,0,0,1.979Z" fill="#fff"/>
        </g>
        <g id="Group_405" data-name="Group 405">
          <path id="Path_722" data-name="Path 722" d="M418.743,538.709a6.552,6.552,0,0,0,5.8,3.432.989.989,0,0,0,0-1.978,4.555,4.555,0,0,1-4.1-2.454c-.607-1.123-2.316-.123-1.709,1Z" fill="#fff"/>
        </g>
      </g>
    </g>
    <g id="Group_408" data-name="Group 408">
      <path id="Path_723" data-name="Path 723" d="M324.667,402.838a1,1,0,0,0,0-2,1,1,0,0,0,0,2Z" fill="#fff"/>
    </g>
    <g id="Group_409" data-name="Group 409">
      <path id="Path_724" data-name="Path 724" d="M330.667,405.338c3.224,0,3.224-5,0-5s-3.225,5,0,5Z" fill="#fff"/>
    </g>
    <g id="Group_410" data-name="Group 410">
      <path id="Path_725" data-name="Path 725" d="M370.667,421.338c3.224,0,3.224-5,0-5s-3.225,5,0,5Z" fill="#fff"/>
    </g>
    <g id="Group_411" data-name="Group 411">
      <path id="Path_726" data-name="Path 726" d="M428.667,394.338c3.224,0,3.224-5,0-5s-3.225,5,0,5Z" fill="#fff"/>
    </g>
    <g id="Group_412" data-name="Group 412">
      <path id="Path_727" data-name="Path 727" d="M430.667,410.838c5.159,0,5.159-8,0-8s-5.16,8,0,8Z" fill="#fff"/>
    </g>
    <g id="Group_413" data-name="Group 413">
      <path id="Path_728" data-name="Path 728" d="M379.667,378.338c3.224,0,3.224-5,0-5s-3.225,5,0,5Z" fill="#fff"/>
    </g>
    <g id="Group_414" data-name="Group 414">
      <path id="Path_729" data-name="Path 729" d="M339.667,396.338c3.224,0,3.224-5,0-5s-3.225,5,0,5Z" fill="#fff"/>
    </g>
    <g id="Group_415" data-name="Group 415">
      <path id="Path_730" data-name="Path 730" d="M314.667,413.338a1.5,1.5,0,0,0,0-3,1.5,1.5,0,0,0,0,3Z" fill="#fff"/>
    </g>
    <g id="Group_416" data-name="Group 416">
      <path id="Path_731" data-name="Path 731" d="M296.149,550.06c-17.18,2.941-34.949,3.023-52.333,3.2-10.962.112-21.937.062-32.9-.236a1,1,0,0,0,0,2c10.961.3,21.934.332,32.9.236,17.566-.155,35.505-.3,52.864-3.272,1.27-.217.73-2.145-.531-1.928Z" fill="#feb740"/>
    </g>
    <g id="Group_417" data-name="Group 417">
      <path id="Path_732" data-name="Path 732" d="M233.916,546.025c-48.211-2.232-96.891-.3-144.991,3.5-1.277.1-1.286,2.1,0,2,48.1-3.8,96.78-5.732,144.991-3.5,1.29.059,1.284-1.941,0-2Z" fill="#feb740"/>
    </g>
    <g id="Group_418" data-name="Group 418">
      <path id="Path_733" data-name="Path 733" d="M392.147,531.31c-26.342,2.374-53.228,1.179-79.641,1.189-15.325.006-30.651.009-45.975.232-10.193.148-20.575.058-30.7,1.362-1.261.162-1.277,2.164,0,2,9.8-1.261,19.833-1.187,29.693-1.346,15.66-.254,31.325-.241,46.986-.248,26.413-.011,53.3,1.185,79.641-1.189,1.274-.115,1.285-2.116,0-2Z" fill="#feb740"/>
    </g>
    <g id="Group_423" data-name="Group 423">
      <g id="Group_420" data-name="Group 420">
        <path id="Path_734" data-name="Path 734" d="M347.994,534.237c-7.5-19.5-47.919,5.934-33.327,16.62S355.494,552.236,347.994,534.237Z" fill="#feb740"/>
        <g id="Group_419" data-name="Group 419">
          <path id="Path_735" data-name="Path 735" d="M348.958,533.971c-3.769-8.95-13.4-8.947-21.39-5.987-7,2.592-16.608,8.814-17.051,17.155C309.978,555.3,327.1,556.954,333.867,556c11.137-1.561,19.374-10.816,15.091-22.033-.456-1.192-2.39-.676-1.929.531,9.7,25.4-37.286,23.386-34.317,9.154,2.441-11.7,28.391-23.226,34.317-9.154C347.522,535.672,349.459,535.159,348.958,533.971Z" fill="#feb740"/>
        </g>
      </g>
      <g id="Group_421" data-name="Group 421">
        <path id="Path_736" data-name="Path 736" d="M318.162,546.7a15.932,15.932,0,0,0,6.505,2.136c1.29.045,1.286-1.955,0-2a13.6,13.6,0,0,1-5.5-1.863c-1.15-.574-2.163,1.15-1.009,1.727Z" fill="#fff"/>
      </g>
      <g id="Group_422" data-name="Group 422">
        <path id="Path_737" data-name="Path 737" d="M336.667,545.838a1,1,0,0,0,0-2,1,1,0,0,0,0,2Z" fill="#fff"/>
      </g>
    </g>
    <g id="Group_424" data-name="Group 424">
      <path id="Path_738" data-name="Path 738" d="M387.667,26.838v5c0,1,2,1,2,0v-5c0-1-2-1-2,0Z" fill="#fac658"/>
    </g>
    <g id="Group_425" data-name="Group 425">
      <path id="Path_739" data-name="Path 739" d="M391.759,54.769a58.219,58.219,0,0,0,6.382,8.5c.9.926,2.313-.489,1.414-1.414a55.442,55.442,0,0,1-6.069-8.1c-.712-1.067-2.444-.067-1.727,1.01Z" fill="#fac658"/>
    </g>
    <g id="Group_426" data-name="Group 426">
      <path id="Path_740" data-name="Path 740" d="M408.518,78.837c.182.183.364.365.54.552.051.054.1.11.149.166-.122-.139.031.06.045.084-.144-.246.023.091,0-.168a3.357,3.357,0,0,1,.011.367c0,2,2,2,2,0a3.871,3.871,0,0,0-.25-1.324,4.911,4.911,0,0,0-1.081-1.182c-.912-.914-2.326.592-1.414,1.5Z" fill="#fac658"/>
    </g>
    <g id="Group_427" data-name="Group 427">
      <path id="Path_741" data-name="Path 741" d="M42.928,200.538a1,1,0,0,0,0-2,1,1,0,0,0,0,2Z" fill="#fff"/>
    </g>
    <g id="Group_428" data-name="Group 428">
      <path id="Path_742" data-name="Path 742" d="M24.425,237.426c-1.059,1.984-3.086,3.194-4.151,5.189-.607,1.137,1.119,2.147,1.727,1.009,1.059-1.983,3.085-3.193,4.15-5.188.608-1.137-1.119-2.147-1.726-1.01Z" fill="#fff"/>
    </g>
    <g id="Group_429" data-name="Group 429">
      <path id="Path_743" data-name="Path 743" d="M33.667,365.838v2c0,1,2,1,2,0v-2c0-1-2-1-2,0Z" fill="#fac658"/>
    </g>
    <g id="Group_430" data-name="Group 430">
      <path id="Path_744" data-name="Path 744" d="M26.866,359.94a24.19,24.19,0,0,0-6.484,10.818,1,1,0,0,0,1.929.532,22.115,22.115,0,0,1,5.969-9.936c.9-.92-.509-2.335-1.414-1.414Z" fill="#fac658"/>
    </g>
    <g id="Group_431" data-name="Group 431">
      <path id="Path_745" data-name="Path 745" d="M94.812,217.174a1,1,0,0,0,0-2,1,1,0,0,0,0,2Z" fill="#fff"/>
    </g>
    <g id="Group_432" data-name="Group 432">
      <path id="Path_746" data-name="Path 746" d="M96.18,223.108l1.038,1.037a1,1,0,0,0,1.414-1.414l-1.038-1.037a1,1,0,0,0-1.414,1.414Z" fill="#fff"/>
    </g>
    <g id="Group_433" data-name="Group 433">
      <path id="Path_747" data-name="Path 747" d="M97.925,234.815a1,1,0,0,0,0-2,1,1,0,0,0,0,2Z" fill="#fff"/>
    </g>
    <g id="Group_435" data-name="Group 435">
      <path id="Path_748" data-name="Path 748" d="M243.645,245.067c1-7,2.76-14.82,10.94-16.08.88,2.34.52,5.36-.18,7.761,29.48-2.86-16.781,28.959-10.2,6.4" fill="#fff"/>
      <g id="Group_434" data-name="Group 434">
        <path id="Path_749" data-name="Path 749" d="M244.609,245.332c.973-6.633,2.634-13.945,10.242-15.381l-1.23-.7a12.867,12.867,0,0,1-.181,7.23,1.008,1.008,0,0,0,.965,1.266c1.509-.136,9.428-1.1,8.9,2.169-.457,2.823-3.92,5.2-6.077,6.664-2.725,1.843-6.072,3.6-9.431,3.7-4.007.118-3.38-4.164-2.625-6.87a1,1,0,0,0-1.929-.532c-.966,3.461-1.331,8.444,3.2,9.291,4.153.777,8.828-1.856,12.118-4.083,2.721-1.841,6.69-4.874,6.766-8.527.1-4.825-8.121-4.065-10.919-3.813l.964,1.265a14.883,14.883,0,0,0,.181-8.292,1.021,1.021,0,0,0-1.23-.7c-8.319,1.569-10.557,9.4-11.64,16.778-.185,1.261,1.742,1.8,1.929.531Z" fill="#1a1a1a"/>
      </g>
    </g>
    <g id="Group_437" data-name="Group 437">
      <path id="Path_750" data-name="Path 750" d="M244.285,241.086c3.219,1.459,6.9,6.085,7.5,9.386" fill="#fff"/>
      <g id="Group_436" data-name="Group 436">
        <path id="Path_751" data-name="Path 751" d="M243.78,241.95a13.794,13.794,0,0,1,7.042,8.788c.273,1.261,2.2.725,1.929-.531a15.712,15.712,0,0,0-7.961-9.984c-1.154-.566-2.168,1.159-1.01,1.727Z" fill="#1a1a1a"/>
      </g>
    </g>
    <g id="Group_438" data-name="Group 438">
      <path id="Path_752" data-name="Path 752" d="M243.46,248.631c-3.954,3.629-6.07,8.445-7.758,13.442-.413,1.225,1.519,1.746,1.929.531,1.582-4.687,3.535-9.154,7.243-12.559.952-.874-.467-2.284-1.414-1.414Z" fill="#1a1a1a"/>
    </g>
    <g id="Group_439" data-name="Group 439">
      <path id="Path_753" data-name="Path 753" d="M249.777,245c.845-1.334,1.78-2.613,2.746-3.86.779-1.006-.625-2.432-1.414-1.414-1.071,1.382-2.123,2.785-3.058,4.264-.693,1.093,1.039,2.1,1.726,1.01Z" fill="#1a1a1a"/>
    </g>
    <path id="Path_754" data-name="Path 754" d="M239.413,318.707c-1.4-3.074-5.746-2.267-6.746.736v-.013c-7-8.159-8.7,6.529.366,9.249C235.451,326.867,240.923,322.333,239.413,318.707Z" fill="#1a1a1a"/>
    <g id="Group_441" data-name="Group 441">
      <path id="Path_755" data-name="Path 755" d="M296.121,217.887c5.295,5.3,18.236-3.175,11.176-12S291.414,212,296.121,217.887Z" fill="#fac658"/>
      <g id="Group_440" data-name="Group 440">
        <path id="Path_756" data-name="Path 756" d="M295.06,218.948c3.706,3.413,9,2.13,12.525-.864,4.572-3.88,3.832-10.072,0-14.127-7.873-8.325-18.146,7.386-12.756,14.687,1.136,1.539,3.741.045,2.591-1.514-3.011-4.078,1.4-15.288,7.166-11.79a6.6,6.6,0,0,1,1.57,9.945c-2.082,2.389-6.357,3.949-8.971,1.542C295.761,215.519,293.634,217.635,295.06,218.948Z" fill="#fff"/>
      </g>
    </g>
    <g id="Group_445" data-name="Group 445">
      <g id="Group_443" data-name="Group 443">
        <path id="Path_757" data-name="Path 757" d="M287.294,138.042c-27.064-12.944-55.306,6.473-56.483,27.654-1.177,24.124,25.3,35.891,45.893,31.772C309.064,191.584,314.359,150.987,287.294,138.042Z" fill="#feb740"/>
        <g id="Group_442" data-name="Group 442">
          <path id="Path_758" data-name="Path 758" d="M288.051,136.747c-20.1-9.154-45.349-2.67-55.733,17.7-9.229,18.109,3.114,36.333,20.389,42.682,16.734,6.151,37.505,1.869,47.893-13.21a32.674,32.674,0,0,0-4.932-42.153,33.451,33.451,0,0,0-7.617-5.023c-1.725-.861-3.245,1.727-1.513,2.591,13.734,6.851,19.734,21.842,14.858,36.346-5.519,16.415-23.782,22.857-39.721,20.6-17.665-2.5-33.5-17.14-28.385-36.111,6.006-22.287,34.234-29.5,53.248-20.835C288.284,140.133,289.81,137.548,288.051,136.747Z" fill="#fff"/>
        </g>
      </g>
      <g id="Group_444" data-name="Group 444">
        <path id="Path_759" data-name="Path 759" d="M264.148,153.954c.911-4.656,11.253-4.271,10.25,1.378-.683,3.848-4.762,4.576-7.393,6.771-3.485,2.909-3.441,7.228-2.222,11.267,1.351,4.479,8.373,2.568,7.014-1.934-.712-2.36-1.035-3.323,1.091-4.575,2.178-1.283,4.346-2.4,6-4.379,3.391-4.044,4.062-10.73.462-14.855-5.721-6.556-20.362-5.1-22.219,4.393-.9,4.582,6.115,6.535,7.014,1.934Z" fill="#1a1a1a"/>
      </g>
      <path id="Path_760" data-name="Path 760" d="M269.644,179.229c-7.04,1.945-5.3,8.825,0,10C276.116,190.408,276.684,177.284,269.644,179.229Z" fill="#1a1a1a"/>
    </g>
  </g>
</svg>
