<svg xmlns="http://www.w3.org/2000/svg" width="98.894" height="65.659" viewBox="0 0 98.894 65.659">
  <g id="Group_2869" data-name="Group 2869" transform="translate(-889 -2570.017)">
    <path id="Path_969" data-name="Path 969" d="M1609.173,620.976s-19.7.744-11.893,2.874,59.036,1.1,61.877-.888S1609.173,620.976,1609.173,620.976Z" transform="translate(-672.34 1976.544)" fill="#231f20"/>
    <g id="Group_651" data-name="Group 651" transform="translate(-672.34 1976.544)">
      <g id="Group_645" data-name="Group 645">
        <path id="Path_975" data-name="Path 975" d="M1575,604.443c4.436,2.963,10.125,3.059,15.275,3.416,7.9.548,15.962,1.092,23.793,2.277,15.632,2.367,29.335,10.931,44.827,13.79,1.258.232,1.8-1.7.532-1.928-14.94-2.757-28.175-11.072-43.179-13.559-6.976-1.156-14.046-1.409-21.067-2.173-6.252-.68-13.73.084-19.171-3.55-1.074-.717-2.076,1.015-1.01,1.727Z" fill="#1a1a1a"/>
      </g>
      <g id="Group_646" data-name="Group 646">
        <path id="Path_976" data-name="Path 976" d="M1585.854,601.615a9.135,9.135,0,0,0,6.344,5.764c1.251.3,1.785-1.631.531-1.928a7.069,7.069,0,0,1-4.947-4.368c-.456-1.19-2.39-.673-1.928.532Z" fill="#1a1a1a"/>
      </g>
      <g id="Group_647" data-name="Group 647">
        <path id="Path_977" data-name="Path 977" d="M1605.609,608.113c-6.341,2.142-8.833,8.055-10.35,14.1a1.013,1.013,0,0,0,.7,1.231c7.262,1.5,15.188-4.445,14.028-12.127-.191-1.268-2.119-.729-1.928.532.926,6.133-5.923,10.833-11.568,9.666l.7,1.23c1.325-5.283,3.331-10.807,8.953-12.706,1.213-.41.692-2.343-.532-1.929Z" fill="#1a1a1a"/>
      </g>
      <g id="Group_648" data-name="Group 648">
        <path id="Path_978" data-name="Path 978" d="M1605.674,608.44a10.216,10.216,0,0,0-1.589,4.472c-.154,1.275,1.848,1.264,2,0a8.022,8.022,0,0,1,1.316-3.463c.709-1.079-1.023-2.082-1.727-1.009Z" fill="#1a1a1a"/>
      </g>
      <g id="Group_649" data-name="Group 649">
        <path id="Path_979" data-name="Path 979" d="M1624.665,608.161c-5.839-2.329-7.286-7.686-5.986-13.444l-1.231.7c5.049.722,13.117,7.652,6.71,12.126-1.047.732-.049,2.466,1.01,1.727,7.846-5.48-.058-14.762-7.188-15.782a1.023,1.023,0,0,0-1.23.7c-1.567,6.941.483,13.151,7.384,15.9,1.195.477,1.714-1.457.531-1.929Z" fill="#1a1a1a"/>
      </g>
      <g id="Group_650" data-name="Group 650">
        <path id="Path_980" data-name="Path 980" d="M1582.947,595.647a7.2,7.2,0,0,0,.643,2.192,1.008,1.008,0,0,0,1.368.358,1.023,1.023,0,0,0,.359-1.368,4.134,4.134,0,0,1-.37-1.182,1.032,1.032,0,0,0-1-1,1.006,1.006,0,0,0-1,1Z" fill="#1a1a1a"/>
      </g>
    </g>
    <g id="Group_659" data-name="Group 659" transform="translate(-672.34 1982.528)">
      <path id="Path_987" data-name="Path 987" d="M1591.071,637.057c3.562-1.3,7.219-2.274,10.866-3.306a1,1,0,0,0-.532-1.929c-3.647,1.032-7.3,2-10.866,3.307-1.2.439-.68,2.372.532,1.928Z" fill="#1a1a1a"/>
    </g>
    <g id="Group_660" data-name="Group 660" transform="translate(-672.34 1976.544)">
      <path id="Path_988" data-name="Path 988" d="M1591.277,602.607h.473a1,1,0,0,0,0-2h-.473a1,1,0,0,0,0,2Z" fill="#1a1a1a"/>
    </g>
    <g id="Group_2868" data-name="Group 2868">
      <path id="Path_972" data-name="Path 972" d="M1575.459,615.729c-13.356-1.766-17.212,13.029-5.853,13.237C1586.206,629.269,1588.816,617.495,1575.459,615.729Z" transform="translate(-672.34 1976.544)" fill="#1a1a1a"/>
      <g id="Group_658" data-name="Group 658" transform="translate(-672.34 1976.544)">
        <g id="Group_653" data-name="Group 653">
          <path id="Path_981" data-name="Path 981" d="M1574.614,613.5c.048.033.09.068.137.1.1-.036.194-.069.293-.1Z" fill="#fff"/>
          <g id="Group_652" data-name="Group 652">
            <path id="Path_982" data-name="Path 982" d="M1574.109,614.364a1.172,1.172,0,0,0,1.2.1,1,1,0,0,0-.265-1.964h-.43a1,1,0,0,0,0,2h.43l-.266-1.965c-.1.033-.2.067-.293.1l.771.1-.137-.1a1.006,1.006,0,0,0-1.368.359A1.024,1.024,0,0,0,1574.109,614.364Z" fill="#1a1a1a"/>
          </g>
        </g>
        <g id="Group_655" data-name="Group 655">
          <path id="Path_983" data-name="Path 983" d="M1574.751,613.6c-13.357-1.766-16.859,16.056-5.854,13.237S1588.107,615.369,1574.751,613.6Z" fill="#fff"/>
          <g id="Group_654" data-name="Group 654">
            <path id="Path_984" data-name="Path 984" d="M1574.751,612.6a12.208,12.208,0,0,0-11.073,4.111c-1.827,2.245-3.069,5.639-1.854,8.454,1.348,3.12,4.8,3.292,7.7,2.54,4.352-1.13,10.012-3.462,12.409-7.554,2.851-4.868-3.175-6.96-6.912-7.515-1.259-.187-1.8,1.74-.532,1.928,1.725.256,5.6.634,6.14,2.785.439,1.763-1.811,3.55-3.01,4.447a24.079,24.079,0,0,1-6.53,3.336c-1.743.6-4.069,1.518-5.906.744-2.767-1.167-1.875-4.936-.652-6.923,2.2-3.575,6.224-4.8,10.224-4.353C1576.028,614.745,1576.018,612.744,1574.751,612.6Z" fill="#1a1a1a"/>
          </g>
        </g>
        <g id="Group_657" data-name="Group 657">
          <path id="Path_985" data-name="Path 985" d="M1575.044,613.5" fill="#fff"/>
          <g id="Group_656" data-name="Group 656">
            <path id="Path_986" data-name="Path 986" d="M1575.044,614.5a1,1,0,0,0,0-2,1,1,0,0,0,0,2Z" fill="#1a1a1a"/>
          </g>
        </g>
      </g>
      <g id="Group_661" data-name="Group 661" transform="translate(-672.34 1976.544)">
        <path id="Path_989" data-name="Path 989" d="M1569.074,621.976a1,1,0,0,0,0-2,1,1,0,0,0,0,2Z" fill="#1a1a1a"/>
      </g>
    </g>
    <g id="Group_662" data-name="Group 662" transform="translate(-672.34 1982.528)">
      <path id="Path_990" data-name="Path 990" d="M1641.995,650.987a95.929,95.929,0,0,0,17.273,2.161,1,1,0,0,0,0-2,92.85,92.85,0,0,1-16.741-2.09c-1.257-.247-1.8,1.68-.532,1.929Z" fill="#1a1a1a"/>
    </g>
  </g>
</svg>
