<svg xmlns="http://www.w3.org/2000/svg" viewBox="0 0 297 85"><defs><style>.cls-1{fill:#feb740;}.cls-2{fill:#1a1a1a;}.cls-3{fill:#fff;}.cls-4{fill:none;}</style></defs><title>Logo-24</title><g id="Grid"><path class="cls-1" d="M38.84,24.26l-.05,0s0,0,0,0S38.84,24.22,38.84,24.26Z"/><path class="cls-1" d="M38.32,27c0,.11,0,.23,0,.35l0-.2,0-.17Zm0,0c0,.11,0,.23,0,.35l0-.2,0-.17Zm0,0c0,.11,0,.23,0,.35l0-.2,0-.17Zm0,0c0,.11,0,.23,0,.35l0-.2,0-.17Zm0,0c0,.11,0,.23,0,.35l0-.2,0-.17Zm0,0c0,.11,0,.23,0,.35l0-.2,0-.17Zm0,0c0,.11,0,.23,0,.35l0-.2,0-.17Zm0,0c0,.11,0,.23,0,.35l0-.2,0-.17Zm19.86-5.13h.16l0,0ZM38.32,27c0,.11,0,.23,0,.35l0-.2,0-.17Zm19.86-5.13h.16l0,0ZM38.32,27c0,.11,0,.23,0,.35l0-.2,0-.17Zm19.86-5.13h.16l0,0ZM38.32,27c0,.11,0,.23,0,.35l0-.2,0-.17Zm19.86-5.13h.16l0,0ZM38.32,27c0,.11,0,.23,0,.35l0-.2,0-.17Zm19.86-5.13h.16l0,0ZM38.32,27c0,.11,0,.23,0,.35l0-.2,0-.17Zm19.86-5.13h.16l0,0ZM38.32,27c0,.11,0,.23,0,.35l0-.2,0-.17Zm19.86-5.13h.16l0,0ZM38.32,27c0,.11,0,.23,0,.35l0-.2,0-.17ZM64,36.09,63.82,36a1.18,1.18,0,0,0,.22.17,1.16,1.16,0,0,0,.59.16Zm0,0L63.82,36a1.18,1.18,0,0,0,.22.17,1.16,1.16,0,0,0,.59.16Zm-5.77-14.2h.16l0,0ZM38.32,27c0,.11,0,.23,0,.35l0-.2,0-.17Zm19.86-5.13h.16l0,0ZM38.32,27c0,.11,0,.23,0,.35l0-.2,0-.17ZM64,36.09,63.82,36a1.18,1.18,0,0,0,.22.17,1.16,1.16,0,0,0,.59.16Zm0,0L63.82,36a1.18,1.18,0,0,0,.22.17,1.16,1.16,0,0,0,.59.16Zm-5.77-14.2h.16l0,0ZM38.32,27c0,.11,0,.23,0,.35l0-.2,0-.17Zm19.86-5.13h.16l0,0ZM38.32,27c0,.11,0,.23,0,.35l0-.2,0-.17ZM64,36.09,63.82,36a1.18,1.18,0,0,0,.22.17,1.16,1.16,0,0,0,.59.16Zm0,0L63.82,36a1.18,1.18,0,0,0,.22.17,1.16,1.16,0,0,0,.59.16Zm-5.77-14.2h.16l0,0ZM38.32,27c0,.11,0,.23,0,.35l0-.2,0-.17Zm19.86-5.13h.16l0,0ZM38.32,27c0,.11,0,.23,0,.35l0-.2,0-.17ZM64,36.09,63.82,36a1.18,1.18,0,0,0,.22.17,1.16,1.16,0,0,0,.59.16Zm10.6,4h0a1,1,0,0,1-.35-.07c-2-.69-4-1.44-6-2.23a6.17,6.17,0,0,1-.43.46,7.7,7.7,0,0,1-8,1.84s0,0,0,0a1,1,0,0,1-.36-.07c-1.47-.5-2.9-.95-4.34-1.54-2-.81-3.94-1.7-5.92-2.52a1.87,1.87,0,0,1,0,.25,2.23,2.23,0,0,1-.24,1A25.39,25.39,0,0,1,47.08,41a11.78,11.78,0,0,1,2-1.45,1.93,1.93,0,0,1,.36,1.6,4.45,4.45,0,0,1-.67,1.55,14.32,14.32,0,0,1-1.28,1.77c-.68-1.4-2.34-4.78-3-6l2.43-2.74A.57.57,0,0,0,47,35.1a.56.56,0,0,0-.14-.2.57.57,0,0,0-.61-.09h0A.52.52,0,0,0,46,35l-7.4,8.39c-5.29,6-5.29,6-7.1,7.81l-.13.14c-1.57,1.57-5,1.58-7.31,1.59H24a.54.54,0,0,0-.53.57.61.61,0,0,0,.61.57h0c2.47,0,6.21,0,8.11-1.92l.13-.14c1.84-1.83,1.84-1.83,7.15-7.87,1.13-1.27,2.5-2.82,4.17-4.73.83,1.5,2.52,5,3,5.92.07.15.11.23.11.24v0a18.29,18.29,0,0,1,1.14,5,5,5,0,0,1-1.68,3.25c-1.41,1.33-9.7,6.2-12,7.87a2.42,2.42,0,0,1-.71.31,31.64,31.64,0,0,0,1.18,4.26,8.46,8.46,0,0,0,2.46,3.33c1.4,1.31,2.84,2.57,4.25,3.87C53.94,70.06,66,61.46,70.6,55.5a35.94,35.94,0,0,0,7.19-15A7.31,7.31,0,0,1,74.55,40.12Zm-11.63-29C50,2,13.24-3.5,2.24,21.44c-4.37,9.92-.63,21.77,4,32a3.19,3.19,0,0,1,1.23.31c-.29-.5-.58-1-.85-1.51-.38-.71.7-1.34,1.08-.63.51,1,1.06,1.91,1.6,2.86l5.95-3.39c-.45-.26-.69-.52-.62-.79.54-2,1-4,1.58-5.92.51-1.62,1.05-3.22,1.54-4.84a24.36,24.36,0,0,1,1.71-4.25l8-3.53a30.35,30.35,0,0,1,2.22-6.4c1.09-2.39,2.39-5.1,4.89-6.3,2.24-1.08,3.93.65,5,2.47l1.21-.25C47.79,19.9,55,20,62,19.29h.2a3.73,3.73,0,0,1,.68-.07,6.32,6.32,0,0,1,3.6,1.07l1.34-.22c1.47-.23,2.94-.35,4.42-.45A45.16,45.16,0,0,0,62.92,11.09ZM35.81,70.38c-.38-.35-.73-.73-1.08-1.12a8.05,8.05,0,0,1-1.6-2.91A30.19,30.19,0,0,1,32,62.28a119.06,119.06,0,0,1-14.26,1A28.83,28.83,0,0,1,16.52,66c-.31.6-.64,1.2-1,1.77-.14.21-.32.43-.51.66,6.59,6.64,15.64,7.5,24.61,5.47C38.34,72.7,37.06,71.56,35.81,70.38Zm-24.68-7.1a25.6,25.6,0,0,0,2.81,4l.39-.54A22,22,0,0,0,16,63.34C14.14,63.36,12.45,63.34,11.13,63.28ZM78.25,35a1,1,0,0,0,0,.51C78.26,35.3,78.25,35.13,78.25,35ZM64,36.09,63.82,36a1.18,1.18,0,0,0,.22.17,1.16,1.16,0,0,0,.59.16Zm-5.77-14.2h.16l0,0ZM38.32,27c0,.11,0,.23,0,.35l0-.2,0-.17Zm19.86-5.13h.16l0,0ZM38.32,27c0,.11,0,.23,0,.35l0-.2,0-.17ZM64,36.09,63.82,36a1.18,1.18,0,0,0,.22.17,1.16,1.16,0,0,0,.59.16Zm0,0L63.82,36a1.18,1.18,0,0,0,.22.17,1.16,1.16,0,0,0,.59.16Zm-5.77-14.2h.16l0,0ZM38.32,27c0,.11,0,.23,0,.35l0-.2,0-.17Zm19.86-5.13h.16l0,0ZM38.32,27c0,.11,0,.23,0,.35l0-.2,0-.17ZM64,36.09,63.82,36a1.18,1.18,0,0,0,.22.17,1.16,1.16,0,0,0,.59.16Zm0,0L63.82,36a1.18,1.18,0,0,0,.22.17,1.16,1.16,0,0,0,.59.16Zm-5.77-14.2h.16l0,0ZM38.32,27c0,.11,0,.23,0,.35l0-.2,0-.17Zm19.86-5.13h.16l0,0ZM38.32,27c0,.11,0,.23,0,.35l0-.2,0-.17ZM64,36.09,63.82,36a1.18,1.18,0,0,0,.22.17,1.16,1.16,0,0,0,.59.16Zm0,0L63.82,36a1.18,1.18,0,0,0,.22.17,1.16,1.16,0,0,0,.59.16Zm-5.77-14.2h.16l0,0ZM38.32,27c0,.11,0,.23,0,.35l0-.2,0-.17Zm19.86-5.13h.16l0,0ZM38.32,27c0,.11,0,.23,0,.35l0-.2,0-.17Zm19.86-5.13h.16l0,0ZM38.32,27c0,.11,0,.23,0,.35l0-.2,0-.17Zm19.86-5.13h.16l0,0ZM38.32,27c0,.11,0,.23,0,.35l0-.2,0-.17Zm19.86-5.13h.16l0,0ZM38.32,27c0,.11,0,.23,0,.35l0-.2,0-.17Zm19.86-5.13h.16l0,0ZM38.32,27c0,.11,0,.23,0,.35l0-.2,0-.17Zm19.86-5.13h.16l0,0ZM38.32,27c0,.11,0,.23,0,.35l0-.2,0-.17Zm0,0c0,.11,0,.23,0,.35l0-.2,0-.17Zm0,0c0,.11,0,.23,0,.35l0-.2,0-.17Zm0,0c0,.11,0,.23,0,.35l0-.2,0-.17Zm0,0c0,.11,0,.23,0,.35l0-.2,0-.17Zm0,0c0,.11,0,.23,0,.35l0-.2,0-.17Zm0,0c0,.11,0,.23,0,.35l0-.2,0-.17Zm0,0c0,.11,0,.23,0,.35l0-.2,0-.17Zm0,0c0,.11,0,.23,0,.35l0-.2,0-.17Z"/><path class="cls-2" d="M47.48,44.42a7,7,0,0,1-.86.86c-.46-1-2.15-4.42-3-5.92-1.67,1.91-3,3.46-4.17,4.73-5.31,6-5.31,6-7.15,7.87l-.13.14C30.29,54,26.55,54,24.08,54h0a.61.61,0,0,1-.61-.57.54.54,0,0,1,.53-.57h.08c2.29,0,5.74,0,7.31-1.59l.13-.14c1.81-1.8,1.81-1.8,7.1-7.81L46,35a.52.52,0,0,1,.19-.14h0a.57.57,0,0,1,.61.09.56.56,0,0,1,.14.2.57.57,0,0,1-.09.61l-2.43,2.74C45.14,39.64,46.8,43,47.48,44.42Z"/><path class="cls-2" d="M38.36,27l0,.17,0,.2c0-.12,0-.24,0-.35Z"/><path class="cls-2" d="M58.36,21.85l0,0h-.16Z"/><path class="cls-3" d="M78.25,35a1,1,0,0,0,0,.51C78.26,35.3,78.25,35.13,78.25,35Z"/><path class="cls-2" d="M78.26,35.47a1,1,0,0,1,0-.51C78.25,35.13,78.26,35.3,78.26,35.47Z"/><path class="cls-3" d="M38.84,24.26l-.05,0s0,0,0,0S38.84,24.22,38.84,24.26Z"/><path class="cls-2" d="M38.84,24.26l-.05,0s0,0,0,0S38.84,24.22,38.84,24.26Z"/><path class="cls-3" d="M38.84,24.26l-.05,0s0,0,0,0S38.84,24.22,38.84,24.26Z"/><path class="cls-3" d="M58.36,21.85l0,0h-.16Z"/><path class="cls-2" d="M38.84,24.26l-.05,0s0,0,0,0S38.84,24.22,38.84,24.26Z"/><path class="cls-2" d="M38.36,27l0,.17,0,.2c0-.12,0-.24,0-.35Z"/><path class="cls-2" d="M47,35.1l-.75-.29a.57.57,0,0,1,.61.09A.56.56,0,0,1,47,35.1Z"/><path class="cls-2" d="M58.36,21.85l0,0h-.16Z"/><path class="cls-3" d="M46.87,35.71l-2.43,2.74-.8.91c-1.67,1.91-3,3.46-4.17,4.73-5.31,6-5.31,6-7.15,7.87l-.13.14C30.29,54,26.55,54,24.08,54h0a.61.61,0,0,1-.61-.57.54.54,0,0,1,.53-.57h.08c2.29,0,5.74,0,7.31-1.59l.13-.14c1.81-1.8,1.81-1.8,7.1-7.81L46,35a.52.52,0,0,1,.19-.14h0a.57.57,0,0,1,.61.09.56.56,0,0,1,.14.2A.57.57,0,0,1,46.87,35.71Z"/><path class="cls-3" d="M64,36.09,63.82,36a1.18,1.18,0,0,0,.22.17,1.16,1.16,0,0,0,.59.16Z"/><path class="cls-3" d="M46.62,45.28s-2.15-4.42-3-5.92l-.29-.5a.57.57,0,0,1,1-.61,1.76,1.76,0,0,1,.12.2c.7,1.19,3.06,5.87,3,6A8.7,8.7,0,0,1,46.62,45.28Z"/><path class="cls-2" d="M64.63,36.37a1.16,1.16,0,0,1-.59-.16,1.18,1.18,0,0,1-.22-.17l.13.05Z"/><path class="cls-4" d="M38.84,24.26l-.05,0s0,0,0,0S38.84,24.22,38.84,24.26Z"/><path class="cls-4" d="M38.32,27c0,.11,0,.23,0,.35l0-.2,0-.17Zm0,0c0,.11,0,.23,0,.35l0-.2,0-.17Zm0,0c0,.11,0,.23,0,.35l0-.2,0-.17Zm0,0c0,.11,0,.23,0,.35l0-.2,0-.17Zm0,0c0,.11,0,.23,0,.35l0-.2,0-.17Zm0,0c0,.11,0,.23,0,.35l0-.2,0-.17Zm0,0c0,.11,0,.23,0,.35l0-.2,0-.17Zm0,0c0,.11,0,.23,0,.35l0-.2,0-.17Zm19.86-5.13h.16l0,0ZM38.32,27c0,.11,0,.23,0,.35l0-.2,0-.17Zm19.86-5.13h.16l0,0ZM38.32,27c0,.11,0,.23,0,.35l0-.2,0-.17Zm19.86-5.13h.16l0,0ZM38.32,27c0,.11,0,.23,0,.35l0-.2,0-.17Zm19.86-5.13h.16l0,0ZM38.32,27c0,.11,0,.23,0,.35l0-.2,0-.17Zm19.86-5.13h.16l0,0ZM38.32,27c0,.11,0,.23,0,.35l0-.2,0-.17Zm19.86-5.13h.16l0,0ZM38.32,27c0,.11,0,.23,0,.35l0-.2,0-.17Zm19.86-5.13h.16l0,0ZM38.32,27c0,.11,0,.23,0,.35l0-.2,0-.17ZM64,36.09,63.82,36a1.18,1.18,0,0,0,.22.17,1.16,1.16,0,0,0,.59.16Zm0,0L63.82,36a1.18,1.18,0,0,0,.22.17,1.16,1.16,0,0,0,.59.16Zm-5.77-14.2h.16l0,0ZM38.32,27c0,.11,0,.23,0,.35l0-.2,0-.17Zm19.86-5.13h.16l0,0ZM38.32,27c0,.11,0,.23,0,.35l0-.2,0-.17ZM64,36.09,63.82,36a1.18,1.18,0,0,0,.22.17,1.16,1.16,0,0,0,.59.16Zm0,0L63.82,36a1.18,1.18,0,0,0,.22.17,1.16,1.16,0,0,0,.59.16Zm-5.77-14.2h.16l0,0ZM38.32,27c0,.11,0,.23,0,.35l0-.2,0-.17Zm19.86-5.13h.16l0,0ZM38.32,27c0,.11,0,.23,0,.35l0-.2,0-.17ZM64,36.09,63.82,36a1.18,1.18,0,0,0,.22.17,1.16,1.16,0,0,0,.59.16Zm0,0L63.82,36a1.18,1.18,0,0,0,.22.17,1.16,1.16,0,0,0,.59.16Zm-5.77-14.2h.16l0,0ZM38.32,27c0,.11,0,.23,0,.35l0-.2,0-.17Zm19.86-5.13h.16l0,0ZM38.32,27c0,.11,0,.23,0,.35l0-.2,0-.17ZM64,36.09,63.82,36a1.18,1.18,0,0,0,.22.17,1.16,1.16,0,0,0,.59.16ZM78.25,35a1,1,0,0,0,0,.51C78.26,35.3,78.25,35.13,78.25,35ZM64,36.09,63.82,36a1.18,1.18,0,0,0,.22.17,1.16,1.16,0,0,0,.59.16Zm-5.77-14.2h.16l0,0ZM38.32,27c0,.11,0,.23,0,.35l0-.2,0-.17Zm19.86-5.13h.16l0,0ZM38.32,27c0,.11,0,.23,0,.35l0-.2,0-.17ZM64,36.09,63.82,36a1.18,1.18,0,0,0,.22.17,1.16,1.16,0,0,0,.59.16ZM78.25,35a1,1,0,0,0,0,.51C78.26,35.3,78.25,35.13,78.25,35ZM64,36.09,63.82,36a1.18,1.18,0,0,0,.22.17,1.16,1.16,0,0,0,.59.16Zm-5.77-14.2h.16l0,0ZM38.32,27c0,.11,0,.23,0,.35l0-.2,0-.17Zm19.86-5.13h.16l0,0ZM38.32,27c0,.11,0,.23,0,.35l0-.2,0-.17ZM64,36.09,63.82,36a1.18,1.18,0,0,0,.22.17,1.16,1.16,0,0,0,.59.16ZM78.25,35a1,1,0,0,0,0,.51C78.26,35.3,78.25,35.13,78.25,35Zm0,0a1,1,0,0,0,0,.51C78.26,35.3,78.25,35.13,78.25,35ZM64,36.09,63.82,36a1.18,1.18,0,0,0,.22.17,1.16,1.16,0,0,0,.59.16Zm-5.77-14.2h.16l0,0ZM38.32,27c0,.11,0,.23,0,.35l0-.2,0-.17Zm19.86-5.13h.16l0,0ZM38.32,27c0,.11,0,.23,0,.35l0-.2,0-.17ZM64,36.09,63.82,36a1.18,1.18,0,0,0,.22.17,1.16,1.16,0,0,0,.59.16ZM78.25,35a1,1,0,0,0,0,.51C78.26,35.3,78.25,35.13,78.25,35Zm0,0a1,1,0,0,0,0,.51C78.26,35.3,78.25,35.13,78.25,35ZM64,36.09,63.82,36a1.18,1.18,0,0,0,.22.17,1.16,1.16,0,0,0,.59.16Zm-5.77-14.2h.16l0,0ZM38.32,27c0,.11,0,.23,0,.35l0-.2,0-.17Zm19.86-5.13h.16l0,0ZM38.32,27c0,.11,0,.23,0,.35l0-.2,0-.17ZM64,36.09,63.82,36a1.18,1.18,0,0,0,.22.17,1.16,1.16,0,0,0,.59.16ZM78.25,35a1,1,0,0,0,0,.51C78.26,35.3,78.25,35.13,78.25,35Zm0,0a1,1,0,0,0,0,.51C78.26,35.3,78.25,35.13,78.25,35ZM64,36.09,63.82,36a1.18,1.18,0,0,0,.22.17,1.16,1.16,0,0,0,.59.16Zm-5.77-14.2h.16l0,0ZM38.32,27c0,.11,0,.23,0,.35l0-.2,0-.17Zm0,0c0,.11,0,.23,0,.35l0-.2,0-.17Zm19.86-5.13h.16l0,0ZM64,36.09,63.82,36a1.18,1.18,0,0,0,.22.17,1.16,1.16,0,0,0,.59.16ZM78.25,35a1,1,0,0,0,0,.51C78.26,35.3,78.25,35.13,78.25,35Zm0,0a1,1,0,0,0,0,.51C78.26,35.3,78.25,35.13,78.25,35ZM64,36.09,63.82,36a1.18,1.18,0,0,0,.22.17,1.16,1.16,0,0,0,.59.16Zm-5.77-14.2h.16l0,0ZM38.32,27c0,.11,0,.23,0,.35l0-.2,0-.17Zm0,0c0,.11,0,.23,0,.35l0-.2,0-.17Zm19.86-5.13h.16l0,0ZM64,36.09,63.82,36a1.18,1.18,0,0,0,.22.17,1.16,1.16,0,0,0,.59.16ZM78.25,35a1,1,0,0,0,0,.51C78.26,35.3,78.25,35.13,78.25,35Zm0,0a1,1,0,0,0,0,.51C78.26,35.3,78.25,35.13,78.25,35ZM64,36.09,63.82,36a1.18,1.18,0,0,0,.22.17,1.16,1.16,0,0,0,.59.16Zm-5.77-14.2h.16l0,0ZM38.32,27c0,.11,0,.23,0,.35l0-.2,0-.17Zm0,0c0,.11,0,.23,0,.35l0-.2,0-.17Zm19.86-5.13h.16l0,0ZM64,36.09,63.82,36a1.18,1.18,0,0,0,.22.17,1.16,1.16,0,0,0,.59.16ZM78.25,35a1,1,0,0,0,0,.51C78.26,35.3,78.25,35.13,78.25,35Zm0,0a1,1,0,0,0,0,.51C78.26,35.3,78.25,35.13,78.25,35ZM64,36.09,63.82,36a1.18,1.18,0,0,0,.22.17,1.16,1.16,0,0,0,.59.16Zm-5.77-14.2h.16l0,0ZM38.32,27c0,.11,0,.23,0,.35l0-.2,0-.17Zm0,0c0,.11,0,.23,0,.35l0-.2,0-.17Zm19.86-5.13h.16l0,0ZM64,36.09,63.82,36a1.18,1.18,0,0,0,.22.17,1.16,1.16,0,0,0,.59.16ZM78.25,35a1,1,0,0,0,0,.51C78.26,35.3,78.25,35.13,78.25,35Zm0,0a1,1,0,0,0,0,.51C78.26,35.3,78.25,35.13,78.25,35ZM64,36.09,63.82,36a1.18,1.18,0,0,0,.22.17,1.16,1.16,0,0,0,.59.16Zm-5.77-14.2h.16l0,0ZM38.32,27c0,.11,0,.23,0,.35l0-.2,0-.17Zm0,0c0,.11,0,.23,0,.35l0-.2,0-.17Zm19.86-5.13h.16l0,0ZM64,36.09,63.82,36a1.18,1.18,0,0,0,.22.17,1.16,1.16,0,0,0,.59.16ZM78.25,35a1,1,0,0,0,0,.51C78.26,35.3,78.25,35.13,78.25,35Zm0,0a1,1,0,0,0,0,.51C78.26,35.3,78.25,35.13,78.25,35ZM64,36.09,63.82,36a1.18,1.18,0,0,0,.22.17,1.16,1.16,0,0,0,.59.16Zm-5.77-14.2h.16l0,0ZM38.32,27c0,.11,0,.23,0,.35l0-.2,0-.17Zm0,0c0,.11,0,.23,0,.35l0-.2,0-.17Zm19.86-5.13h.16l0,0ZM64,36.09,63.82,36a1.18,1.18,0,0,0,.22.17,1.16,1.16,0,0,0,.59.16ZM78.25,35a1,1,0,0,0,0,.51C78.26,35.3,78.25,35.13,78.25,35Zm0,0a1,1,0,0,0,0,.51C78.26,35.3,78.25,35.13,78.25,35ZM64,36.09,63.82,36a1.18,1.18,0,0,0,.22.17,1.16,1.16,0,0,0,.59.16Zm-5.77-14.2h.16l0,0ZM38.32,27c0,.11,0,.23,0,.35l0-.2,0-.17Zm0,0c0,.11,0,.23,0,.35l0-.2,0-.17Zm19.86-5.13h.16l0,0ZM64,36.09,63.82,36a1.18,1.18,0,0,0,.22.17,1.16,1.16,0,0,0,.59.16ZM78.25,35a1,1,0,0,0,0,.51C78.26,35.3,78.25,35.13,78.25,35Zm0,0a1,1,0,0,0,0,.51C78.26,35.3,78.25,35.13,78.25,35ZM64,36.09,63.82,36a1.18,1.18,0,0,0,.22.17,1.16,1.16,0,0,0,.59.16Zm-5.77-14.2h.16l0,0ZM38.32,27c0,.11,0,.23,0,.35l0-.2,0-.17Zm0,0c0,.11,0,.23,0,.35l0-.2,0-.17Zm19.86-5.13h.16l0,0ZM64,36.09,63.82,36a1.18,1.18,0,0,0,.22.17,1.16,1.16,0,0,0,.59.16ZM78.25,35a1,1,0,0,0,0,.51C78.26,35.3,78.25,35.13,78.25,35Zm0,0a1,1,0,0,0,0,.51C78.26,35.3,78.25,35.13,78.25,35ZM64,36.09,63.82,36a1.18,1.18,0,0,0,.22.17,1.16,1.16,0,0,0,.59.16Zm-5.77-14.2h.16l0,0ZM38.32,27c0,.11,0,.23,0,.35l0-.2,0-.17Zm0,0c0,.11,0,.23,0,.35l0-.2,0-.17Zm19.86-5.13h.16l0,0ZM64,36.09,63.82,36a1.18,1.18,0,0,0,.22.17,1.16,1.16,0,0,0,.59.16ZM78.25,35a1,1,0,0,0,0,.51C78.26,35.3,78.25,35.13,78.25,35Zm0,0a1,1,0,0,0,0,.51C78.26,35.3,78.25,35.13,78.25,35ZM64,36.09,63.82,36a1.18,1.18,0,0,0,.22.17,1.16,1.16,0,0,0,.59.16Zm-5.77-14.2h.16l0,0ZM38.32,27c0,.11,0,.23,0,.35l0-.2,0-.17Zm0,0c0,.11,0,.23,0,.35l0-.2,0-.17Zm19.86-5.13h.16l0,0ZM64,36.09,63.82,36a1.18,1.18,0,0,0,.22.17,1.16,1.16,0,0,0,.59.16ZM78.25,35a1,1,0,0,0,0,.51C78.26,35.3,78.25,35.13,78.25,35Zm0,0a1,1,0,0,0,0,.51C78.26,35.3,78.25,35.13,78.25,35ZM64,36.09,63.82,36a1.18,1.18,0,0,0,.22.17,1.16,1.16,0,0,0,.59.16Zm-5.77-14.2h.16l0,0ZM38.32,27c0,.11,0,.23,0,.35l0-.2,0-.17Zm0,0c0,.11,0,.23,0,.35l0-.2,0-.17Zm19.86-5.13h.16l0,0ZM64,36.09,63.82,36a1.18,1.18,0,0,0,.22.17,1.16,1.16,0,0,0,.59.16ZM78.25,35a1,1,0,0,0,0,.51C78.26,35.3,78.25,35.13,78.25,35Zm0,0a1,1,0,0,0,0,.51C78.26,35.3,78.25,35.13,78.25,35ZM64,36.09,63.82,36a1.18,1.18,0,0,0,.22.17,1.16,1.16,0,0,0,.59.16Zm-5.77-14.2h.16l0,0ZM38.32,27c0,.11,0,.23,0,.35l0-.2,0-.17Zm0,0c0,.11,0,.23,0,.35l0-.2,0-.17Zm19.86-5.13h.16l0,0ZM64,36.09,63.82,36a1.18,1.18,0,0,0,.22.17,1.16,1.16,0,0,0,.59.16ZM78.25,35a1,1,0,0,0,0,.51C78.26,35.3,78.25,35.13,78.25,35Zm0,0a1,1,0,0,0,0,.51C78.26,35.3,78.25,35.13,78.25,35ZM63.82,36a1.18,1.18,0,0,0,.22.17,1.16,1.16,0,0,0,.59.16L64,36.09ZM58.34,21.88l0,0-.18,0Zm-20,5.49,0-.2,0-.17,0,0C38.32,27.13,38.31,27.25,38.3,27.37ZM0,0V85H297V0ZM82.54,38.28a7.79,7.79,0,0,1-4.75,2.24,7.31,7.31,0,0,1-3.24-.4h0a1,1,0,0,1-.35-.07c-2-.69-4-1.44-6-2.23a6.17,6.17,0,0,1-.43.46,7.7,7.7,0,0,1-8,1.84s0,0,0,0a1,1,0,0,1-.36-.07c-1.47-.5-2.9-.95-4.34-1.54-2-.81-3.94-1.7-5.92-2.52a1.87,1.87,0,0,1,0,.25,2.23,2.23,0,0,1-.24,1A25.39,25.39,0,0,1,47.08,41a11.78,11.78,0,0,1,2-1.45,1.93,1.93,0,0,1,.36,1.6,4.45,4.45,0,0,1-.67,1.55,14.32,14.32,0,0,1-1.28,1.77c-.68-1.4-2.34-4.78-3-6l2.43-2.74A.57.57,0,0,0,47,35.1a.56.56,0,0,0-.14-.2.57.57,0,0,0-.61-.09h0A.52.52,0,0,0,46,35l-7.4,8.39c-5.29,6-5.29,6-7.1,7.81l-.13.14c-1.57,1.57-5,1.58-7.31,1.59H24a.54.54,0,0,0-.53.57.61.61,0,0,0,.61.57h0c2.47,0,6.21,0,8.11-1.92l.13-.14c1.84-1.83,1.84-1.83,7.15-7.87,1.13-1.27,2.5-2.82,4.17-4.73.83,1.5,2.52,5,3,5.92.07.15.11.23.11.24v0a18.29,18.29,0,0,1,1.14,5,5,5,0,0,1-1.68,3.25c-1.41,1.33-9.7,6.2-12,7.87a2.42,2.42,0,0,1-.71.31,31.64,31.64,0,0,0,1.18,4.26,8.46,8.46,0,0,0,2.46,3.33c1.4,1.31,2.84,2.57,4.25,3.87-.6.17-1.21.32-1.82.45-1.27-1.16-2.55-2.3-3.8-3.48-.38-.35-.73-.73-1.08-1.12a8.05,8.05,0,0,1-1.6-2.91A30.19,30.19,0,0,1,32,62.28a119.06,119.06,0,0,1-14.26,1A28.83,28.83,0,0,1,16.52,66c-.31.6-.64,1.2-1,1.77-.14.21-.32.43-.51.66-.36-.36-.71-.75-1.06-1.15l.39-.54A22,22,0,0,0,16,63.34c-1.88,0-3.57,0-4.89-.06-.31-.52-.6-1.07-.89-1.63-1.3-2.55-2.68-5.32-4-8.21a3.19,3.19,0,0,1,1.23.31c-.29-.5-.58-1-.85-1.51-.38-.71.7-1.34,1.08-.63.51,1,1.06,1.91,1.6,2.86l5.95-3.39c-.45-.26-.69-.52-.62-.79.54-2,1-4,1.58-5.92.51-1.62,1.05-3.22,1.54-4.84a24.36,24.36,0,0,1,1.71-4.25l8-3.53a30.35,30.35,0,0,1,2.22-6.4c1.09-2.39,2.39-5.1,4.89-6.3,2.24-1.08,3.93.65,5,2.47l1.21-.25C47.79,19.9,55,20,62,19.29h.2a3.73,3.73,0,0,1,.68-.07,6.32,6.32,0,0,1,3.6,1.07l1.34-.22c1.47-.23,2.94-.35,4.42-.45s3-.18,4.51-.33H77a3.84,3.84,0,0,1,.69-.07c4.16-.08,7.25,4.15,8.15,7.8A12.14,12.14,0,0,1,82.54,38.28Zm-4.28-2.81c0-.17,0-.34,0-.51A1,1,0,0,0,78.26,35.47ZM63.82,36a1.18,1.18,0,0,0,.22.17,1.16,1.16,0,0,0,.59.16L64,36.09ZM58.34,21.88l0,0-.18,0Zm-20,5.49,0-.2,0-.17,0,0C38.32,27.13,38.31,27.25,38.3,27.37Zm0-.35c0,.11,0,.23,0,.35l0-.2,0-.17Zm19.86-5.13h.16l0,0ZM64,36.09,63.82,36a1.18,1.18,0,0,0,.22.17,1.16,1.16,0,0,0,.59.16ZM78.25,35a1,1,0,0,0,0,.51C78.26,35.3,78.25,35.13,78.25,35Zm0,0a1,1,0,0,0,0,.51C78.26,35.3,78.25,35.13,78.25,35ZM64,36.09,63.82,36a1.18,1.18,0,0,0,.22.17,1.16,1.16,0,0,0,.59.16Zm-5.77-14.2h.16l0,0ZM38.32,27c0,.11,0,.23,0,.35l0-.2,0-.17Zm0,0c0,.11,0,.23,0,.35l0-.2,0-.17Zm19.86-5.13h.16l0,0ZM64,36.09,63.82,36a1.18,1.18,0,0,0,.22.17,1.16,1.16,0,0,0,.59.16ZM78.25,35a1,1,0,0,0,0,.51C78.26,35.3,78.25,35.13,78.25,35Zm0,0a1,1,0,0,0,0,.51C78.26,35.3,78.25,35.13,78.25,35ZM64,36.09,63.82,36a1.18,1.18,0,0,0,.22.17,1.16,1.16,0,0,0,.59.16Zm-5.77-14.2h.16l0,0ZM38.32,27c0,.11,0,.23,0,.35l0-.2,0-.17Zm0,0c0,.11,0,.23,0,.35l0-.2,0-.17Zm19.86-5.13h.16l0,0ZM64,36.09,63.82,36a1.18,1.18,0,0,0,.22.17,1.16,1.16,0,0,0,.59.16ZM78.25,35a1,1,0,0,0,0,.51C78.26,35.3,78.25,35.13,78.25,35Zm0,0a1,1,0,0,0,0,.51C78.26,35.3,78.25,35.13,78.25,35ZM64,36.09,63.82,36a1.18,1.18,0,0,0,.22.17,1.16,1.16,0,0,0,.59.16Zm-5.77-14.2h.16l0,0ZM38.32,27c0,.11,0,.23,0,.35l0-.2,0-.17Zm0,0c0,.11,0,.23,0,.35l0-.2,0-.17Zm19.86-5.13h.16l0,0ZM64,36.09,63.82,36a1.18,1.18,0,0,0,.22.17,1.16,1.16,0,0,0,.59.16ZM78.25,35a1,1,0,0,0,0,.51C78.26,35.3,78.25,35.13,78.25,35Zm0,0a1,1,0,0,0,0,.51C78.26,35.3,78.25,35.13,78.25,35ZM64,36.09,63.82,36a1.18,1.18,0,0,0,.22.17,1.16,1.16,0,0,0,.59.16Zm-5.77-14.2h.16l0,0ZM38.32,27c0,.11,0,.23,0,.35l0-.2,0-.17Zm0,0c0,.11,0,.23,0,.35l0-.2,0-.17Zm19.86-5.13h.16l0,0ZM64,36.09,63.82,36a1.18,1.18,0,0,0,.22.17,1.16,1.16,0,0,0,.59.16ZM78.25,35a1,1,0,0,0,0,.51C78.26,35.3,78.25,35.13,78.25,35Zm0,0a1,1,0,0,0,0,.51C78.26,35.3,78.25,35.13,78.25,35ZM64,36.09,63.82,36a1.18,1.18,0,0,0,.22.17,1.16,1.16,0,0,0,.59.16Zm-5.77-14.2h.16l0,0ZM38.32,27c0,.11,0,.23,0,.35l0-.2,0-.17Zm0,0c0,.11,0,.23,0,.35l0-.2,0-.17Zm19.86-5.13h.16l0,0ZM64,36.09,63.82,36a1.18,1.18,0,0,0,.22.17,1.16,1.16,0,0,0,.59.16ZM78.25,35a1,1,0,0,0,0,.51C78.26,35.3,78.25,35.13,78.25,35Zm0,0a1,1,0,0,0,0,.51C78.26,35.3,78.25,35.13,78.25,35ZM64,36.09,63.82,36a1.18,1.18,0,0,0,.22.17,1.16,1.16,0,0,0,.59.16Zm-5.77-14.2h.16l0,0ZM38.32,27c0,.11,0,.23,0,.35l0-.2,0-.17Zm0,0c0,.11,0,.23,0,.35l0-.2,0-.17Zm19.86-5.13h.16l0,0ZM64,36.09,63.82,36a1.18,1.18,0,0,0,.22.17,1.16,1.16,0,0,0,.59.16ZM78.25,35a1,1,0,0,0,0,.51C78.26,35.3,78.25,35.13,78.25,35Zm0,0a1,1,0,0,0,0,.51C78.26,35.3,78.25,35.13,78.25,35ZM64,36.09,63.82,36a1.18,1.18,0,0,0,.22.17,1.16,1.16,0,0,0,.59.16Zm-5.77-14.2h.16l0,0ZM38.32,27c0,.11,0,.23,0,.35l0-.2,0-.17Zm0,0c0,.11,0,.23,0,.35l0-.2,0-.17Zm19.86-5.13h.16l0,0ZM64,36.09,63.82,36a1.18,1.18,0,0,0,.22.17,1.16,1.16,0,0,0,.59.16ZM78.25,35a1,1,0,0,0,0,.51C78.26,35.3,78.25,35.13,78.25,35Zm0,0a1,1,0,0,0,0,.51C78.26,35.3,78.25,35.13,78.25,35ZM64,36.09,63.82,36a1.18,1.18,0,0,0,.22.17,1.16,1.16,0,0,0,.59.16Zm-5.77-14.2h.16l0,0ZM38.32,27c0,.11,0,.23,0,.35l0-.2,0-.17Zm0,0c0,.11,0,.23,0,.35l0-.2,0-.17Zm19.86-5.13h.16l0,0ZM64,36.09,63.82,36a1.18,1.18,0,0,0,.22.17,1.16,1.16,0,0,0,.59.16ZM78.25,35a1,1,0,0,0,0,.51C78.26,35.3,78.25,35.13,78.25,35Zm0,0a1,1,0,0,0,0,.51C78.26,35.3,78.25,35.13,78.25,35ZM64,36.09,63.82,36a1.18,1.18,0,0,0,.22.17,1.16,1.16,0,0,0,.59.16Zm-5.77-14.2h.16l0,0ZM38.32,27c0,.11,0,.23,0,.35l0-.2,0-.17Zm0,0c0,.11,0,.23,0,.35l0-.2,0-.17Zm19.86-5.13h.16l0,0ZM64,36.09,63.82,36a1.18,1.18,0,0,0,.22.17,1.16,1.16,0,0,0,.59.16ZM78.25,35a1,1,0,0,0,0,.51C78.26,35.3,78.25,35.13,78.25,35Zm0,0a1,1,0,0,0,0,.51C78.26,35.3,78.25,35.13,78.25,35ZM64,36.09,63.82,36a1.18,1.18,0,0,0,.22.17,1.16,1.16,0,0,0,.59.16Zm-5.77-14.2h.16l0,0ZM38.32,27c0,.11,0,.23,0,.35l0-.2,0-.17Zm0,0c0,.11,0,.23,0,.35l0-.2,0-.17Zm19.86-5.13h.16l0,0ZM64,36.09,63.82,36a1.18,1.18,0,0,0,.22.17,1.16,1.16,0,0,0,.59.16ZM78.25,35a1,1,0,0,0,0,.51C78.26,35.3,78.25,35.13,78.25,35Zm0,0a1,1,0,0,0,0,.51C78.26,35.3,78.25,35.13,78.25,35ZM64,36.09,63.82,36a1.18,1.18,0,0,0,.22.17,1.16,1.16,0,0,0,.59.16Zm-5.77-14.2h.16l0,0ZM38.32,27c0,.11,0,.23,0,.35l0-.2,0-.17Zm0,0c0,.11,0,.23,0,.35l0-.2,0-.17Zm19.86-5.13h.16l0,0ZM64,36.09,63.82,36a1.18,1.18,0,0,0,.22.17,1.16,1.16,0,0,0,.59.16ZM78.25,35a1,1,0,0,0,0,.51C78.26,35.3,78.25,35.13,78.25,35Zm0,0a1,1,0,0,0,0,.51C78.26,35.3,78.25,35.13,78.25,35ZM64,36.09,63.82,36a1.18,1.18,0,0,0,.22.17,1.16,1.16,0,0,0,.59.16Zm-5.77-14.2h.16l0,0ZM38.32,27c0,.11,0,.23,0,.35l0-.2,0-.17Zm19.86-5.13h.16l0,0ZM38.32,27c0,.11,0,.23,0,.35l0-.2,0-.17ZM64,36.09,63.82,36a1.18,1.18,0,0,0,.22.17,1.16,1.16,0,0,0,.59.16ZM78.25,35a1,1,0,0,0,0,.51C78.26,35.3,78.25,35.13,78.25,35Zm0,0a1,1,0,0,0,0,.51C78.26,35.3,78.25,35.13,78.25,35ZM64,36.09,63.82,36a1.18,1.18,0,0,0,.22.17,1.16,1.16,0,0,0,.59.16Zm-5.77-14.2h.16l0,0ZM38.32,27c0,.11,0,.23,0,.35l0-.2,0-.17Zm19.86-5.13h.16l0,0ZM38.32,27c0,.11,0,.23,0,.35l0-.2,0-.17ZM64,36.09,63.82,36a1.18,1.18,0,0,0,.22.17,1.16,1.16,0,0,0,.59.16ZM78.25,35a1,1,0,0,0,0,.51C78.26,35.3,78.25,35.13,78.25,35Zm0,0a1,1,0,0,0,0,.51C78.26,35.3,78.25,35.13,78.25,35ZM64,36.09,63.82,36a1.18,1.18,0,0,0,.22.17,1.16,1.16,0,0,0,.59.16Zm-5.77-14.2h.16l0,0ZM38.32,27c0,.11,0,.23,0,.35l0-.2,0-.17Zm19.86-5.13h.16l0,0ZM38.32,27c0,.11,0,.23,0,.35l0-.2,0-.17ZM64,36.09,63.82,36a1.18,1.18,0,0,0,.22.17,1.16,1.16,0,0,0,.59.16ZM78.25,35a1,1,0,0,0,0,.51C78.26,35.3,78.25,35.13,78.25,35ZM64,36.09,63.82,36a1.18,1.18,0,0,0,.22.17,1.16,1.16,0,0,0,.59.16Zm-5.77-14.2h.16l0,0ZM38.32,27c0,.11,0,.23,0,.35l0-.2,0-.17Zm19.86-5.13h.16l0,0ZM38.32,27c0,.11,0,.23,0,.35l0-.2,0-.17ZM64,36.09,63.82,36a1.18,1.18,0,0,0,.22.17,1.16,1.16,0,0,0,.59.16ZM78.25,35a1,1,0,0,0,0,.51C78.26,35.3,78.25,35.13,78.25,35ZM64,36.09,63.82,36a1.18,1.18,0,0,0,.22.17,1.16,1.16,0,0,0,.59.16Zm-5.77-14.2h.16l0,0ZM38.32,27c0,.11,0,.23,0,.35l0-.2,0-.17Zm19.86-5.13h.16l0,0ZM38.32,27c0,.11,0,.23,0,.35l0-.2,0-.17ZM64,36.09,63.82,36a1.18,1.18,0,0,0,.22.17,1.16,1.16,0,0,0,.59.16Zm0,0L63.82,36a1.18,1.18,0,0,0,.22.17,1.16,1.16,0,0,0,.59.16Zm-5.77-14.2h.16l0,0ZM38.32,27c0,.11,0,.23,0,.35l0-.2,0-.17Zm19.86-5.13h.16l0,0ZM38.32,27c0,.11,0,.23,0,.35l0-.2,0-.17ZM64,36.09,63.82,36a1.18,1.18,0,0,0,.22.17,1.16,1.16,0,0,0,.59.16Zm0,0L63.82,36a1.18,1.18,0,0,0,.22.17,1.16,1.16,0,0,0,.59.16Zm-5.77-14.2h.16l0,0ZM38.32,27c0,.11,0,.23,0,.35l0-.2,0-.17Zm19.86-5.13h.16l0,0ZM38.32,27c0,.11,0,.23,0,.35l0-.2,0-.17ZM64,36.09,63.82,36a1.18,1.18,0,0,0,.22.17,1.16,1.16,0,0,0,.59.16Zm0,0L63.82,36a1.18,1.18,0,0,0,.22.17,1.16,1.16,0,0,0,.59.16Zm-5.77-14.2h.16l0,0ZM38.32,27c0,.11,0,.23,0,.35l0-.2,0-.17Zm19.86-5.13h.16l0,0ZM38.32,27c0,.11,0,.23,0,.35l0-.2,0-.17ZM64,36.09,63.82,36a1.18,1.18,0,0,0,.22.17,1.16,1.16,0,0,0,.59.16Zm0,0L63.82,36a1.18,1.18,0,0,0,.22.17,1.16,1.16,0,0,0,.59.16Zm-5.77-14.2h.16l0,0ZM38.32,27c0,.11,0,.23,0,.35l0-.2,0-.17Zm19.86-5.13h.16l0,0ZM38.32,27c0,.11,0,.23,0,.35l0-.2,0-.17Zm19.86-5.13h.16l0,0ZM38.32,27c0,.11,0,.23,0,.35l0-.2,0-.17Zm19.86-5.13h.16l0,0ZM38.32,27c0,.11,0,.23,0,.35l0-.2,0-.17Zm19.86-5.13h.16l0,0ZM38.32,27c0,.11,0,.23,0,.35l0-.2,0-.17Zm19.86-5.13h.16l0,0ZM38.32,27c0,.11,0,.23,0,.35l0-.2,0-.17Zm19.86-5.13h.16l0,0ZM38.32,27c0,.11,0,.23,0,.35l0-.2,0-.17Zm0,0c0,.11,0,.23,0,.35l0-.2,0-.17Zm0,0c0,.11,0,.23,0,.35l0-.2,0-.17Zm0,0c0,.11,0,.23,0,.35l0-.2,0-.17Zm0,0c0,.11,0,.23,0,.35l0-.2,0-.17Zm0,0c0,.11,0,.23,0,.35l0-.2,0-.17Zm0,0c0,.11,0,.23,0,.35l0-.2,0-.17Zm0,0c0,.11,0,.23,0,.35l0-.2,0-.17Zm0,0c0,.11,0,.23,0,.35l0-.2,0-.17Z"/><path class="cls-3" d="M58.34,21.88c-.44.47-.9,1-1.34,1.47a14.92,14.92,0,0,0-1.2,1.55h0A9,9,0,0,0,55.17,26a.54.54,0,0,0-.07.13A13.3,13.3,0,0,0,54,30,9.65,9.65,0,0,0,54,31.28h0c0,.31,0,.62.06.94,0,.14,0,.28.07.42a9.57,9.57,0,0,0,1.3,3.5c-1.95-.76-3.88-1.55-5.83-2.35l-1.39-.59h0A49.27,49.27,0,0,1,50.87,29h0l1-1.49.58-.87A4.08,4.08,0,0,0,53,25.37a1.29,1.29,0,0,0-.14-1,4.51,4.51,0,0,0-.53.09h0a13.65,13.65,0,0,0-5.48,2.2A7.16,7.16,0,0,0,46.31,24a.7.7,0,0,0-.51-.22c-.31.12-1.88.79-4.12,1.76l-1,.45-1,.47L38.36,27c.1-.72.19-1.45.34-2.16,0,0,0,0,0-.08a5,5,0,0,0,.12-.5.75.75,0,0,1,.17-.1,4.09,4.09,0,0,1,.56-.23,11.38,11.38,0,0,1,1.12-.31l1.17-.23a93.5,93.5,0,0,1,9.88-1.06c2.14-.16,4.28-.28,6.43-.44h.17Z"/><path class="cls-2" d="M85.8,27c-.9-3.65-4-7.88-8.15-7.8a3.84,3.84,0,0,0-.69.07h-.2c-1.5.15-3,.23-4.51.33s-3,.22-4.42.45l-1.34.22a6.32,6.32,0,0,0-3.6-1.07,3.73,3.73,0,0,0-.68.07H62c-7,.71-14.22.61-21.18,2l-1.21.25c-1.09-1.82-2.78-3.55-5-2.47-2.5,1.2-3.8,3.91-4.89,6.3a30.35,30.35,0,0,0-2.22,6.4l-8,3.53a24.36,24.36,0,0,0-1.71,4.25c-.49,1.62-1,3.22-1.54,4.84-.61,2-1,3.94-1.58,5.92-.07.27.17.53.62.79L9.31,54.47c-.54-.95-1.09-1.89-1.6-2.86-.38-.71-1.46-.08-1.08.63.27.51.56,1,.85,1.51a3.19,3.19,0,0,0-1.23-.31,4.37,4.37,0,0,0-.63,0c-.62,0-3.32.53-2.95,1.44a15.88,15.88,0,0,0,1.44,2.7c-.35.22-.71.43-1.06.63-.61.34-1.27.55-1.88.88-.38.2-.52.28-.38.65C1,60.36,2,60.8,2.5,61.11A11,11,0,0,0,6,62.51a17.67,17.67,0,0,0,2.55.5,14.58,14.58,0,0,0,2.55.27c1.32.06,3,.08,4.89.06a22,22,0,0,1-1.69,3.36l-.39.54a3.78,3.78,0,0,0-1,1.85,1.43,1.43,0,0,0,.23.72c0,.1.15.28.18.28s.06.29.09.43c.42,2.23.52,4.54.94,6.78a11.3,11.3,0,0,0-2.58,1.54.78.78,0,0,0,0,1.1.81.81,0,0,0,1.1,0,9.64,9.64,0,0,1,2.06-1.2c.07.14.13.28.21.41a6.34,6.34,0,0,0,.54.81,3.79,3.79,0,0,0,.6.53.77.77,0,0,0,1.1,0,.8.8,0,0,0,0-1.1L17,79l-.11-.12,0,0c0-.07-.09-.15-.13-.21s-.19-.3-.28-.46a11,11,0,0,1,1.87-.36.8.8,0,0,0,.77-.78.78.78,0,0,0-.77-.78,14.16,14.16,0,0,0-2.43.5c-.41-2.23-.5-4.53-.94-6.75a2.57,2.57,0,0,0-.11-.48c0-.09-.07-.17-.1-.25s-.11-.18-.14-.18l.06-.12a3.59,3.59,0,0,1,.39-.63c.19-.23.37-.45.51-.66.37-.57.7-1.17,1-1.77a28.83,28.83,0,0,0,1.25-2.65,119.06,119.06,0,0,0,14.26-1,30.19,30.19,0,0,0,1.1,4.07,8.05,8.05,0,0,0,1.6,2.91c.35.39.7.77,1.08,1.12,1.25,1.18,2.53,2.32,3.8,3.48.43.39.86.78,1.28,1.18a4.8,4.8,0,0,0-1.46,1.1.78.78,0,0,0,1.1,1.1,3.09,3.09,0,0,1,.4-.41h0l0,0,.12-.09.24-.15a7.76,7.76,0,0,1,.91-.46l.15,0a14.07,14.07,0,0,0,2.14,1.36.77.77,0,0,0,1.06-.28.79.79,0,0,0-.28-1.06A9.76,9.76,0,0,1,44,75.34,9.75,9.75,0,0,1,45,75a.78.78,0,1,0-.41-1.5,16.83,16.83,0,0,0-2.17.85c-.32-.31-.65-.61-1-.91-1.41-1.3-2.85-2.56-4.25-3.87a8.46,8.46,0,0,1-2.46-3.33A31.64,31.64,0,0,1,33.54,62a2.42,2.42,0,0,0,.71-.31c2.25-1.67,10.54-6.54,12-7.87a5,5,0,0,0,1.68-3.25,18.29,18.29,0,0,0-1.14-5v0s0-.09-.11-.24c-.46-1-2.15-4.42-3-5.92-1.67,1.91-3,3.46-4.17,4.73-5.31,6-5.31,6-7.15,7.87l-.13.14C30.29,54,26.55,54,24.08,54h0a.61.61,0,0,1-.61-.57.54.54,0,0,1,.53-.57h.08c2.29,0,5.74,0,7.31-1.59l.13-.14c1.81-1.8,1.81-1.8,7.1-7.81L46,35a.52.52,0,0,1,.19-.14h0a.57.57,0,0,1,.61.09.56.56,0,0,1,.14.2.57.57,0,0,1-.09.61l-2.43,2.74c.7,1.19,2.36,4.57,3,6a14.32,14.32,0,0,0,1.28-1.77,4.45,4.45,0,0,0,.67-1.55,1.93,1.93,0,0,0-.36-1.6,11.78,11.78,0,0,0-2,1.45A25.39,25.39,0,0,0,49,37.28a2.23,2.23,0,0,0,.24-1,1.87,1.87,0,0,0,0-.25c2,.82,4,1.71,5.92,2.52,1.44.59,2.87,1,4.34,1.54a1,1,0,0,0,.36.07s0,0,0,0a7.7,7.7,0,0,0,8-1.84,6.17,6.17,0,0,0,.43-.46c2,.79,4,1.54,6,2.23a1,1,0,0,0,.35.07h0a7.31,7.31,0,0,0,3.24.4,7.79,7.79,0,0,0,4.75-2.24A12.14,12.14,0,0,0,85.8,27ZM36.18,26.2s0,0,0,.06a12.31,12.31,0,0,0-.23,1.8l-.14.06-5.68,2.49a29.22,29.22,0,0,1,1.57-4.11c.85-1.88,1.85-4.42,3.86-5.37.77-.36,1.45.31,2,1.23C36.37,23.2,36.38,24.9,36.18,26.2Zm19.61-1.3A9,9,0,0,0,55.17,26a.54.54,0,0,0-.07.13A13.3,13.3,0,0,0,54,30,9.65,9.65,0,0,0,54,31.28h0c0,.31,0,.62.06.94,0,.14,0,.28.07.42a9.57,9.57,0,0,0,1.3,3.5c-1.95-.76-3.88-1.55-5.83-2.35l-1.39-.59h0A49.27,49.27,0,0,1,50.87,29h0l1-1.49.58-.87A4.08,4.08,0,0,0,53,25.37a1.29,1.29,0,0,0-.14-1,4.51,4.51,0,0,0-.53.09h0a13.65,13.65,0,0,0-5.48,2.2A7.16,7.16,0,0,0,46.31,24a.7.7,0,0,0-.51-.22c-.31.12-1.88.79-4.12,1.76l-1,.45-1,.47L38.36,27l0,.17,0,.2c0-.12,0-.24,0-.35l0,0c.1-.72.19-1.45.34-2.16,0,0,0,0,0-.08a5,5,0,0,0,.12-.5l-.05,0s0,0,0,0,0,0,0,0a.75.75,0,0,1,.17-.1,4.09,4.09,0,0,1,.56-.23,11.38,11.38,0,0,1,1.12-.31l1.17-.23a93.5,93.5,0,0,1,9.88-1.06c2.14-.16,4.28-.28,6.43-.44h0l.18,0,0,0c-.44.47-.9,1-1.34,1.47a14.92,14.92,0,0,0-1.2,1.55Zm13,7.09a10.87,10.87,0,0,1-1.32,3.06s0,0,0,0a9.11,9.11,0,0,1-.68,1,7.79,7.79,0,0,1-.84.88A5.22,5.22,0,0,1,64.08,38a5.29,5.29,0,0,1-4.2-.26l-.39-.25a7.51,7.51,0,0,1-2.8-3.94,7.66,7.66,0,0,1-.28-1.26,8.25,8.25,0,0,1-.1-1.22,9.62,9.62,0,0,1,.76-3.8,12.49,12.49,0,0,1,2.06-2.84l.47-.55c.38-.45.77-.92,1.2-1.34a8.39,8.39,0,0,1,.65-.56,1.85,1.85,0,0,1,.4-.24,3.15,3.15,0,0,1,2.58.09h0a5,5,0,0,1,.83.43,5.13,5.13,0,0,1,.6.44,9,9,0,0,1,2.36,3.15A9.3,9.3,0,0,1,69,28.67h0A9.46,9.46,0,0,1,68.77,32Zm-.11-9.74c1.48-.2,3-.31,4.46-.4a24,24,0,0,0-2.72,3.29A11.89,11.89,0,0,0,68.66,22.25Zm13.55,12.8a6.69,6.69,0,0,1-3.37,3,4.35,4.35,0,0,1-.71.18,5,5,0,0,1-3.5-.45,3,3,0,0,1-.38-.24A7.75,7.75,0,0,1,71.13,32a9,9,0,0,1,.19-3.18,9.23,9.23,0,0,1,.5-1.54,12.49,12.49,0,0,1,2.06-2.84c.3-.35.61-.73.94-1.1A8.78,8.78,0,0,1,76.2,22a1.85,1.85,0,0,1,.4-.24,3.69,3.69,0,0,1,3.43.52,8.54,8.54,0,0,1,3,3.59A9.56,9.56,0,0,1,82.21,35.05Z"/><path class="cls-3" d="M37.56,22.36c-1.19.84-1.18,2.54-1.38,3.84,0,0,0,0,0,.06a12.31,12.31,0,0,0-.23,1.8l-.14.06-5.68,2.49a29.22,29.22,0,0,1,1.57-4.11c.85-1.88,1.85-4.42,3.86-5.37C36.32,20.77,37,21.44,37.56,22.36Z"/><path class="cls-3" d="M69,28.68h0a9.3,9.3,0,0,0-.79-2.82,9,9,0,0,0-2.36-3.15,5.13,5.13,0,0,0-.6-.44,5,5,0,0,0-.83-.43h0a3.15,3.15,0,0,0-2.58-.09,1.85,1.85,0,0,0-.4.24,8.39,8.39,0,0,0-.65.56c-.43.42-.82.89-1.2,1.34l-.47.55a12.49,12.49,0,0,0-2.06,2.84,9.62,9.62,0,0,0-.76,3.8,8.25,8.25,0,0,0,.1,1.22,7.66,7.66,0,0,0,.28,1.26,7.51,7.51,0,0,0,2.8,3.94l.39.25a5.29,5.29,0,0,0,4.2.26,5.22,5.22,0,0,0,1.84-1.1,7.79,7.79,0,0,0,.84-.88,9.11,9.11,0,0,0,.68-1s0,0,0,0A10.87,10.87,0,0,0,68.77,32,9.46,9.46,0,0,0,69,28.68Zm-1.54,2.73a10.78,10.78,0,0,1-1.16,3.2c-.18.34-.38.67-.58,1l-.13.2a1.25,1.25,0,0,1-1,.57,1.16,1.16,0,0,1-.59-.16,1.18,1.18,0,0,1-.22-.17,1.16,1.16,0,0,1-.23-1.32.43.43,0,0,1,0-.07c.2-.3.39-.6.56-.91a9.31,9.31,0,0,0,1-2.66c0-.16.06-.32.08-.48a.88.88,0,0,0,0-.17,5.33,5.33,0,0,0-.48-2.89A1.17,1.17,0,0,1,65.25,26a1.15,1.15,0,0,1,1.56.42A8,8,0,0,1,67.48,31.41Z"/><path class="cls-3" d="M73.12,21.85a24,24,0,0,0-2.72,3.29,11.89,11.89,0,0,0-1.74-2.89C70.14,22.05,71.62,21.94,73.12,21.85Z"/><path class="cls-3" d="M83,25.85a8.54,8.54,0,0,0-3-3.59,3.69,3.69,0,0,0-3.43-.52,1.85,1.85,0,0,0-.4.24,8.78,8.78,0,0,0-1.38,1.35c-.33.37-.64.75-.94,1.1a12.49,12.49,0,0,0-2.06,2.84,9.23,9.23,0,0,0-.5,1.54A9,9,0,0,0,71.13,32a7.75,7.75,0,0,0,3.12,5.5,3,3,0,0,0,.38.24,5,5,0,0,0,3.5.45,4.35,4.35,0,0,0,.71-.18,6.69,6.69,0,0,0,3.37-3A9.56,9.56,0,0,0,83,25.85Zm-.74,5.56a11.91,11.91,0,0,1-1.88,4.39,1.16,1.16,0,0,1-1.57.41,1.18,1.18,0,0,1-.53-.72v0a1,1,0,0,1,0-.51.85.85,0,0,1,.13-.31A10.18,10.18,0,0,0,80,31.11a0,0,0,0,0,0,0l.11-.75a5.48,5.48,0,0,0-.5-2.79A1.18,1.18,0,0,1,80,26a1.16,1.16,0,0,1,1.57.42A8,8,0,0,1,82.24,31.41Z"/><path class="cls-2" d="M82.24,31.41a11.91,11.91,0,0,1-1.88,4.39,1.16,1.16,0,0,1-1.57.41,1.18,1.18,0,0,1-.53-.72v0c0-.17,0-.34,0-.51a.85.85,0,0,1,.13-.31A10.18,10.18,0,0,0,80,31.11a0,0,0,0,0,0,0,6.46,6.46,0,0,0,.11-.75,5.48,5.48,0,0,0-.5-2.79A1.18,1.18,0,0,1,80,26a1.16,1.16,0,0,1,1.57.42A8,8,0,0,1,82.24,31.41Z"/><path class="cls-2" d="M67.48,31.41a10.78,10.78,0,0,1-1.16,3.2c-.18.34-.38.67-.58,1l-.13.2a1.25,1.25,0,0,1-1,.57L64,36.09,63.82,36a1.16,1.16,0,0,1-.23-1.32.43.43,0,0,1,0-.07c.2-.3.39-.6.56-.91a9.31,9.31,0,0,0,1-2.66c0-.16.06-.32.08-.48a.88.88,0,0,0,0-.17,5.33,5.33,0,0,0-.48-2.89A1.17,1.17,0,0,1,65.25,26a1.15,1.15,0,0,1,1.56.42A8,8,0,0,1,67.48,31.41Z"/><path class="cls-2" d="M106.33,37.73h0a20,20,0,0,1-4.21-1.17,2.15,2.15,0,0,1-1.52-2.08,1.64,1.64,0,0,1,.67-.87c.66-.54,2.65-1.7,6.62-.85a10.32,10.32,0,0,1,1.6.55c1.1.46,2.14.9,2.91-.43a3,3,0,0,0,.45-1.55c0-1.29-.79-2.33-2.35-3.09a11.19,11.19,0,0,0-4.87-1,12.93,12.93,0,0,0-7.26,1.91,6.42,6.42,0,0,0-3,5.6,6.51,6.51,0,0,0,2.15,5.29,12.59,12.59,0,0,0,5.85,2.36,13.45,13.45,0,0,1,2.92.8,3.11,3.11,0,0,1,2.26,3.11,4.16,4.16,0,0,1-1.15,3,3.1,3.1,0,0,1-2.22,1.18,8,8,0,0,1-2.87-.58c-.24-.09-.7-.29-1.57-.73s-1.34-.66-1.68-.81a2.12,2.12,0,0,0-1.91.13,3.49,3.49,0,0,0-1.27,1.09A2.42,2.42,0,0,0,95.34,51c0,1.1.83,2.08,2.53,3a14,14,0,0,0,6.77,1.86,8.61,8.61,0,0,0,5.48-1.58c2.3-1.82,3.46-4.63,3.46-8.36a7.45,7.45,0,0,0-2.11-5.74A10.26,10.26,0,0,0,106.33,37.73Z"/><path class="cls-2" d="M132.74,32.53h0a18.15,18.15,0,0,0-1.91-3.91,3,3,0,0,0-2.42-1.24c-1.74,0-3.25,1.29-4.61,3.93-1,1.85-2.18,5.47-3.64,11.07S118,51.69,118,53.73a2,2,0,0,0,2.29,2.08c1.75,0,2.3-.83,2.44-1.55.93-6.76,1.45-8.65,1.67-9.18l.46,0c.39,0,1.32.06,3.51.32a21.48,21.48,0,0,1,2.67.42,48.25,48.25,0,0,1,1.05,4.78c.3,1.55.5,2.58.61,3.1a2.61,2.61,0,0,0,1,1.7,2.92,2.92,0,0,0,1.72.52,2.48,2.48,0,0,0,1.7-.58,1.79,1.79,0,0,0,.69-1.33,3.2,3.2,0,0,0-.05-.62C136.14,44,134.45,37,132.74,32.53ZM130.18,41c-.37,0-1.09,0-2.8-.23a14.21,14.21,0,0,1-1.76-.27A28.33,28.33,0,0,1,127,36.71a22.07,22.07,0,0,1,1.22-2.57,20.76,20.76,0,0,1,.93,2.79C129.9,39.64,130.12,40.62,130.18,41Z"/><path class="cls-2" d="M165.4,27.06a2.7,2.7,0,0,0-1.79.73,3.12,3.12,0,0,0-1.06,1.83c-.16,2.52-.57,5.79-1.2,9.72l-.44,2.51c-.06.26-.11.55-.15.85s-.09.53-.15.8a4.22,4.22,0,0,0-.12.76l-.5,2.46a84.23,84.23,0,0,1-3.12-7.84l-.09-.17a2.26,2.26,0,0,0-1.93-1.14c-1,0-2,.77-2.89,2.33a45.52,45.52,0,0,0-2.48,5.16c-.14.33-.27.64-.39.91-.56-4-1.13-9.51-1.7-16.32l0-.14a2.15,2.15,0,0,0-2.09-1.84,2.69,2.69,0,0,0-2,1,3.1,3.1,0,0,0-.83,2.18c.57,5.84.93,9.37,1,10.23s.17,1.55.24,2.23.13,1.18.17,1.46a3.65,3.65,0,0,1,0,.39c.88,8.91,2.13,10.74,3.74,10.74a3,3,0,0,0,2.43-1.42c.77-1.43,1.66-3.33,2.66-5.65.53-1.24,1-2.3,1.43-3.16l.35.79c.33.75.63,1.44.91,2.1a34.73,34.73,0,0,0,3.7,6.58,2.68,2.68,0,0,0,2,.76,2.12,2.12,0,0,0,2-1.28,23.61,23.61,0,0,0,1.1-4.29c.45-2.21.7-3.42.74-3.61s.17-.77.37-1.76.4-2,.59-3,.31-1.71.35-2,.12-.9.24-1.76.27-1.86.46-3,.37-3.17.54-5.9v-.15l0-.14C167,27.24,165.87,27.06,165.4,27.06Z"/><path class="cls-2" d="M184.28,32.53h0a17.41,17.41,0,0,0-1.9-3.9A3,3,0,0,0,180,27.38c-1.74,0-3.25,1.29-4.62,3.93-1,1.85-2.17,5.48-3.63,11.07s-2.17,9.31-2.17,11.35a2,2,0,0,0,2.29,2.08c1.75,0,2.29-.83,2.44-1.55.92-6.76,1.44-8.65,1.67-9.18l.46,0c.39,0,1.32.06,3.51.32a20.76,20.76,0,0,1,2.66.42,43.55,43.55,0,0,1,1.05,4.78c.3,1.55.5,2.58.61,3.11a2.61,2.61,0,0,0,1,1.69,2.92,2.92,0,0,0,1.72.52,2.48,2.48,0,0,0,1.7-.58,1.79,1.79,0,0,0,.69-1.33,3.05,3.05,0,0,0-.05-.62C187.69,44,186,37,184.28,32.53Zm-4.53,1.61a20.29,20.29,0,0,1,.94,2.79c.76,2.72,1,3.69,1,4-.37,0-1.09,0-2.8-.24a15,15,0,0,1-1.75-.27,26.28,26.28,0,0,1,1.37-3.75A24.58,24.58,0,0,1,179.75,34.14Z"/><path class="cls-2" d="M206,50.47v.29h0v-.29c-2.13,0-5.47,0-6.37-.06,0-1.92.42-14.61.56-18.95,0-1.14.06-1.85.06-1.87,0-.54-.21-2.29-2.86-2.29a3.73,3.73,0,0,0-1.77.39,1.76,1.76,0,0,0-1,1.56c0,.85-.39,20.83-.38,21.27s0,1.18.06,2.24c0,1.5.21,2.14.68,2.54s.78.6,7.43.6c1.68,0,4-.06,5-.55a2.73,2.73,0,0,0,1.43-2.59C208.89,52.22,208.68,50.47,206,50.47Z"/><path class="cls-2" d="M219.35,29.56a1.91,1.91,0,0,0-1.91-1.65,3.43,3.43,0,0,0-1.93.55A2.64,2.64,0,0,0,214.34,30l0,.17c0,.21.11,21-.16,23.69a1.93,1.93,0,0,0,2.05,2.09,3.31,3.31,0,0,0,1.88-.63,2.49,2.49,0,0,0,1.13-1.75c.22-2.68.33-6,.33-9.75-.08-6.23-.14-10.9-.16-14.06Z"/><path class="cls-2" d="M242.74,38.31a6.8,6.8,0,0,0,1.73-4.17,4.87,4.87,0,0,0-1.67-3.77c-4.2-3.69-12.18-3.25-13.93-2.44-2,.84-2,2.6-2,4.64,0,.24,0,.49,0,.75L227,43.5c0,3.52,0,7.1.12,10.69l0,.2A2,2,0,0,0,229.11,56a3,3,0,0,0,2-.83,2.66,2.66,0,0,0,.94-2l-.18-5.93c1,.83,2.73,2.56,4.41,4.23C239.84,55,240.94,56,241.36,56a2.7,2.7,0,0,0,1.87-.7,2.22,2.22,0,0,0,.84-1.67c0-1.36-1-3.09-3-5.29a40.94,40.94,0,0,0-5.34-4.79,22.82,22.82,0,0,0,3-1.67A16.8,16.8,0,0,0,242.74,38.31ZM236.58,38a13.75,13.75,0,0,1-4.68,2c0-3.68,0-6.07,0-7.46a11,11,0,0,1,2.79-.3,7.33,7.33,0,0,1,3.59.82A2,2,0,0,1,239.53,35C239.53,35.4,239.15,36.41,236.58,38Z"/><path class="cls-2" d="M264.11,32.53h0a17.52,17.52,0,0,0-1.91-3.9,3,3,0,0,0-2.42-1.25c-1.74,0-3.25,1.29-4.61,3.93-1,1.85-2.17,5.47-3.63,11.07s-2.18,9.3-2.18,11.35a2,2,0,0,0,2.29,2.08c1.75,0,2.3-.83,2.45-1.55.93-6.83,1.46-8.68,1.67-9.18l.45,0c.4,0,1.32.06,3.51.32a21.48,21.48,0,0,1,2.67.42,48.25,48.25,0,0,1,1.05,4.78c.3,1.55.5,2.58.61,3.11a2.56,2.56,0,0,0,1,1.69,2.94,2.94,0,0,0,1.72.52,2.53,2.53,0,0,0,1.71-.58,1.81,1.81,0,0,0,.68-1.33,2.56,2.56,0,0,0-.05-.62C267.51,44,265.82,37,264.11,32.53Zm-4.53,1.61a20.24,20.24,0,0,1,.93,2.79c.76,2.71,1,3.69,1,4-.37,0-1.09,0-2.8-.23a14.21,14.21,0,0,1-1.76-.27,28.33,28.33,0,0,1,1.37-3.75A22.07,22.07,0,0,1,259.58,34.14Z"/><path class="cls-2" d="M296.55,29.3v-.05c-.38-1.94-1.63-2.15-2.14-2.15-1.07,0-1.94.73-2.83,2.35a92.54,92.54,0,0,1-6.24,8.84c-.68-.56-2.85-4.28-4.17-6.55a20.74,20.74,0,0,0-2.19-3.5,3,3,0,0,0-1.65-.49,2.18,2.18,0,0,0-1.84,1,3.15,3.15,0,0,0-.64,1.86V42.12c0,5.23,0,9.1,0,11.53a2,2,0,0,0,2,2.25,3.57,3.57,0,0,0,2-.63A2.58,2.58,0,0,0,279.91,53c0-2.13-.07-10.12-.08-12.7,1.52,1.53,4.27,4.08,5.64,4.08s4.39-3.18,6-5.22c0,3.17.16,14.37.16,14.5a2,2,0,0,0,2,2.21,2.93,2.93,0,0,0,2.29-.79,3.61,3.61,0,0,0,.76-2.25c.06-.85.09-3.81.09-9.06S296.69,33.65,296.55,29.3Z"/><path class="cls-2" d="M106.33,37.73h0a20,20,0,0,1-4.21-1.17,2.15,2.15,0,0,1-1.52-2.08,1.64,1.64,0,0,1,.67-.87c.66-.54,2.65-1.7,6.62-.85a10.32,10.32,0,0,1,1.6.55c1.1.46,2.14.9,2.91-.43a3,3,0,0,0,.45-1.55c0-1.29-.79-2.33-2.35-3.09a11.19,11.19,0,0,0-4.87-1,12.93,12.93,0,0,0-7.26,1.91,6.42,6.42,0,0,0-3,5.6,6.51,6.51,0,0,0,2.15,5.29,12.59,12.59,0,0,0,5.85,2.36,13.45,13.45,0,0,1,2.92.8,3.11,3.11,0,0,1,2.26,3.11,4.16,4.16,0,0,1-1.15,3,3.1,3.1,0,0,1-2.22,1.18,8,8,0,0,1-2.87-.58c-.24-.09-.7-.29-1.57-.73s-1.34-.66-1.68-.81a2.12,2.12,0,0,0-1.91.13,3.49,3.49,0,0,0-1.27,1.09A2.42,2.42,0,0,0,95.34,51c0,1.1.83,2.08,2.53,3a14,14,0,0,0,6.77,1.86,8.61,8.61,0,0,0,5.48-1.58c2.3-1.82,3.46-4.63,3.46-8.36a7.45,7.45,0,0,0-2.11-5.74A10.26,10.26,0,0,0,106.33,37.73Z"/><path class="cls-2" d="M132.74,32.53h0a18.15,18.15,0,0,0-1.91-3.91,3,3,0,0,0-2.42-1.24c-1.74,0-3.25,1.29-4.61,3.93-1,1.85-2.18,5.47-3.64,11.07S118,51.69,118,53.73a2,2,0,0,0,2.29,2.08c1.75,0,2.3-.83,2.44-1.55.93-6.76,1.45-8.65,1.67-9.18l.46,0c.39,0,1.32.06,3.51.32a21.48,21.48,0,0,1,2.67.42,48.25,48.25,0,0,1,1.05,4.78c.3,1.55.5,2.58.61,3.1a2.61,2.61,0,0,0,1,1.7,2.92,2.92,0,0,0,1.72.52,2.48,2.48,0,0,0,1.7-.58,1.79,1.79,0,0,0,.69-1.33,3.2,3.2,0,0,0-.05-.62C136.14,44,134.45,37,132.74,32.53ZM130.18,41c-.37,0-1.09,0-2.8-.23a14.21,14.21,0,0,1-1.76-.27A28.33,28.33,0,0,1,127,36.71a22.07,22.07,0,0,1,1.22-2.57,20.76,20.76,0,0,1,.93,2.79C129.9,39.64,130.12,40.62,130.18,41Z"/><path class="cls-2" d="M165.4,27.06a2.7,2.7,0,0,0-1.79.73,3.12,3.12,0,0,0-1.06,1.83c-.16,2.52-.57,5.79-1.2,9.72l-.44,2.51c-.06.26-.11.55-.15.85s-.09.53-.15.8a4.22,4.22,0,0,0-.12.76l-.5,2.46a84.23,84.23,0,0,1-3.12-7.84l-.09-.17a2.26,2.26,0,0,0-1.93-1.14c-1,0-2,.77-2.89,2.33a45.52,45.52,0,0,0-2.48,5.16c-.14.33-.27.64-.39.91-.56-4-1.13-9.51-1.7-16.32l0-.14a2.15,2.15,0,0,0-2.09-1.84,2.69,2.69,0,0,0-2,1,3.1,3.1,0,0,0-.83,2.18c.57,5.84.93,9.37,1,10.23s.17,1.55.24,2.23.13,1.18.17,1.46a3.65,3.65,0,0,1,0,.39c.88,8.91,2.13,10.74,3.74,10.74a3,3,0,0,0,2.43-1.42c.77-1.43,1.66-3.33,2.66-5.65.53-1.24,1-2.3,1.43-3.16l.35.79c.33.75.63,1.44.91,2.1a34.73,34.73,0,0,0,3.7,6.58,2.68,2.68,0,0,0,2,.76,2.12,2.12,0,0,0,2-1.28,23.61,23.61,0,0,0,1.1-4.29c.45-2.21.7-3.42.74-3.61s.17-.77.37-1.76.4-2,.59-3,.31-1.71.35-2,.12-.9.24-1.76.27-1.86.46-3,.37-3.17.54-5.9v-.15l0-.14C167,27.24,165.87,27.06,165.4,27.06Z"/><path class="cls-2" d="M184.28,32.53h0a17.41,17.41,0,0,0-1.9-3.9A3,3,0,0,0,180,27.38c-1.74,0-3.25,1.29-4.62,3.93-1,1.85-2.17,5.48-3.63,11.07s-2.17,9.31-2.17,11.35a2,2,0,0,0,2.29,2.08c1.75,0,2.29-.83,2.44-1.55.92-6.76,1.44-8.65,1.67-9.18l.46,0c.39,0,1.32.06,3.51.32a20.76,20.76,0,0,1,2.66.42,43.55,43.55,0,0,1,1.05,4.78c.3,1.55.5,2.58.61,3.11a2.61,2.61,0,0,0,1,1.69,2.92,2.92,0,0,0,1.72.52,2.48,2.48,0,0,0,1.7-.58,1.79,1.79,0,0,0,.69-1.33,3.05,3.05,0,0,0-.05-.62C187.69,44,186,37,184.28,32.53Zm-4.53,1.61a20.29,20.29,0,0,1,.94,2.79c.76,2.72,1,3.69,1,4-.37,0-1.09,0-2.8-.24a15,15,0,0,1-1.75-.27,26.28,26.28,0,0,1,1.37-3.75A24.58,24.58,0,0,1,179.75,34.14Z"/><path class="cls-2" d="M206,50.47v.29h0v-.29c-2.13,0-5.47,0-6.37-.06,0-1.92.42-14.61.56-18.95,0-1.14.06-1.85.06-1.87,0-.54-.21-2.29-2.86-2.29a3.73,3.73,0,0,0-1.77.39,1.76,1.76,0,0,0-1,1.56c0,.85-.39,20.83-.38,21.27s0,1.18.06,2.24c0,1.5.21,2.14.68,2.54s.78.6,7.43.6c1.68,0,4-.06,5-.55a2.73,2.73,0,0,0,1.43-2.59C208.89,52.22,208.68,50.47,206,50.47Z"/><path class="cls-2" d="M219.35,29.56a1.91,1.91,0,0,0-1.91-1.65,3.43,3.43,0,0,0-1.93.55A2.64,2.64,0,0,0,214.34,30l0,.17c0,.21.11,21-.16,23.69a1.93,1.93,0,0,0,2.05,2.09,3.31,3.31,0,0,0,1.88-.63,2.49,2.49,0,0,0,1.13-1.75c.22-2.68.33-6,.33-9.75-.08-6.23-.14-10.9-.16-14.06Z"/><path class="cls-2" d="M242.74,38.31a6.8,6.8,0,0,0,1.73-4.17,4.87,4.87,0,0,0-1.67-3.77c-4.2-3.69-12.18-3.25-13.93-2.44-2,.84-2,2.6-2,4.64,0,.24,0,.49,0,.75L227,43.5c0,3.52,0,7.1.12,10.69l0,.2A2,2,0,0,0,229.11,56a3,3,0,0,0,2-.83,2.66,2.66,0,0,0,.94-2l-.18-5.93c1,.83,2.73,2.56,4.41,4.23C239.84,55,240.94,56,241.36,56a2.7,2.7,0,0,0,1.87-.7,2.22,2.22,0,0,0,.84-1.67c0-1.36-1-3.09-3-5.29a40.94,40.94,0,0,0-5.34-4.79,22.82,22.82,0,0,0,3-1.67A16.8,16.8,0,0,0,242.74,38.31ZM236.58,38a13.75,13.75,0,0,1-4.68,2c0-3.68,0-6.07,0-7.46a11,11,0,0,1,2.79-.3,7.33,7.33,0,0,1,3.59.82A2,2,0,0,1,239.53,35C239.53,35.4,239.15,36.41,236.58,38Z"/><path class="cls-2" d="M264.11,32.53h0a17.52,17.52,0,0,0-1.91-3.9,3,3,0,0,0-2.42-1.25c-1.74,0-3.25,1.29-4.61,3.93-1,1.85-2.17,5.47-3.63,11.07s-2.18,9.3-2.18,11.35a2,2,0,0,0,2.29,2.08c1.75,0,2.3-.83,2.45-1.55.93-6.83,1.46-8.68,1.67-9.18l.45,0c.4,0,1.32.06,3.51.32a21.48,21.48,0,0,1,2.67.42,48.25,48.25,0,0,1,1.05,4.78c.3,1.55.5,2.58.61,3.11a2.56,2.56,0,0,0,1,1.69,2.94,2.94,0,0,0,1.72.52,2.53,2.53,0,0,0,1.71-.58,1.81,1.81,0,0,0,.68-1.33,2.56,2.56,0,0,0-.05-.62C267.51,44,265.82,37,264.11,32.53Zm-4.53,1.61a20.24,20.24,0,0,1,.93,2.79c.76,2.71,1,3.69,1,4-.37,0-1.09,0-2.8-.23a14.21,14.21,0,0,1-1.76-.27,28.33,28.33,0,0,1,1.37-3.75A22.07,22.07,0,0,1,259.58,34.14Z"/><path class="cls-2" d="M296.55,29.3v-.05c-.38-1.94-1.63-2.15-2.14-2.15-1.07,0-1.94.73-2.83,2.35a92.54,92.54,0,0,1-6.24,8.84c-.68-.56-2.85-4.28-4.17-6.55a20.74,20.74,0,0,0-2.19-3.5,3,3,0,0,0-1.65-.49,2.18,2.18,0,0,0-1.84,1,3.15,3.15,0,0,0-.64,1.86V42.12c0,5.23,0,9.1,0,11.53a2,2,0,0,0,2,2.25,3.57,3.57,0,0,0,2-.63A2.58,2.58,0,0,0,279.91,53c0-2.13-.07-10.12-.08-12.7,1.52,1.53,4.27,4.08,5.64,4.08s4.39-3.18,6-5.22c0,3.17.16,14.37.16,14.5a2,2,0,0,0,2,2.21,2.93,2.93,0,0,0,2.29-.79,3.61,3.61,0,0,0,.76-2.25c.06-.85.09-3.81.09-9.06S296.69,33.65,296.55,29.3Z"/></g></svg>