<svg xmlns="http://www.w3.org/2000/svg" viewBox="0 0 297 85"><defs><style>.cls-1{fill:none;}.cls-2{fill:#1a1a1a;}.cls-3{fill:#feb740;}.cls-4{fill:#fff;}.cls-5{fill:#231f20;}</style></defs><title>Logo-24</title><g id="Grid"><rect class="cls-1" width="297" height="85"/><path class="cls-2" d="M106.33,37.77h0a20,20,0,0,1-4.21-1.17,2.14,2.14,0,0,1-1.52-2.07,1.65,1.65,0,0,1,.67-.88c.66-.54,2.65-1.7,6.62-.84a8.57,8.57,0,0,1,1.6.55c1.1.45,2.14.89,2.91-.44a3,3,0,0,0,.45-1.55c0-1.29-.79-2.33-2.35-3.08a11,11,0,0,0-4.87-1,12.85,12.85,0,0,0-7.26,1.92,6.41,6.41,0,0,0-3,5.59,6.51,6.51,0,0,0,2.15,5.29,12.59,12.59,0,0,0,5.85,2.36,13.45,13.45,0,0,1,2.92.8,3.11,3.11,0,0,1,2.26,3.11,4.14,4.14,0,0,1-1.15,3,3.11,3.11,0,0,1-2.22,1.19,8,8,0,0,1-2.87-.59c-.24-.09-.7-.29-1.57-.73s-1.34-.65-1.68-.81a2.1,2.1,0,0,0-1.91.14,3.47,3.47,0,0,0-1.27,1.08,2.42,2.42,0,0,0-.51,1.42c0,1.1.83,2.08,2.53,3a14,14,0,0,0,6.77,1.86,8.61,8.61,0,0,0,5.48-1.58c2.3-1.82,3.46-4.63,3.46-8.36a7.47,7.47,0,0,0-2.11-5.74A10.35,10.35,0,0,0,106.33,37.77Z"/><path class="cls-2" d="M132.74,32.58h0a17.67,17.67,0,0,0-1.91-3.91,2.94,2.94,0,0,0-2.42-1.24c-1.74,0-3.25,1.28-4.61,3.92-1,1.85-2.18,5.47-3.64,11.07S118,51.74,118,53.77a2,2,0,0,0,2.29,2.09c1.75,0,2.3-.84,2.44-1.56.93-6.76,1.45-8.65,1.67-9.18l.46,0c.39,0,1.32.06,3.51.32a21.48,21.48,0,0,1,2.67.42,48.25,48.25,0,0,1,1.05,4.78c.3,1.55.5,2.59.61,3.11a2.61,2.61,0,0,0,1,1.69,2.85,2.85,0,0,0,1.72.52,2.48,2.48,0,0,0,1.7-.58,1.79,1.79,0,0,0,.69-1.33,3.2,3.2,0,0,0-.05-.62C136.14,44,134.45,37,132.74,32.58ZM130.18,41c-.37,0-1.09,0-2.8-.24a14.21,14.21,0,0,1-1.76-.27A27.92,27.92,0,0,1,127,36.76a21.65,21.65,0,0,1,1.22-2.58,20.76,20.76,0,0,1,.93,2.79C129.9,39.69,130.12,40.66,130.18,41Z"/><path class="cls-2" d="M165.4,27.1a2.75,2.75,0,0,0-1.79.73,3.15,3.15,0,0,0-1.06,1.83c-.16,2.52-.57,5.79-1.2,9.72l-.44,2.51c-.06.26-.11.55-.15.85s-.09.53-.15.8a4.22,4.22,0,0,0-.12.76l-.5,2.46a84.23,84.23,0,0,1-3.12-7.84l-.09-.17a2.26,2.26,0,0,0-1.93-1.14c-1,0-2,.77-2.89,2.34a44.69,44.69,0,0,0-2.48,5.16l-.39.9c-.56-4-1.13-9.51-1.7-16.32l0-.14a2.15,2.15,0,0,0-2.09-1.84,2.67,2.67,0,0,0-2,1,3.08,3.08,0,0,0-.83,2.17c.57,5.84.93,9.38,1,10.23s.17,1.56.24,2.23.13,1.18.17,1.46a3.73,3.73,0,0,1,0,.4c.88,8.9,2.13,10.73,3.74,10.73a3,3,0,0,0,2.43-1.42c.77-1.42,1.66-3.32,2.66-5.65.53-1.23,1-2.3,1.43-3.16l.35.79c.33.75.63,1.44.91,2.1a34.12,34.12,0,0,0,3.7,6.58,2.68,2.68,0,0,0,2,.76,2.12,2.12,0,0,0,2-1.28,23.61,23.61,0,0,0,1.1-4.29c.45-2.21.7-3.41.74-3.61s.17-.77.37-1.76.4-2,.59-3,.31-1.7.35-2,.12-.9.24-1.76.27-1.85.46-3,.37-3.17.54-5.9v-.14l0-.15C167,27.29,165.87,27.1,165.4,27.1Z"/><path class="cls-2" d="M184.28,32.58h0a17.31,17.31,0,0,0-1.9-3.91A3,3,0,0,0,180,27.43c-1.74,0-3.25,1.28-4.62,3.92-1,1.85-2.17,5.48-3.63,11.07s-2.17,9.31-2.17,11.35a2,2,0,0,0,2.29,2.09c1.75,0,2.29-.84,2.44-1.56.92-6.76,1.44-8.65,1.67-9.18l.46,0c.39,0,1.32.06,3.51.32a20.76,20.76,0,0,1,2.66.42,43.55,43.55,0,0,1,1.05,4.78c.3,1.55.5,2.58.61,3.11a2.61,2.61,0,0,0,1,1.69,2.85,2.85,0,0,0,1.72.52,2.48,2.48,0,0,0,1.7-.58,1.79,1.79,0,0,0,.69-1.33,3.05,3.05,0,0,0-.05-.62C187.69,44,186,37,184.28,32.58Zm-4.53,1.6a20.29,20.29,0,0,1,.94,2.79c.76,2.72,1,3.7,1,4-.37,0-1.09,0-2.8-.24a15,15,0,0,1-1.75-.27,25.92,25.92,0,0,1,1.37-3.74A24.06,24.06,0,0,1,179.75,34.18Z"/><path class="cls-2" d="M206,50.51v.29h0v-.29c-2.13,0-5.47,0-6.37-.06,0-1.92.42-14.6.56-18.94,0-1.15.06-1.85.06-1.88,0-.54-.21-2.29-2.86-2.29a3.73,3.73,0,0,0-1.77.4,1.75,1.75,0,0,0-1,1.55c0,.85-.39,20.83-.38,21.27s0,1.18.06,2.24c0,1.5.21,2.14.68,2.55.35.26.78.59,7.43.59,1.68,0,4-.06,5-.55a2.72,2.72,0,0,0,1.43-2.59C208.89,52.26,208.68,50.51,206,50.51Z"/><path class="cls-2" d="M219.35,29.6A1.92,1.92,0,0,0,217.44,28a3.51,3.51,0,0,0-1.93.55A2.64,2.64,0,0,0,214.34,30l0,.17c0,.21.11,21-.16,23.69a1.92,1.92,0,0,0,2.05,2.09,3.31,3.31,0,0,0,1.88-.63,2.47,2.47,0,0,0,1.13-1.75c.22-2.68.33-6,.33-9.75q-.12-9.33-.16-14.06Z"/><path class="cls-2" d="M242.74,38.35a6.8,6.8,0,0,0,1.73-4.17,4.84,4.84,0,0,0-1.67-3.76c-4.2-3.7-12.18-3.26-13.93-2.45-2,.84-2,2.6-2,4.64,0,.25,0,.5,0,.75L227,43.54c0,3.52,0,7.11.12,10.69l0,.2a2,2,0,0,0,1.91,1.63,3,3,0,0,0,2-.83,2.64,2.64,0,0,0,.94-2l-.18-5.94c1,.83,2.73,2.56,4.41,4.24,3.55,3.52,4.65,4.54,5.07,4.54a2.7,2.7,0,0,0,1.87-.7,2.22,2.22,0,0,0,.84-1.67c0-1.36-1-3.09-3-5.29a40.94,40.94,0,0,0-5.34-4.79,21.73,21.73,0,0,0,3-1.67A16.8,16.8,0,0,0,242.74,38.35Zm-6.16-.27a13.55,13.55,0,0,1-4.68,2c0-3.68,0-6.07,0-7.45a10.48,10.48,0,0,1,2.79-.31,7.33,7.33,0,0,1,3.59.82A2,2,0,0,1,239.53,35C239.53,35.45,239.15,36.45,236.58,38.08Z"/><path class="cls-2" d="M264.11,32.58h0a17.76,17.76,0,0,0-1.91-3.9,2.94,2.94,0,0,0-2.42-1.24c-1.74,0-3.25,1.28-4.61,3.92-1,1.85-2.17,5.47-3.63,11.07s-2.18,9.31-2.18,11.35a2,2,0,0,0,2.29,2.09c1.75,0,2.3-.84,2.45-1.56.93-6.82,1.46-8.68,1.67-9.18l.45,0c.4,0,1.32.06,3.51.32a21.48,21.48,0,0,1,2.67.42,48.25,48.25,0,0,1,1.05,4.78c.3,1.55.5,2.58.61,3.11a2.56,2.56,0,0,0,1,1.69,2.87,2.87,0,0,0,1.72.52,2.53,2.53,0,0,0,1.71-.58,1.81,1.81,0,0,0,.68-1.33,2.56,2.56,0,0,0-.05-.62C267.51,44,265.82,37,264.11,32.58Zm-4.53,1.6a20.76,20.76,0,0,1,.93,2.79c.76,2.72,1,3.69,1,4-.37,0-1.09,0-2.8-.24A14.21,14.21,0,0,1,257,40.5a27.92,27.92,0,0,1,1.37-3.74A21.65,21.65,0,0,1,259.58,34.18Z"/><path class="cls-2" d="M296.55,29.34v-.05c-.38-1.94-1.63-2.15-2.14-2.15-1.07,0-1.94.73-2.83,2.35a91.28,91.28,0,0,1-6.24,8.84c-.68-.56-2.85-4.28-4.17-6.54A21.18,21.18,0,0,0,279,28.28a3,3,0,0,0-1.65-.49,2.21,2.21,0,0,0-1.84,1,3.18,3.18,0,0,0-.64,1.87V42.17c0,5.22,0,9.09,0,11.52a2,2,0,0,0,2,2.25,3.57,3.57,0,0,0,2-.63,2.58,2.58,0,0,0,1.06-2.24c0-2.13-.07-10.12-.08-12.69,1.52,1.53,4.27,4.07,5.64,4.07s4.39-3.18,6-5.22c0,3.17.16,14.37.16,14.5a2,2,0,0,0,2,2.21,3,3,0,0,0,2.29-.78,3.67,3.67,0,0,0,.76-2.26c.06-.85.09-3.81.09-9.06S296.69,33.69,296.55,29.34Z"/><path class="cls-2" d="M106.33,37.77h0a20,20,0,0,1-4.21-1.17,2.14,2.14,0,0,1-1.52-2.07,1.65,1.65,0,0,1,.67-.88c.66-.54,2.65-1.7,6.62-.84a8.57,8.57,0,0,1,1.6.55c1.1.45,2.14.89,2.91-.44a3,3,0,0,0,.45-1.55c0-1.29-.79-2.33-2.35-3.08a11,11,0,0,0-4.87-1,12.85,12.85,0,0,0-7.26,1.92,6.41,6.41,0,0,0-3,5.59,6.51,6.51,0,0,0,2.15,5.29,12.59,12.59,0,0,0,5.85,2.36,13.45,13.45,0,0,1,2.92.8,3.11,3.11,0,0,1,2.26,3.11,4.14,4.14,0,0,1-1.15,3,3.11,3.11,0,0,1-2.22,1.19,8,8,0,0,1-2.87-.59c-.24-.09-.7-.29-1.57-.73s-1.34-.65-1.68-.81a2.1,2.1,0,0,0-1.91.14,3.47,3.47,0,0,0-1.27,1.08,2.42,2.42,0,0,0-.51,1.42c0,1.1.83,2.08,2.53,3a14,14,0,0,0,6.77,1.86,8.61,8.61,0,0,0,5.48-1.58c2.3-1.82,3.46-4.63,3.46-8.36a7.47,7.47,0,0,0-2.11-5.74A10.35,10.35,0,0,0,106.33,37.77Z"/><path class="cls-2" d="M132.74,32.58h0a17.67,17.67,0,0,0-1.91-3.91,2.94,2.94,0,0,0-2.42-1.24c-1.74,0-3.25,1.28-4.61,3.92-1,1.85-2.18,5.47-3.64,11.07S118,51.74,118,53.77a2,2,0,0,0,2.29,2.09c1.75,0,2.3-.84,2.44-1.56.93-6.76,1.45-8.65,1.67-9.18l.46,0c.39,0,1.32.06,3.51.32a21.48,21.48,0,0,1,2.67.42,48.25,48.25,0,0,1,1.05,4.78c.3,1.55.5,2.59.61,3.11a2.61,2.61,0,0,0,1,1.69,2.85,2.85,0,0,0,1.72.52,2.48,2.48,0,0,0,1.7-.58,1.79,1.79,0,0,0,.69-1.33,3.2,3.2,0,0,0-.05-.62C136.14,44,134.45,37,132.74,32.58ZM130.18,41c-.37,0-1.09,0-2.8-.24a14.21,14.21,0,0,1-1.76-.27A27.92,27.92,0,0,1,127,36.76a21.65,21.65,0,0,1,1.22-2.58,20.76,20.76,0,0,1,.93,2.79C129.9,39.69,130.12,40.66,130.18,41Z"/><path class="cls-2" d="M165.4,27.1a2.75,2.75,0,0,0-1.79.73,3.15,3.15,0,0,0-1.06,1.83c-.16,2.52-.57,5.79-1.2,9.72l-.44,2.51c-.06.26-.11.55-.15.85s-.09.53-.15.8a4.22,4.22,0,0,0-.12.76l-.5,2.46a84.23,84.23,0,0,1-3.12-7.84l-.09-.17a2.26,2.26,0,0,0-1.93-1.14c-1,0-2,.77-2.89,2.34a44.69,44.69,0,0,0-2.48,5.16l-.39.9c-.56-4-1.13-9.51-1.7-16.32l0-.14a2.15,2.15,0,0,0-2.09-1.84,2.67,2.67,0,0,0-2,1,3.08,3.08,0,0,0-.83,2.17c.57,5.84.93,9.38,1,10.23s.17,1.56.24,2.23.13,1.18.17,1.46a3.73,3.73,0,0,1,0,.4c.88,8.9,2.13,10.73,3.74,10.73a3,3,0,0,0,2.43-1.42c.77-1.42,1.66-3.32,2.66-5.65.53-1.23,1-2.3,1.43-3.16l.35.79c.33.75.63,1.44.91,2.1a34.12,34.12,0,0,0,3.7,6.58,2.68,2.68,0,0,0,2,.76,2.12,2.12,0,0,0,2-1.28,23.61,23.61,0,0,0,1.1-4.29c.45-2.21.7-3.41.74-3.61s.17-.77.37-1.76.4-2,.59-3,.31-1.7.35-2,.12-.9.24-1.76.27-1.85.46-3,.37-3.17.54-5.9v-.14l0-.15C167,27.29,165.87,27.1,165.4,27.1Z"/><path class="cls-2" d="M184.28,32.58h0a17.31,17.31,0,0,0-1.9-3.91A3,3,0,0,0,180,27.43c-1.74,0-3.25,1.28-4.62,3.92-1,1.85-2.17,5.48-3.63,11.07s-2.17,9.31-2.17,11.35a2,2,0,0,0,2.29,2.09c1.75,0,2.29-.84,2.44-1.56.92-6.76,1.44-8.65,1.67-9.18l.46,0c.39,0,1.32.06,3.51.32a20.76,20.76,0,0,1,2.66.42,43.55,43.55,0,0,1,1.05,4.78c.3,1.55.5,2.58.61,3.11a2.61,2.61,0,0,0,1,1.69,2.85,2.85,0,0,0,1.72.52,2.48,2.48,0,0,0,1.7-.58,1.79,1.79,0,0,0,.69-1.33,3.05,3.05,0,0,0-.05-.62C187.69,44,186,37,184.28,32.58Zm-4.53,1.6a20.29,20.29,0,0,1,.94,2.79c.76,2.72,1,3.7,1,4-.37,0-1.09,0-2.8-.24a15,15,0,0,1-1.75-.27,25.92,25.92,0,0,1,1.37-3.74A24.06,24.06,0,0,1,179.75,34.18Z"/><path class="cls-2" d="M206,50.51v.29h0v-.29c-2.13,0-5.47,0-6.37-.06,0-1.92.42-14.6.56-18.94,0-1.15.06-1.85.06-1.88,0-.54-.21-2.29-2.86-2.29a3.73,3.73,0,0,0-1.77.4,1.75,1.75,0,0,0-1,1.55c0,.85-.39,20.83-.38,21.27s0,1.18.06,2.24c0,1.5.21,2.14.68,2.55.35.26.78.59,7.43.59,1.68,0,4-.06,5-.55a2.72,2.72,0,0,0,1.43-2.59C208.89,52.26,208.68,50.51,206,50.51Z"/><path class="cls-2" d="M219.35,29.6A1.92,1.92,0,0,0,217.44,28a3.51,3.51,0,0,0-1.93.55A2.64,2.64,0,0,0,214.34,30l0,.17c0,.21.11,21-.16,23.69a1.92,1.92,0,0,0,2.05,2.09,3.31,3.31,0,0,0,1.88-.63,2.47,2.47,0,0,0,1.13-1.75c.22-2.68.33-6,.33-9.75q-.12-9.33-.16-14.06Z"/><path class="cls-2" d="M242.74,38.35a6.8,6.8,0,0,0,1.73-4.17,4.84,4.84,0,0,0-1.67-3.76c-4.2-3.7-12.18-3.26-13.93-2.45-2,.84-2,2.6-2,4.64,0,.25,0,.5,0,.75L227,43.54c0,3.52,0,7.11.12,10.69l0,.2a2,2,0,0,0,1.91,1.63,3,3,0,0,0,2-.83,2.64,2.64,0,0,0,.94-2l-.18-5.94c1,.83,2.73,2.56,4.41,4.24,3.55,3.52,4.65,4.54,5.07,4.54a2.7,2.7,0,0,0,1.87-.7,2.22,2.22,0,0,0,.84-1.67c0-1.36-1-3.09-3-5.29a40.94,40.94,0,0,0-5.34-4.79,21.73,21.73,0,0,0,3-1.67A16.8,16.8,0,0,0,242.74,38.35Zm-6.16-.27a13.55,13.55,0,0,1-4.68,2c0-3.68,0-6.07,0-7.45a10.48,10.48,0,0,1,2.79-.31,7.33,7.33,0,0,1,3.59.82A2,2,0,0,1,239.53,35C239.53,35.45,239.15,36.45,236.58,38.08Z"/><path class="cls-2" d="M264.11,32.58h0a17.76,17.76,0,0,0-1.91-3.9,2.94,2.94,0,0,0-2.42-1.24c-1.74,0-3.25,1.28-4.61,3.92-1,1.85-2.17,5.47-3.63,11.07s-2.18,9.31-2.18,11.35a2,2,0,0,0,2.29,2.09c1.75,0,2.3-.84,2.45-1.56.93-6.82,1.46-8.68,1.67-9.18l.45,0c.4,0,1.32.06,3.51.32a21.48,21.48,0,0,1,2.67.42,48.25,48.25,0,0,1,1.05,4.78c.3,1.55.5,2.58.61,3.11a2.56,2.56,0,0,0,1,1.69,2.87,2.87,0,0,0,1.72.52,2.53,2.53,0,0,0,1.71-.58,1.81,1.81,0,0,0,.68-1.33,2.56,2.56,0,0,0-.05-.62C267.51,44,265.82,37,264.11,32.58Zm-4.53,1.6a20.76,20.76,0,0,1,.93,2.79c.76,2.72,1,3.69,1,4-.37,0-1.09,0-2.8-.24A14.21,14.21,0,0,1,257,40.5a27.92,27.92,0,0,1,1.37-3.74A21.65,21.65,0,0,1,259.58,34.18Z"/><path class="cls-2" d="M296.55,29.34v-.05c-.38-1.94-1.63-2.15-2.14-2.15-1.07,0-1.94.73-2.83,2.35a91.28,91.28,0,0,1-6.24,8.84c-.68-.56-2.85-4.28-4.17-6.54A21.18,21.18,0,0,0,279,28.28a3,3,0,0,0-1.65-.49,2.21,2.21,0,0,0-1.84,1,3.18,3.18,0,0,0-.64,1.87V42.17c0,5.22,0,9.09,0,11.52a2,2,0,0,0,2,2.25,3.57,3.57,0,0,0,2-.63,2.58,2.58,0,0,0,1.06-2.24c0-2.13-.07-10.12-.08-12.69,1.52,1.53,4.27,4.07,5.64,4.07s4.39-3.18,6-5.22c0,3.17.16,14.37.16,14.5a2,2,0,0,0,2,2.21,3,3,0,0,0,2.29-.78,3.67,3.67,0,0,0,.76-2.26c.06-.85.09-3.81.09-9.06S296.69,33.69,296.55,29.34Z"/><path class="cls-3" d="M79.69,32.36C69.4,15,42.36,10.93,27.38,12.3a32.26,32.26,0,0,0-26,18C-1,35.4-3,69.28,19.52,70.4c8.09.4,19.56-5.82,30-4.71,3.45.37,5.72,2.58,8.85,3.78,4.2,1.6,15.45-6.72,17.22-9.06C82,52,84.22,43.32,80.4,33.94A11.21,11.21,0,0,0,79.69,32.36Z"/><path class="cls-4" d="M31,30.45c0-.2-.34-.2-.7-.11a4.43,4.43,0,0,0-1.19.47,5.84,5.84,0,0,0-1.33,1.71A7.2,7.2,0,0,0,27.11,34a24.22,24.22,0,0,0-1.47,3.65c-.56,1.73-.86,4.21-2.06,5.65-.55.67-1.23.28-2.12.19-.63-.06-2.2.16-2.71-.28-.78-.67,0-2.45.25-3.26a51.14,51.14,0,0,1,2.19-5.75A57.93,57.93,0,0,1,24.37,28a12.3,12.3,0,0,1,3-3.75,1,1,0,0,1,.36-.2h.08l0,0a10.31,10.31,0,0,1,1.06.38c.32.12.64.26.95.39A45.76,45.76,0,0,1,30.94,30C31,30.15,31,30.3,31,30.45Z"/><path class="cls-4" d="M52.2,23.84A12.31,12.31,0,0,1,46.29,31a7.28,7.28,0,0,1-4.68.62A24.09,24.09,0,0,1,38,30.37a12.76,12.76,0,0,0-.62-3.5,8.46,8.46,0,0,0,3-.76c2.38-1.1,4.35-3.37,4.2-6.12-.26-4.83-5.48-8.36-9.14-10.65-1-.64-2.93-1.18-2.79-2.68a4.9,4.9,0,0,1,1.95-3C37,1.7,39.49,3.26,41.73,4.78c4.86,3.29,10.61,7.66,11.14,14A12.56,12.56,0,0,1,52.2,23.84Z"/><path class="cls-5" d="M71.28,81.28c-.8-1.48-3.39-5-4.11-6.31-1.84-3.35-3.6-6.81-5.2-10.28C61.21,63,56.35,52.3,54.89,51.11a29.52,29.52,0,0,0-6.32-3.22,3.17,3.17,0,0,0,.06-.76,33.64,33.64,0,0,0-.49-5.58c-.39-2.28-1.09-5-3-6.51a12.6,12.6,0,0,0-1.46-1h.13A11.93,11.93,0,0,0,52.11,29a16.32,16.32,0,0,0,2.26-4.29,1.67,1.67,0,0,0,.08-.2c2.35-7.14-1.26-13.7-6.81-18.16A36.08,36.08,0,0,0,39.8,1,6.38,6.38,0,0,0,32.29,2.6c-1.69,1.77-3,4.85-1,6.88a10.73,10.73,0,0,0,2.13,1.4c.93.56,1.85,1.14,2.74,1.76A24.26,24.26,0,0,1,40,15.82c1.18,1.25,2.44,2.94,2.28,4.77a4.11,4.11,0,0,1-1.66,2.69,6.17,6.17,0,0,1-4.14,1.31A23.32,23.32,0,0,0,30,17.28c-.8-.62-2.06-1.72-3.14-1.67-.13,1.12.67,2.12,1,3.12s.68,2.14,1,3.21a3.09,3.09,0,0,0-1.75-.14c-1.59.42-2.74,2.05-3.63,3.31A42.62,42.62,0,0,0,20,31.36a65.86,65.86,0,0,0-2.78,6.74,12.09,12.09,0,0,0-1,4.42,3.4,3.4,0,0,0,1.3,2.64,6.45,6.45,0,0,0,3.22.62c1.15.08,2.42.52,3.52,0a4.07,4.07,0,0,0,1.75-1.85c1-1.84,1.55-5,2.64-7.71a9.5,9.5,0,0,0,1.35.31,18,18,0,0,0-.24,7.22c.47,3.23,1.51,7.51,4.69,9a3.28,3.28,0,0,0-.34.64c-2.94,7.46-2.57,7.22,2.88,11.2,1.08.78,3.11,2.17,5.33,3.61A25.46,25.46,0,0,0,42,71c0,.27,0,.54-.08.81a.33.33,0,0,0,0,.1,2.19,2.19,0,0,0-.44.35c-.39.32-.75.69-1.11,1.05-1.4,1.43-2.84,2.82-4.23,4.27-.69.71-1.35,1.45-2,2.22a1.83,1.83,0,0,1-.13.16,7,7,0,0,0-3,0,1.17,1.17,0,0,0-.81,1.43,1.19,1.19,0,0,0,1.43.82l.16,0H32a3,3,0,0,1,.52,0,1.18,1.18,0,0,0,.07,1.57,1.21,1.21,0,0,0,1.65,0,3,3,0,0,0,.66-1l.06,0a0,0,0,0,0,0,0l.12.12a1.17,1.17,0,0,0,1.65,0,1.21,1.21,0,0,0,0-1.65,2.73,2.73,0,0,0-.48-.41c.5-.59,1-1.16,1.57-1.71,1.48-1.53,3-3,4.5-4.53.54-.54,1.49-1,1.72-1.78a6.55,6.55,0,0,0,.18-1.33c.06-.58.11-1.17.16-1.76,0,0,0-.07,0-.11l1.43.88c1.07.65,2.09,1.24,3,1.72h0a21.12,21.12,0,0,0,1.92.93c1.53.61,3.62,1.37,5.2,2.2.72,1.26,5.21,7.06,6.94,9.35a.93.93,0,0,0,1.64-.38C67.25,86.3,71.86,82.33,71.28,81.28Zm-38.11.86H33.1C33,82.1,33.38,82.16,33.17,82.14Zm7.19-56c2.38-1.1,4.35-3.37,4.2-6.12-.26-4.83-5.48-8.36-9.14-10.65-1-.64-2.93-1.18-2.79-2.68a4.9,4.9,0,0,1,1.95-3C37,1.7,39.49,3.26,41.73,4.78c4.86,3.29,10.61,7.66,11.14,14a12.56,12.56,0,0,1-.67,5.05A12.31,12.31,0,0,1,46.29,31a7.28,7.28,0,0,1-4.68.62A24.09,24.09,0,0,1,38,30.37a12.76,12.76,0,0,0-.62-3.5A8.46,8.46,0,0,0,40.36,26.11Zm-10,4.23a4.43,4.43,0,0,0-1.19.47,5.84,5.84,0,0,0-1.33,1.71A7.2,7.2,0,0,0,27.11,34a24.22,24.22,0,0,0-1.47,3.65c-.56,1.73-.86,4.21-2.06,5.65-.55.67-1.23.28-2.12.19-.63-.06-2.2.16-2.71-.28-.78-.67,0-2.45.25-3.26a51.14,51.14,0,0,1,2.19-5.75A57.93,57.93,0,0,1,24.37,28a12.3,12.3,0,0,1,3-3.75,1,1,0,0,1,.36-.2h.08l0,0a10.31,10.31,0,0,1,1.06.38c.32.12.64.26.95.39A45.76,45.76,0,0,1,30.94,30c0,.14,0,.29.07.44C31,30.25,30.67,30.25,30.31,30.34ZM36.53,51l-.21,0h0c-1.88-.32-2.65-1.7-3.28-3.39a20.45,20.45,0,0,1-1.27-7.26,8.34,8.34,0,0,1,1.35-5h0a4,4,0,0,1,1.37-1.14.23.23,0,0,1,.11,0,8,8,0,0,1,4.15.33,15.36,15.36,0,0,1,3.9,1.69A6,6,0,0,1,45.41,40a24.84,24.84,0,0,1,.89,7l-.53.38c-.34.24-.69.47-1.05.7s-.95.58-1.43.85C41.3,50.09,38.87,51.24,36.53,51Zm16.3,16.75C48.06,66.09,44.68,62.23,41,59a1.15,1.15,0,0,1,0-1.61,1.16,1.16,0,0,1,1.6,0c3.39,2.92,6.52,6.63,10.87,8.12C54.81,66,54.21,68.2,52.83,67.72Z"/><path d="M31,30.45c0-.2-.34-.2-.7-.11a4.21,4.21,0,0,1,.63-.33C31,30.15,31,30.3,31,30.45Z"/><path class="cls-5" d="M34.6,34.12l-1.48,1.17a4,4,0,0,1,1.37-1.14A.23.23,0,0,1,34.6,34.12Z"/><path class="cls-5" d="M33.17,82.14H33.1C33,82.1,33.38,82.16,33.17,82.14Z"/><path class="cls-4" d="M45.41,40a6,6,0,0,0-2.76-3.88,15.36,15.36,0,0,0-3.9-1.69,8,8,0,0,0-4.15-.33l-1.48,1.17h0a8.34,8.34,0,0,0-1.35,5A20.45,20.45,0,0,0,33,47.55c.63,1.69,1.4,3.07,3.28,3.39h0l.21,0c2.34.27,4.77-.88,6.76-2,.48-.27,1-.55,1.43-.85s.71-.46,1.05-.7l.53-.38A24.84,24.84,0,0,0,45.41,40Zm-1.7,2.92c-.68,2.06-3,2.91-5,2.78a9.6,9.6,0,0,1-2.19-.4,2.6,2.6,0,0,1-1.35-.71,4.17,4.17,0,0,1-.88-3.4,6,6,0,0,1,.61-1.78c1.11-2.22,4.32-3.79,6.57-2.25a5.36,5.36,0,0,1,2,2.61A5.1,5.1,0,0,1,43.71,42.94Z"/><path class="cls-4" d="M34.6,34.12l-1.48,1.17a4,4,0,0,1,1.37-1.14A.23.23,0,0,1,34.6,34.12Z"/><path class="cls-5" d="M43.43,39.79a5.36,5.36,0,0,0-2-2.61c-2.25-1.54-5.46,0-6.57,2.25a6,6,0,0,0-.61,1.78,4.17,4.17,0,0,0,.88,3.4,2.6,2.6,0,0,0,1.35.71,9.6,9.6,0,0,0,2.19.4c2,.13,4.32-.72,5-2.78A5.1,5.1,0,0,0,43.43,39.79Zm-1.9,2.27h0v0a.17.17,0,0,0,0,.07,0,0,0,0,0,0,0l0,.1s0,0,0,0h0a1.06,1.06,0,0,0-.12.2h0a.5.5,0,0,0-.11.1l-.18.18-.06.05h0l0,0c-.14.07-.26.17-.41.24h0s0,0,0,0h0l-.22.08a4.37,4.37,0,0,1-.49.12H39.5a3.11,3.11,0,0,1-.53,0l-.44,0-.25,0-.81-.18-.64-.2h0l-.1-.18s0-.08-.06-.11,0,0,0,0-.06-.19-.08-.29,0-.06,0-.1h0a3.53,3.53,0,0,1,0-.46l.37.31a3.2,3.2,0,0,0,1.61.32,1.91,1.91,0,0,0,1.18-.85,2.22,2.22,0,0,0,.38-.71,3,3,0,0,0,.11-.94c0-.25,0-.53,0-.79l.09.06a0,0,0,0,1,0,0h0l0,0,.08.07.22.22.09.09,0,0h0l.1.15a5,5,0,0,1,.29.5h0a0,0,0,0,0,0,0,.19.19,0,0,1,0,.08l.06.18c.06.2.11.41.16.62s.16.48.11.56,0,0,0-.08a.53.53,0,0,1,0,.13.84.84,0,0,1,0,.21Z"/><path class="cls-4" d="M41.53,42v0h0v0a.17.17,0,0,0,0,.07,0,0,0,0,0,0,0l0,.1s0,0,0,0h0a1.06,1.06,0,0,0-.12.2h0a.5.5,0,0,0-.11.1l-.18.18-.06.05h0l0,0c-.14.07-.26.17-.41.24h0s0,0,0,0h0l-.22.08a4.37,4.37,0,0,1-.49.12H39.5a3.11,3.11,0,0,1-.53,0l-.44,0-.25,0-.81-.18-.64-.2h0l-.1-.18s0-.08-.06-.11,0,0,0,0-.06-.19-.08-.29,0-.06,0-.1h0a3.53,3.53,0,0,1,0-.46l.37.31a3.2,3.2,0,0,0,1.61.32,1.91,1.91,0,0,0,1.18-.85,2.22,2.22,0,0,0,.38-.71,3,3,0,0,0,.11-.94c0-.25,0-.53,0-.79l.09.06a0,0,0,0,1,0,0h0l0,0,.08.07.22.22.09.09,0,0h0l.1.15a5,5,0,0,1,.29.5h0a0,0,0,0,0,0,0,.19.19,0,0,1,0,.08l.06.18c.06.2.11.41.16.62s.16.48.11.56,0,0,0-.08a.53.53,0,0,1,0,.13A.84.84,0,0,1,41.53,42Z"/><path class="cls-5" d="M33.17,82.14H33.1C33,82.1,33.38,82.16,33.17,82.14Z"/><path class="cls-5" d="M49.3,76.79a12.41,12.41,0,0,1-2,4.46l1,.34A1.21,1.21,0,0,1,49.07,83a1.17,1.17,0,0,1-1.43.81c-.53-.19-1.06-.36-1.6-.52a6.53,6.53,0,0,0-.31.66,1.2,1.2,0,0,1-1.44.82,1.18,1.18,0,0,1-.81-1.44,7.89,7.89,0,0,1,.33-.72l-.35-.11a1.2,1.2,0,0,1-.82-1.43,1.18,1.18,0,0,1,1.44-.82l.88.28.37-.61a12.58,12.58,0,0,0,1.59-3.2,6.57,6.57,0,0,0-.1-2.89A11.61,11.61,0,0,0,46,71a1.17,1.17,0,0,1-.13-.52c1.07.65,2.09,1.24,3,1.72h0c.09.34.16.69.23,1A10.61,10.61,0,0,1,49.3,76.79Z"/><path class="cls-4" d="M52.83,67.72C48.06,66.09,44.68,62.23,41,59a1.15,1.15,0,0,1,0-1.61,1.16,1.16,0,0,1,1.6,0c3.39,2.92,6.52,6.63,10.87,8.12C54.81,66,54.21,68.2,52.83,67.72Z"/></g></svg>