<svg xmlns="http://www.w3.org/2000/svg" viewBox="0 0 297 85"><defs><style>.cls-1{fill:none;}.cls-2{fill:#1a1a1a;}.cls-3{fill:#feb740;}.cls-4{fill:#191919;}.cls-5{fill:#fff;}</style></defs><title>Logo-24</title><g id="Grid"><rect class="cls-1" width="297" height="85"/><path class="cls-2" d="M106.33,37.72h0a20,20,0,0,1-4.21-1.17,2.15,2.15,0,0,1-1.52-2.08,1.64,1.64,0,0,1,.67-.87c.66-.54,2.65-1.7,6.62-.85a10.32,10.32,0,0,1,1.6.55c1.1.46,2.14.9,2.91-.43a3,3,0,0,0,.45-1.55c0-1.29-.79-2.33-2.35-3.09a11.19,11.19,0,0,0-4.87-1,12.93,12.93,0,0,0-7.26,1.91,6.42,6.42,0,0,0-3,5.6,6.51,6.51,0,0,0,2.15,5.29,12.59,12.59,0,0,0,5.85,2.36,13.45,13.45,0,0,1,2.92.8,3.11,3.11,0,0,1,2.26,3.11,4.14,4.14,0,0,1-1.15,3,3.1,3.1,0,0,1-2.22,1.18,8,8,0,0,1-2.87-.58c-.24-.09-.7-.29-1.57-.73s-1.34-.66-1.68-.81a2.12,2.12,0,0,0-1.91.13,3.59,3.59,0,0,0-1.27,1.09A2.42,2.42,0,0,0,95.34,51c0,1.1.83,2.08,2.53,3a14,14,0,0,0,6.77,1.86,8.61,8.61,0,0,0,5.48-1.58c2.3-1.82,3.46-4.63,3.46-8.36a7.45,7.45,0,0,0-2.11-5.74A10.26,10.26,0,0,0,106.33,37.72Z"/><path class="cls-2" d="M132.74,32.52h0a18.15,18.15,0,0,0-1.91-3.91,3,3,0,0,0-2.42-1.24c-1.74,0-3.25,1.29-4.61,3.93-1,1.85-2.18,5.47-3.64,11.07S118,51.68,118,53.72a2,2,0,0,0,2.29,2.08c1.75,0,2.3-.83,2.44-1.55.93-6.76,1.45-8.65,1.67-9.18l.46,0c.39,0,1.32.06,3.51.32a21.48,21.48,0,0,1,2.67.42,48.25,48.25,0,0,1,1.05,4.78c.3,1.55.5,2.58.61,3.1a2.61,2.61,0,0,0,1,1.7,2.92,2.92,0,0,0,1.72.52,2.48,2.48,0,0,0,1.7-.58,1.79,1.79,0,0,0,.69-1.33,3.2,3.2,0,0,0-.05-.62C136.14,44,134.45,37,132.74,32.52ZM130.18,41c-.37,0-1.09,0-2.8-.23a14.21,14.21,0,0,1-1.76-.27A27.92,27.92,0,0,1,127,36.71a21.65,21.65,0,0,1,1.22-2.58,20.76,20.76,0,0,1,.93,2.79C129.9,39.63,130.12,40.61,130.18,41Z"/><path class="cls-2" d="M165.4,27.05a2.7,2.7,0,0,0-1.79.73,3.12,3.12,0,0,0-1.06,1.83c-.16,2.52-.57,5.79-1.2,9.72l-.44,2.51c-.06.26-.11.55-.15.85s-.09.53-.15.8a4.22,4.22,0,0,0-.12.76l-.5,2.46a84.23,84.23,0,0,1-3.12-7.84l-.09-.17a2.26,2.26,0,0,0-1.93-1.14c-1,0-2,.77-2.89,2.33a45.52,45.52,0,0,0-2.48,5.16c-.14.33-.27.64-.39.91-.56-4-1.13-9.51-1.7-16.32l0-.14a2.15,2.15,0,0,0-2.09-1.84,2.69,2.69,0,0,0-2,1,3.1,3.1,0,0,0-.83,2.18c.57,5.84.93,9.37,1,10.23s.17,1.55.24,2.23.13,1.18.17,1.46a3.65,3.65,0,0,1,0,.39c.88,8.91,2.13,10.74,3.74,10.74a3,3,0,0,0,2.43-1.42c.77-1.43,1.66-3.33,2.66-5.65.53-1.24,1-2.3,1.43-3.16l.35.79c.33.75.63,1.44.91,2.1a34.73,34.73,0,0,0,3.7,6.58,2.68,2.68,0,0,0,2,.76,2.12,2.12,0,0,0,2-1.28,23.61,23.61,0,0,0,1.1-4.29c.45-2.21.7-3.42.74-3.61s.17-.77.37-1.76.4-2,.59-3,.31-1.71.35-2,.12-.9.24-1.76.27-1.86.46-3,.37-3.17.54-5.9v-.15l0-.14C167,27.23,165.87,27.05,165.4,27.05Z"/><path class="cls-2" d="M184.28,32.52h0a17.41,17.41,0,0,0-1.9-3.9A3,3,0,0,0,180,27.37c-1.74,0-3.25,1.29-4.62,3.93-1,1.85-2.17,5.48-3.63,11.07s-2.17,9.31-2.17,11.35a2,2,0,0,0,2.29,2.08c1.75,0,2.29-.83,2.44-1.55.92-6.76,1.44-8.65,1.67-9.18l.46,0c.39,0,1.32.06,3.51.32a20.76,20.76,0,0,1,2.66.42,43.55,43.55,0,0,1,1.05,4.78c.3,1.55.5,2.58.61,3.11a2.61,2.61,0,0,0,1,1.69,2.92,2.92,0,0,0,1.72.52,2.48,2.48,0,0,0,1.7-.58,1.79,1.79,0,0,0,.69-1.33,3.05,3.05,0,0,0-.05-.62C187.69,44,186,37,184.28,32.52Zm-4.53,1.61a20.29,20.29,0,0,1,.94,2.79c.76,2.72,1,3.69,1,4-.37,0-1.09-.05-2.8-.24a15,15,0,0,1-1.75-.27,25.92,25.92,0,0,1,1.37-3.74A24.06,24.06,0,0,1,179.75,34.13Z"/><path class="cls-2" d="M206,50.46v.29h0v-.29c-2.13,0-5.47,0-6.37-.06,0-1.92.42-14.61.56-18.94,0-1.15.06-1.86.06-1.88,0-.54-.21-2.29-2.86-2.29a3.73,3.73,0,0,0-1.77.39,1.76,1.76,0,0,0-1,1.56c0,.85-.39,20.83-.38,21.27s0,1.18.06,2.24c0,1.5.21,2.14.68,2.54s.78.6,7.43.6c1.68,0,4-.06,5-.55a2.73,2.73,0,0,0,1.43-2.59C208.89,52.21,208.68,50.46,206,50.46Z"/><path class="cls-2" d="M219.35,29.55a1.91,1.91,0,0,0-1.91-1.65,3.43,3.43,0,0,0-1.93.55,2.64,2.64,0,0,0-1.17,1.49l0,.17c0,.21.11,21-.16,23.69a1.93,1.93,0,0,0,2.05,2.09,3.31,3.31,0,0,0,1.88-.63,2.49,2.49,0,0,0,1.13-1.75c.22-2.68.33-6,.33-9.75q-.12-9.33-.16-14.06Z"/><path class="cls-2" d="M242.74,38.3a6.8,6.8,0,0,0,1.73-4.17,4.87,4.87,0,0,0-1.67-3.77c-4.2-3.69-12.18-3.25-13.93-2.44-2,.84-2,2.6-2,4.64,0,.24,0,.49,0,.75L227,43.49c0,3.52,0,7.1.12,10.69l0,.2A2,2,0,0,0,229.11,56a3,3,0,0,0,2-.83,2.66,2.66,0,0,0,.94-2l-.18-5.93c1,.83,2.73,2.56,4.41,4.23C239.84,55,240.94,56,241.36,56a2.7,2.7,0,0,0,1.87-.7,2.22,2.22,0,0,0,.84-1.67c0-1.36-1-3.09-3-5.29a40.94,40.94,0,0,0-5.34-4.79,22.82,22.82,0,0,0,3-1.67A16.8,16.8,0,0,0,242.74,38.3ZM236.58,38a13.75,13.75,0,0,1-4.68,2c0-3.68,0-6.07,0-7.46a11,11,0,0,1,2.79-.3,7.33,7.33,0,0,1,3.59.82,2,2,0,0,1,1.22,1.84C239.53,35.39,239.15,36.4,236.58,38Z"/><path class="cls-2" d="M264.11,32.52h0a17.52,17.52,0,0,0-1.91-3.9,3,3,0,0,0-2.42-1.25c-1.74,0-3.25,1.29-4.61,3.93-1,1.85-2.17,5.47-3.63,11.07s-2.18,9.3-2.18,11.35a2,2,0,0,0,2.29,2.08c1.75,0,2.3-.83,2.45-1.55.93-6.83,1.46-8.68,1.67-9.18l.45,0c.4,0,1.32.06,3.51.32a21.48,21.48,0,0,1,2.67.42,48.25,48.25,0,0,1,1.05,4.78c.3,1.55.5,2.58.61,3.11a2.56,2.56,0,0,0,1,1.69,2.94,2.94,0,0,0,1.72.52,2.53,2.53,0,0,0,1.71-.58,1.81,1.81,0,0,0,.68-1.33,2.56,2.56,0,0,0-.05-.62C267.51,44,265.82,37,264.11,32.52Zm-4.53,1.61a20.24,20.24,0,0,1,.93,2.79c.76,2.71,1,3.69,1,4-.37,0-1.09,0-2.8-.23a14.21,14.21,0,0,1-1.76-.27,27.92,27.92,0,0,1,1.37-3.74A21.65,21.65,0,0,1,259.58,34.13Z"/><path class="cls-2" d="M296.55,29.29v-.05c-.38-1.94-1.63-2.15-2.14-2.15-1.07,0-1.94.73-2.83,2.35a92.54,92.54,0,0,1-6.24,8.84c-.68-.56-2.85-4.28-4.17-6.55a20.74,20.74,0,0,0-2.19-3.5,3,3,0,0,0-1.65-.49,2.18,2.18,0,0,0-1.84,1,3.15,3.15,0,0,0-.64,1.86V42.11c0,5.23,0,9.1,0,11.53a2,2,0,0,0,2,2.25,3.57,3.57,0,0,0,2-.63A2.58,2.58,0,0,0,279.91,53c0-2.13-.07-10.12-.08-12.69,1.52,1.52,4.27,4.07,5.64,4.07s4.39-3.18,6-5.22c0,3.17.16,14.37.16,14.5a2,2,0,0,0,2,2.21,2.93,2.93,0,0,0,2.29-.79,3.61,3.61,0,0,0,.76-2.25c.06-.85.09-3.81.09-9.06S296.69,33.64,296.55,29.29Z"/><path class="cls-2" d="M106.33,37.72h0a20,20,0,0,1-4.21-1.17,2.15,2.15,0,0,1-1.52-2.08,1.64,1.64,0,0,1,.67-.87c.66-.54,2.65-1.7,6.62-.85a10.32,10.32,0,0,1,1.6.55c1.1.46,2.14.9,2.91-.43a3,3,0,0,0,.45-1.55c0-1.29-.79-2.33-2.35-3.09a11.19,11.19,0,0,0-4.87-1,12.93,12.93,0,0,0-7.26,1.91,6.42,6.42,0,0,0-3,5.6,6.51,6.51,0,0,0,2.15,5.29,12.59,12.59,0,0,0,5.85,2.36,13.45,13.45,0,0,1,2.92.8,3.11,3.11,0,0,1,2.26,3.11,4.14,4.14,0,0,1-1.15,3,3.1,3.1,0,0,1-2.22,1.18,8,8,0,0,1-2.87-.58c-.24-.09-.7-.29-1.57-.73s-1.34-.66-1.68-.81a2.12,2.12,0,0,0-1.91.13,3.59,3.59,0,0,0-1.27,1.09A2.42,2.42,0,0,0,95.34,51c0,1.1.83,2.08,2.53,3a14,14,0,0,0,6.77,1.86,8.61,8.61,0,0,0,5.48-1.58c2.3-1.82,3.46-4.63,3.46-8.36a7.45,7.45,0,0,0-2.11-5.74A10.26,10.26,0,0,0,106.33,37.72Z"/><path class="cls-2" d="M132.74,32.52h0a18.15,18.15,0,0,0-1.91-3.91,3,3,0,0,0-2.42-1.24c-1.74,0-3.25,1.29-4.61,3.93-1,1.85-2.18,5.47-3.64,11.07S118,51.68,118,53.72a2,2,0,0,0,2.29,2.08c1.75,0,2.3-.83,2.44-1.55.93-6.76,1.45-8.65,1.67-9.18l.46,0c.39,0,1.32.06,3.51.32a21.48,21.48,0,0,1,2.67.42,48.25,48.25,0,0,1,1.05,4.78c.3,1.55.5,2.58.61,3.1a2.61,2.61,0,0,0,1,1.7,2.92,2.92,0,0,0,1.72.52,2.48,2.48,0,0,0,1.7-.58,1.79,1.79,0,0,0,.69-1.33,3.2,3.2,0,0,0-.05-.62C136.14,44,134.45,37,132.74,32.52ZM130.18,41c-.37,0-1.09,0-2.8-.23a14.21,14.21,0,0,1-1.76-.27A27.92,27.92,0,0,1,127,36.71a21.65,21.65,0,0,1,1.22-2.58,20.76,20.76,0,0,1,.93,2.79C129.9,39.63,130.12,40.61,130.18,41Z"/><path class="cls-2" d="M165.4,27.05a2.7,2.7,0,0,0-1.79.73,3.12,3.12,0,0,0-1.06,1.83c-.16,2.52-.57,5.79-1.2,9.72l-.44,2.51c-.06.26-.11.55-.15.85s-.09.53-.15.8a4.22,4.22,0,0,0-.12.76l-.5,2.46a84.23,84.23,0,0,1-3.12-7.84l-.09-.17a2.26,2.26,0,0,0-1.93-1.14c-1,0-2,.77-2.89,2.33a45.52,45.52,0,0,0-2.48,5.16c-.14.33-.27.64-.39.91-.56-4-1.13-9.51-1.7-16.32l0-.14a2.15,2.15,0,0,0-2.09-1.84,2.69,2.69,0,0,0-2,1,3.1,3.1,0,0,0-.83,2.18c.57,5.84.93,9.37,1,10.23s.17,1.55.24,2.23.13,1.18.17,1.46a3.65,3.65,0,0,1,0,.39c.88,8.91,2.13,10.74,3.74,10.74a3,3,0,0,0,2.43-1.42c.77-1.43,1.66-3.33,2.66-5.65.53-1.24,1-2.3,1.43-3.16l.35.79c.33.75.63,1.44.91,2.1a34.73,34.73,0,0,0,3.7,6.58,2.68,2.68,0,0,0,2,.76,2.12,2.12,0,0,0,2-1.28,23.61,23.61,0,0,0,1.1-4.29c.45-2.21.7-3.42.74-3.61s.17-.77.37-1.76.4-2,.59-3,.31-1.71.35-2,.12-.9.24-1.76.27-1.86.46-3,.37-3.17.54-5.9v-.15l0-.14C167,27.23,165.87,27.05,165.4,27.05Z"/><path class="cls-2" d="M184.28,32.52h0a17.41,17.41,0,0,0-1.9-3.9A3,3,0,0,0,180,27.37c-1.74,0-3.25,1.29-4.62,3.93-1,1.85-2.17,5.48-3.63,11.07s-2.17,9.31-2.17,11.35a2,2,0,0,0,2.29,2.08c1.75,0,2.29-.83,2.44-1.55.92-6.76,1.44-8.65,1.67-9.18l.46,0c.39,0,1.32.06,3.51.32a20.76,20.76,0,0,1,2.66.42,43.55,43.55,0,0,1,1.05,4.78c.3,1.55.5,2.58.61,3.11a2.61,2.61,0,0,0,1,1.69,2.92,2.92,0,0,0,1.72.52,2.48,2.48,0,0,0,1.7-.58,1.79,1.79,0,0,0,.69-1.33,3.05,3.05,0,0,0-.05-.62C187.69,44,186,37,184.28,32.52Zm-4.53,1.61a20.29,20.29,0,0,1,.94,2.79c.76,2.72,1,3.69,1,4-.37,0-1.09-.05-2.8-.24a15,15,0,0,1-1.75-.27,25.92,25.92,0,0,1,1.37-3.74A24.06,24.06,0,0,1,179.75,34.13Z"/><path class="cls-2" d="M206,50.46v.29h0v-.29c-2.13,0-5.47,0-6.37-.06,0-1.92.42-14.61.56-18.94,0-1.15.06-1.86.06-1.88,0-.54-.21-2.29-2.86-2.29a3.73,3.73,0,0,0-1.77.39,1.76,1.76,0,0,0-1,1.56c0,.85-.39,20.83-.38,21.27s0,1.18.06,2.24c0,1.5.21,2.14.68,2.54s.78.6,7.43.6c1.68,0,4-.06,5-.55a2.73,2.73,0,0,0,1.43-2.59C208.89,52.21,208.68,50.46,206,50.46Z"/><path class="cls-2" d="M219.35,29.55a1.91,1.91,0,0,0-1.91-1.65,3.43,3.43,0,0,0-1.93.55,2.64,2.64,0,0,0-1.17,1.49l0,.17c0,.21.11,21-.16,23.69a1.93,1.93,0,0,0,2.05,2.09,3.31,3.31,0,0,0,1.88-.63,2.49,2.49,0,0,0,1.13-1.75c.22-2.68.33-6,.33-9.75q-.12-9.33-.16-14.06Z"/><path class="cls-2" d="M242.74,38.3a6.8,6.8,0,0,0,1.73-4.17,4.87,4.87,0,0,0-1.67-3.77c-4.2-3.69-12.18-3.25-13.93-2.44-2,.84-2,2.6-2,4.64,0,.24,0,.49,0,.75L227,43.49c0,3.52,0,7.1.12,10.69l0,.2A2,2,0,0,0,229.11,56a3,3,0,0,0,2-.83,2.66,2.66,0,0,0,.94-2l-.18-5.93c1,.83,2.73,2.56,4.41,4.23C239.84,55,240.94,56,241.36,56a2.7,2.7,0,0,0,1.87-.7,2.22,2.22,0,0,0,.84-1.67c0-1.36-1-3.09-3-5.29a40.94,40.94,0,0,0-5.34-4.79,22.82,22.82,0,0,0,3-1.67A16.8,16.8,0,0,0,242.74,38.3ZM236.58,38a13.75,13.75,0,0,1-4.68,2c0-3.68,0-6.07,0-7.46a11,11,0,0,1,2.79-.3,7.33,7.33,0,0,1,3.59.82,2,2,0,0,1,1.22,1.84C239.53,35.39,239.15,36.4,236.58,38Z"/><path class="cls-2" d="M264.11,32.52h0a17.52,17.52,0,0,0-1.91-3.9,3,3,0,0,0-2.42-1.25c-1.74,0-3.25,1.29-4.61,3.93-1,1.85-2.17,5.47-3.63,11.07s-2.18,9.3-2.18,11.35a2,2,0,0,0,2.29,2.08c1.75,0,2.3-.83,2.45-1.55.93-6.83,1.46-8.68,1.67-9.18l.45,0c.4,0,1.32.06,3.51.32a21.48,21.48,0,0,1,2.67.42,48.25,48.25,0,0,1,1.05,4.78c.3,1.55.5,2.58.61,3.11a2.56,2.56,0,0,0,1,1.69,2.94,2.94,0,0,0,1.72.52,2.53,2.53,0,0,0,1.71-.58,1.81,1.81,0,0,0,.68-1.33,2.56,2.56,0,0,0-.05-.62C267.51,44,265.82,37,264.11,32.52Zm-4.53,1.61a20.24,20.24,0,0,1,.93,2.79c.76,2.71,1,3.69,1,4-.37,0-1.09,0-2.8-.23a14.21,14.21,0,0,1-1.76-.27,27.92,27.92,0,0,1,1.37-3.74A21.65,21.65,0,0,1,259.58,34.13Z"/><path class="cls-2" d="M296.55,29.29v-.05c-.38-1.94-1.63-2.15-2.14-2.15-1.07,0-1.94.73-2.83,2.35a92.54,92.54,0,0,1-6.24,8.84c-.68-.56-2.85-4.28-4.17-6.55a20.74,20.74,0,0,0-2.19-3.5,3,3,0,0,0-1.65-.49,2.18,2.18,0,0,0-1.84,1,3.15,3.15,0,0,0-.64,1.86V42.11c0,5.23,0,9.1,0,11.53a2,2,0,0,0,2,2.25,3.57,3.57,0,0,0,2-.63A2.58,2.58,0,0,0,279.91,53c0-2.13-.07-10.12-.08-12.69,1.52,1.52,4.27,4.07,5.64,4.07s4.39-3.18,6-5.22c0,3.17.16,14.37.16,14.5a2,2,0,0,0,2,2.21,2.93,2.93,0,0,0,2.29-.79,3.61,3.61,0,0,0,.76-2.25c.06-.85.09-3.81.09-9.06S296.69,33.64,296.55,29.29Z"/><path class="cls-3" d="M43,5.77C38.76,4.6,32.52,2.26,28,2.44,10.56,3.14-.23,26.05.32,40.55,1.17,62.93,26,74.1,46.18,74.59c9.15.23,41.08-14.19,37.26-36.9C80.82,22.08,52.87,8.47,43,5.77Z"/><path class="cls-4" d="M49.35,34.08h0a23.75,23.75,0,0,1-4.93-1.36,2.51,2.51,0,0,1-1.78-2.42,1.88,1.88,0,0,1,.78-1c.78-.62,3.11-2,7.77-1a10.76,10.76,0,0,1,1.87.64c1.29.54,2.51,1,3.42-.51a3.46,3.46,0,0,0,.53-1.8c0-1.5-.93-2.71-2.77-3.59a13.05,13.05,0,0,0-5.7-1.14A15.24,15.24,0,0,0,40,24.12a7.45,7.45,0,0,0-3.56,6.51A7.57,7.57,0,0,0,39,36.79a14.78,14.78,0,0,0,6.87,2.75,15.83,15.83,0,0,1,3.43.93,3.61,3.61,0,0,1,2.64,3.62,4.83,4.83,0,0,1-1.34,3.48A3.68,3.68,0,0,1,48,49a9.49,9.49,0,0,1-3.36-.68c-.28-.11-.83-.34-1.85-.85s-1.57-.76-2-.94a2.51,2.51,0,0,0-2.24.15,4,4,0,0,0-1.48,1.26,2.79,2.79,0,0,0-.61,1.66c0,1.28,1,2.42,3,3.47a16.55,16.55,0,0,0,8,2.16,10.23,10.23,0,0,0,6.42-1.83c2.7-2.12,4.06-5.4,4.06-9.73,0-2.94-.83-5.18-2.48-6.69A12,12,0,0,0,49.35,34.08Z"/><path class="cls-5" d="M23.66,65.32c.07,0,0-.27-.06-.36l.21.09C23.76,65.19,23.71,65.3,23.66,65.32Z"/><path class="cls-5" d="M67.59,5c0,3.31-.1,6.62-.2,9.92-.27,8.88-.56,17.79-1.25,26.65-.39,5.07-.45,10.15-.76,15.23a46.53,46.53,0,0,1-.72,6.55c-.17.79-.36,2-1,2.14-1.9.52-4.46.36-6.49.44-3.69.15-7.39.22-11.08.25-4,0-8.06,0-12.08-.12a66.32,66.32,0,0,1-8.68-.64,10.18,10.18,0,0,1-1.22-.26l-.27-.1c.11-.4.2-1.1.24-1.25.28-1.36.47-2.73.64-4.1A80.18,80.18,0,0,0,25.59,49c0-8.16-.82-16.32-1.37-24.46-.29-4.24-.58-8.49-.76-12.74a54.82,54.82,0,0,1,0-8.5,8.87,8.87,0,0,1,.18-1l.05-.16q8.11.51,16.23.89c4.3.21,8.61.39,12.92.49a69.66,69.66,0,0,0,8.67-.07,15.88,15.88,0,0,1,5.19.27,5.08,5.08,0,0,1,.86.28A9,9,0,0,1,67.59,5Z"/><path class="cls-5" d="M67.63,4l-.06,0s0-.05,0-.08C67.53,3.67,67.55,3.94,67.63,4Z"/><path d="M68.25,2.77a6.89,6.89,0,0,0-2.64-.65A19.31,19.31,0,0,0,62.39,2c-1,.06-2.1.18-3.17.21-3.81.08-7.64-.06-11.45-.2-7.66-.28-15.31-.69-23-1.16L23.54.72a.47.47,0,0,0-.31,0s0,0,0,0a.5.5,0,0,0-.34.19,0,0,0,0,1,0,0c-1.12,1-.86,3.74-.88,5-.05,3.72.18,7.45.4,11.17.53,9,1.33,18,1.72,27.08a60,60,0,0,1-.05,9c-.3,2.76-.53,5.53-.95,8.28-.18,1.19-.61,2.38-.76,3.56a1.07,1.07,0,0,0,.26.92,3.62,3.62,0,0,0,1.94.75,31.74,31.74,0,0,0,3.64.45c3.72.31,7.46.38,11.19.43,7.38.08,14.82.06,22.19-.47A14.7,14.7,0,0,0,64,66.78c1-.25,1.39-1.16,1.67-2.07a26.88,26.88,0,0,0,.88-5.92c.23-2.77.33-5.55.44-8.33.37-9.33,1.09-18.64,1.45-28,.18-4.55.34-9.11.43-13.67,0-1.35,0-2.7,0-4C68.94,4,69,3.23,68.25,2.77ZM67.59,5c0,3.31-.1,6.62-.2,9.92-.27,8.88-.56,17.79-1.25,26.65-.39,5.07-.45,10.15-.76,15.23a46.53,46.53,0,0,1-.72,6.55c-.17.79-.36,2-1,2.14-1.9.52-4.46.36-6.49.44-3.69.15-7.39.22-11.08.25-4,0-8.06,0-12.08-.12a66.32,66.32,0,0,1-8.68-.64,10.18,10.18,0,0,1-1.22-.26l-.27-.1c0,.14-.1.25-.15.27s0-.27-.06-.36l.21.09c.11-.4.2-1.1.24-1.25.28-1.36.47-2.73.64-4.1A80.18,80.18,0,0,0,25.59,49c0-8.16-.82-16.32-1.37-24.46-.29-4.24-.58-8.49-.76-12.74a54.82,54.82,0,0,1,0-8.5,8.87,8.87,0,0,1,.18-1l.05-.16q8.11.51,16.23.89c4.3.21,8.61.39,12.92.49a69.66,69.66,0,0,0,8.67-.07,15.88,15.88,0,0,1,5.19.27,5.08,5.08,0,0,1,.86.28s0-.05,0-.08c0-.2,0,.07.07.11l-.06,0A9,9,0,0,1,67.59,5Z"/><path d="M23.66,65.32c.07,0,0-.27-.06-.36l.21.09C23.76,65.19,23.71,65.3,23.66,65.32Z"/><path d="M67.63,4l-.06,0s0-.05,0-.08C67.53,3.67,67.55,3.94,67.63,4Z"/><path d="M32.28,36.81C31,42.1,29.86,48.59,24.93,51.21a11.52,11.52,0,0,1-4.75-.28c-1.15-.92-.63-5.46-.7-6.81-.1-1.85-1.13-3.49-1.65-5.29-1.19-4.12-.37-11.58-.37-11.58s3.92-2.9,6.16-4.47,4.17-3.16,6.41-4.54c1.21-.74,2.59-1.68,3.85-2.3.71.46.4,1.78.33,2.48A43.69,43.69,0,0,0,33.84,23,57.85,57.85,0,0,1,32.28,36.81Z"/><path d="M32,81.53c-.25,0-.23,0-.16,0H32Z"/><path d="M53.33,79.33l.08,0-.07,0Z"/><path d="M55.18,77.19a7.12,7.12,0,0,0-3.42-.45l-1.16-3c-.88-2.29-1.71-4.66-2.81-6.85a1.36,1.36,0,0,0-2.35,1.37c.19.36.35.74.51,1.11l.11.25c0,.09.07.18.11.26l.36.89c.52,1.28,1,2.56,1.51,3.85.34.87.67,1.75,1,2.63-.28.07-.56.15-.83.24a4.91,4.91,0,0,0-1.83,1,1.36,1.36,0,0,0,1.92,1.92h0l.23-.13.14-.07c.11,0,.22-.09.33-.12.33-.12.68-.21,1-.3.18.48.36,1,.55,1.42a1.4,1.4,0,0,0,1.67,1,1.37,1.37,0,0,0,.95-1.67c-.14-.34-.26-.68-.4-1l.36,0h.2c.17,0,.14,0,.06,0,.1,0,.2,0,.3.06s.55.2.1,0a1.36,1.36,0,0,0,1.37-2.35Z"/><path d="M27.44,66.66c0,.12,0,.24-.05.36,0,0,0-.11,0-.16A1.18,1.18,0,0,0,27.44,66.66Z"/><path d="M35.54,81.58a1.39,1.39,0,0,1-1.86.49L33.45,82h0l-.15-.06h0l-.37-.13-.25-.07c-.12.57-.19,1.14-.36,1.71a1.36,1.36,0,0,1-2.61-.73c.09-.31.15-.62.21-.94l-.31.1c-.16.05-.3.11-.45.17L29,82,29,82l-.28.14a1.4,1.4,0,0,1-1.86-.49,1.38,1.38,0,0,1,.49-1.86,10.24,10.24,0,0,1,3.19-1,1.74,1.74,0,0,0,.05-.22c.18-1,.27-1.82.38-2.86.1-.89.18-1.78.26-2.67-.35-.08-.73-.19-1.13-.32-1.34-.47-1.78-1.06-1.84-1.82l-.09.1a1.36,1.36,0,0,1-1.92-1.92,4,4,0,0,0,.28-.3,6.25,6.25,0,0,0,.69-1.24s0,0,0,0a3.9,3.9,0,0,0,.19-.69s0,.11,0,.16c0-.12,0-.24.05-.36a1.18,1.18,0,0,1,0,.2,1,1,0,0,0,0-.17c0-.76,1.88-.72,2.11-.53l7.1.15c0,2.91-.13,6-2.68,6.79-.1,1-.21,2-.31,3s-.23,2-.4,3a13.38,13.38,0,0,1,1.82.67A1.38,1.38,0,0,1,35.54,81.58Z"/><path d="M32,81.52h0c-.25,0-.23,0-.16,0Z"/><path d="M49.53,27h0a23.14,23.14,0,0,1-4.93-1.36,2.5,2.5,0,0,1-1.78-2.41,1.89,1.89,0,0,1,.77-1c.79-.63,3.11-2,7.78-1a9.77,9.77,0,0,1,1.87.64c1.29.53,2.51,1,3.42-.52a3.5,3.5,0,0,0,.52-1.79c0-1.51-.93-2.72-2.76-3.6a13.27,13.27,0,0,0-5.71-1.14A15.2,15.2,0,0,0,40.2,17a7.43,7.43,0,0,0-3.56,6.51,7.53,7.53,0,0,0,2.52,6.16A14.89,14.89,0,0,0,46,32.44a15.19,15.19,0,0,1,3.42.92A3.62,3.62,0,0,1,52.1,37a4.8,4.8,0,0,1-1.34,3.48,3.68,3.68,0,0,1-2.62,1.38,9.58,9.58,0,0,1-3.36-.68,20,20,0,0,1-1.84-.85c-.91-.45-1.57-.76-2-.94a2.51,2.51,0,0,0-2.25.16,4.08,4.08,0,0,0-1.48,1.26,2.82,2.82,0,0,0-.6,1.65c0,1.28,1,2.42,3,3.47a16.51,16.51,0,0,0,7.94,2.16A10.18,10.18,0,0,0,54,46.24C56.67,44.12,58,40.85,58,36.51c0-2.93-.83-5.18-2.48-6.69A12.13,12.13,0,0,0,49.53,27Z"/><path d="M49.26,56a3.65,3.65,0,1,1-3.65-3.62A3.64,3.64,0,0,1,49.26,56Z"/></g></svg>