<svg xmlns="http://www.w3.org/2000/svg" viewBox="0 0 297 85"><defs><style>.cls-1{fill:#1a1a1a;}.cls-2{fill:#feb740;}.cls-3{fill:#fff;}.cls-4{fill:none;}.cls-5{fill:#231f20;}</style></defs><title>Logo-24</title><g id="Grid"><path class="cls-1" d="M106.33,37.71h0a20,20,0,0,1-4.21-1.17,2.14,2.14,0,0,1-1.52-2.07,1.69,1.69,0,0,1,.67-.88c.66-.54,2.65-1.7,6.62-.84a9.37,9.37,0,0,1,1.6.55c1.1.46,2.14.9,2.91-.44a2.93,2.93,0,0,0,.45-1.54c0-1.3-.79-2.34-2.35-3.09a11.19,11.19,0,0,0-4.87-1,12.85,12.85,0,0,0-7.26,1.91,6.41,6.41,0,0,0-3,5.59A6.51,6.51,0,0,0,97.49,40a12.59,12.59,0,0,0,5.85,2.37,12.92,12.92,0,0,1,2.92.79,3.11,3.11,0,0,1,2.26,3.11,4.14,4.14,0,0,1-1.15,3,3.11,3.11,0,0,1-2.22,1.19,8,8,0,0,1-2.87-.59c-.24-.09-.7-.29-1.57-.73s-1.34-.65-1.68-.8a2.09,2.09,0,0,0-1.91.13,3.47,3.47,0,0,0-1.27,1.08A2.47,2.47,0,0,0,95.34,51c0,1.11.83,2.08,2.53,3a14,14,0,0,0,6.77,1.85,8.67,8.67,0,0,0,5.48-1.57c2.3-1.82,3.46-4.64,3.46-8.36a7.49,7.49,0,0,0-2.11-5.75A10.35,10.35,0,0,0,106.33,37.71Z"/><path class="cls-1" d="M132.74,32.52h0a17.67,17.67,0,0,0-1.91-3.91,3,3,0,0,0-2.42-1.24c-1.74,0-3.25,1.28-4.61,3.92-1,1.86-2.18,5.48-3.64,11.07S118,51.68,118,53.71a2,2,0,0,0,2.29,2.09c1.75,0,2.3-.84,2.44-1.56.93-6.76,1.45-8.65,1.67-9.18l.46,0c.39,0,1.32.06,3.51.32a22.66,22.66,0,0,1,2.67.43,47.41,47.41,0,0,1,1.05,4.78c.3,1.54.5,2.58.61,3.1a2.63,2.63,0,0,0,1,1.7,2.91,2.91,0,0,0,1.72.51,2.44,2.44,0,0,0,1.7-.58,1.77,1.77,0,0,0,.69-1.33,3.36,3.36,0,0,0-.05-.62C136.14,44,134.45,37,132.74,32.52ZM130.18,41c-.37,0-1.09-.05-2.8-.24a17.62,17.62,0,0,1-1.76-.26A27.79,27.79,0,0,1,127,36.7a21.24,21.24,0,0,1,1.22-2.57,19.74,19.74,0,0,1,.93,2.79C129.9,39.63,130.12,40.61,130.18,41Z"/><path class="cls-1" d="M165.4,27a2.75,2.75,0,0,0-1.79.73,3.15,3.15,0,0,0-1.06,1.83c-.16,2.52-.57,5.79-1.2,9.72l-.44,2.51c-.06.27-.11.55-.15.86s-.09.52-.15.79a4.17,4.17,0,0,0-.12.77L160,46.7a83.11,83.11,0,0,1-3.12-7.84l-.09-.17a2.24,2.24,0,0,0-1.93-1.13c-1,0-2,.76-2.89,2.33a44.69,44.69,0,0,0-2.48,5.16l-.39.91c-.56-4-1.13-9.51-1.7-16.32l0-.15a2.15,2.15,0,0,0-2.09-1.84,2.71,2.71,0,0,0-2,1,3.08,3.08,0,0,0-.83,2.18c.57,5.83.93,9.37,1,10.22s.17,1.56.24,2.23.13,1.18.17,1.46a3.73,3.73,0,0,1,0,.4c.88,8.91,2.13,10.73,3.74,10.73a3,3,0,0,0,2.43-1.41c.77-1.43,1.66-3.33,2.66-5.65.53-1.24,1-2.3,1.43-3.17.1.24.22.5.35.79.33.75.63,1.44.91,2.1a34.12,34.12,0,0,0,3.7,6.58,2.64,2.64,0,0,0,2,.76,2.12,2.12,0,0,0,2-1.28,23,23,0,0,0,1.1-4.28c.45-2.22.7-3.42.74-3.61s.17-.78.37-1.77.4-2,.59-3,.31-1.7.35-2,.12-.91.24-1.77.27-1.85.46-3,.37-3.17.54-5.9v-.14l0-.14C167,27.23,165.87,27,165.4,27Z"/><path class="cls-1" d="M184.28,32.52h0a17.54,17.54,0,0,0-1.9-3.91A3,3,0,0,0,180,27.37c-1.74,0-3.25,1.28-4.62,3.92-1,1.86-2.17,5.48-3.63,11.07s-2.17,9.31-2.17,11.35a2,2,0,0,0,2.29,2.09c1.75,0,2.29-.84,2.44-1.56.92-6.76,1.44-8.65,1.67-9.18l.46,0c.39,0,1.32.06,3.51.32a21.86,21.86,0,0,1,2.66.43,42.86,42.86,0,0,1,1.05,4.78c.3,1.54.5,2.58.61,3.1a2.66,2.66,0,0,0,1,1.7,2.91,2.91,0,0,0,1.72.51,2.44,2.44,0,0,0,1.7-.58,1.77,1.77,0,0,0,.69-1.33,3.12,3.12,0,0,0-.05-.62C187.69,44,186,37,184.28,32.52Zm-4.53,1.61a19.31,19.31,0,0,1,.94,2.79c.76,2.71,1,3.69,1,4-.37,0-1.09-.05-2.8-.24a15.83,15.83,0,0,1-1.75-.26,25.82,25.82,0,0,1,1.37-3.75A22.63,22.63,0,0,1,179.75,34.13Z"/><path class="cls-1" d="M206,50.46v.28h0v-.28c-2.13,0-5.47,0-6.37-.07,0-1.92.42-14.6.56-18.94,0-1.14.06-1.85.06-1.87,0-.54-.21-2.29-2.86-2.29a3.73,3.73,0,0,0-1.77.39,1.75,1.75,0,0,0-1,1.55c0,.85-.39,20.84-.38,21.27s0,1.18.06,2.24c0,1.5.21,2.14.68,2.55s.78.59,7.43.59c1.68,0,4-.06,5-.55a2.72,2.72,0,0,0,1.43-2.59C208.89,52.21,208.68,50.46,206,50.46Z"/><path class="cls-1" d="M219.35,29.54a1.92,1.92,0,0,0-1.91-1.65,3.51,3.51,0,0,0-1.93.55,2.67,2.67,0,0,0-1.17,1.49l0,.17c0,.21.11,21-.16,23.69a1.92,1.92,0,0,0,2.05,2.09,3.24,3.24,0,0,0,1.88-.63,2.47,2.47,0,0,0,1.13-1.75c.22-2.67.33-6,.33-9.75-.08-6.22-.14-10.89-.16-14Z"/><path class="cls-1" d="M242.74,38.29a6.8,6.8,0,0,0,1.73-4.17,4.84,4.84,0,0,0-1.67-3.76c-4.2-3.7-12.18-3.26-13.93-2.44-2,.83-2,2.6-2,4.63,0,.25,0,.5,0,.75L227,43.48c0,3.52,0,7.11.12,10.7l0,.2A2,2,0,0,0,229.11,56a3,3,0,0,0,2-.82,2.68,2.68,0,0,0,.94-2l-.18-5.94c1,.84,2.73,2.56,4.41,4.24C239.84,55,240.94,56,241.36,56a2.74,2.74,0,0,0,1.87-.69,2.22,2.22,0,0,0,.84-1.68c0-1.36-1-3.09-3-5.29a40.17,40.17,0,0,0-5.34-4.78,22.92,22.92,0,0,0,3-1.68A16.8,16.8,0,0,0,242.74,38.29ZM236.58,38a13.36,13.36,0,0,1-4.68,2c0-3.68,0-6.07,0-7.45a10.91,10.91,0,0,1,2.79-.31,7.33,7.33,0,0,1,3.59.82,2,2,0,0,1,1.22,1.84C239.53,35.39,239.15,36.39,236.58,38Z"/><path class="cls-1" d="M264.11,32.52h0a17.67,17.67,0,0,0-1.91-3.91,3,3,0,0,0-2.42-1.24c-1.74,0-3.25,1.28-4.61,3.92-1,1.86-2.17,5.48-3.63,11.07s-2.18,9.31-2.18,11.35a2,2,0,0,0,2.29,2.09c1.75,0,2.3-.84,2.45-1.56.93-6.82,1.46-8.68,1.67-9.18l.45,0c.4,0,1.32.06,3.51.32a22.66,22.66,0,0,1,2.67.43,46.6,46.6,0,0,1,1.05,4.78c.3,1.54.5,2.58.61,3.11a2.61,2.61,0,0,0,1,1.69,2.93,2.93,0,0,0,1.72.51,2.48,2.48,0,0,0,1.71-.58,1.79,1.79,0,0,0,.68-1.33,2.66,2.66,0,0,0-.05-.62C267.51,44,265.82,37,264.11,32.52Zm-4.53,1.61a19.74,19.74,0,0,1,.93,2.79c.76,2.71,1,3.69,1,4-.37,0-1.09-.05-2.8-.24a17.62,17.62,0,0,1-1.76-.26,27.79,27.79,0,0,1,1.37-3.75A20.48,20.48,0,0,1,259.58,34.13Z"/><path class="cls-1" d="M296.55,29.28v0c-.38-1.95-1.63-2.16-2.14-2.16-1.07,0-1.94.73-2.83,2.36a92.29,92.29,0,0,1-6.24,8.83c-.68-.56-2.85-4.28-4.17-6.54A21.76,21.76,0,0,0,279,28.22a3,3,0,0,0-1.65-.49,2.21,2.21,0,0,0-1.84,1,3.2,3.2,0,0,0-.64,1.87V42.11c0,5.22,0,9.1,0,11.52a2,2,0,0,0,2,2.25,3.49,3.49,0,0,0,2-.63A2.58,2.58,0,0,0,279.91,53c0-2.13-.07-10.12-.08-12.69,1.52,1.53,4.27,4.07,5.64,4.07s4.39-3.17,6-5.21c0,3.16.16,14.36.16,14.49a1.94,1.94,0,0,0,2,2.21,3,3,0,0,0,2.29-.78,3.62,3.62,0,0,0,.76-2.26c.06-.84.09-3.81.09-9.05S296.69,33.63,296.55,29.28Z"/><path class="cls-1" d="M106.33,37.71h0a20,20,0,0,1-4.21-1.17,2.14,2.14,0,0,1-1.52-2.07,1.69,1.69,0,0,1,.67-.88c.66-.54,2.65-1.7,6.62-.84a9.37,9.37,0,0,1,1.6.55c1.1.46,2.14.9,2.91-.44a2.93,2.93,0,0,0,.45-1.54c0-1.3-.79-2.34-2.35-3.09a11.19,11.19,0,0,0-4.87-1,12.85,12.85,0,0,0-7.26,1.91,6.41,6.41,0,0,0-3,5.59A6.51,6.51,0,0,0,97.49,40a12.59,12.59,0,0,0,5.85,2.37,12.92,12.92,0,0,1,2.92.79,3.11,3.11,0,0,1,2.26,3.11,4.14,4.14,0,0,1-1.15,3,3.11,3.11,0,0,1-2.22,1.19,8,8,0,0,1-2.87-.59c-.24-.09-.7-.29-1.57-.73s-1.34-.65-1.68-.8a2.09,2.09,0,0,0-1.91.13,3.47,3.47,0,0,0-1.27,1.08A2.47,2.47,0,0,0,95.34,51c0,1.11.83,2.08,2.53,3a14,14,0,0,0,6.77,1.85,8.67,8.67,0,0,0,5.48-1.57c2.3-1.82,3.46-4.64,3.46-8.36a7.49,7.49,0,0,0-2.11-5.75A10.35,10.35,0,0,0,106.33,37.71Z"/><path class="cls-1" d="M132.74,32.52h0a17.67,17.67,0,0,0-1.91-3.91,3,3,0,0,0-2.42-1.24c-1.74,0-3.25,1.28-4.61,3.92-1,1.86-2.18,5.48-3.64,11.07S118,51.68,118,53.71a2,2,0,0,0,2.29,2.09c1.75,0,2.3-.84,2.44-1.56.93-6.76,1.45-8.65,1.67-9.18l.46,0c.39,0,1.32.06,3.51.32a22.66,22.66,0,0,1,2.67.43,47.41,47.41,0,0,1,1.05,4.78c.3,1.54.5,2.58.61,3.1a2.63,2.63,0,0,0,1,1.7,2.91,2.91,0,0,0,1.72.51,2.44,2.44,0,0,0,1.7-.58,1.77,1.77,0,0,0,.69-1.33,3.36,3.36,0,0,0-.05-.62C136.14,44,134.45,37,132.74,32.52ZM130.18,41c-.37,0-1.09-.05-2.8-.24a17.62,17.62,0,0,1-1.76-.26A27.79,27.79,0,0,1,127,36.7a21.24,21.24,0,0,1,1.22-2.57,19.74,19.74,0,0,1,.93,2.79C129.9,39.63,130.12,40.61,130.18,41Z"/><path class="cls-1" d="M165.4,27a2.75,2.75,0,0,0-1.79.73,3.15,3.15,0,0,0-1.06,1.83c-.16,2.52-.57,5.79-1.2,9.72l-.44,2.51c-.06.27-.11.55-.15.86s-.09.52-.15.79a4.17,4.17,0,0,0-.12.77L160,46.7a83.11,83.11,0,0,1-3.12-7.84l-.09-.17a2.24,2.24,0,0,0-1.93-1.13c-1,0-2,.76-2.89,2.33a44.69,44.69,0,0,0-2.48,5.16l-.39.91c-.56-4-1.13-9.51-1.7-16.32l0-.15a2.15,2.15,0,0,0-2.09-1.84,2.71,2.71,0,0,0-2,1,3.08,3.08,0,0,0-.83,2.18c.57,5.83.93,9.37,1,10.22s.17,1.56.24,2.23.13,1.18.17,1.46a3.73,3.73,0,0,1,0,.4c.88,8.91,2.13,10.73,3.74,10.73a3,3,0,0,0,2.43-1.41c.77-1.43,1.66-3.33,2.66-5.65.53-1.24,1-2.3,1.43-3.17.1.24.22.5.35.79.33.75.63,1.44.91,2.1a34.12,34.12,0,0,0,3.7,6.58,2.64,2.64,0,0,0,2,.76,2.12,2.12,0,0,0,2-1.28,23,23,0,0,0,1.1-4.28c.45-2.22.7-3.42.74-3.61s.17-.78.37-1.77.4-2,.59-3,.31-1.7.35-2,.12-.91.24-1.77.27-1.85.46-3,.37-3.17.54-5.9v-.14l0-.14C167,27.23,165.87,27,165.4,27Z"/><path class="cls-1" d="M184.28,32.52h0a17.54,17.54,0,0,0-1.9-3.91A3,3,0,0,0,180,27.37c-1.74,0-3.25,1.28-4.62,3.92-1,1.86-2.17,5.48-3.63,11.07s-2.17,9.31-2.17,11.35a2,2,0,0,0,2.29,2.09c1.75,0,2.29-.84,2.44-1.56.92-6.76,1.44-8.65,1.67-9.18l.46,0c.39,0,1.32.06,3.51.32a21.86,21.86,0,0,1,2.66.43,42.86,42.86,0,0,1,1.05,4.78c.3,1.54.5,2.58.61,3.1a2.66,2.66,0,0,0,1,1.7,2.91,2.91,0,0,0,1.72.51,2.44,2.44,0,0,0,1.7-.58,1.77,1.77,0,0,0,.69-1.33,3.12,3.12,0,0,0-.05-.62C187.69,44,186,37,184.28,32.52Zm-4.53,1.61a19.31,19.31,0,0,1,.94,2.79c.76,2.71,1,3.69,1,4-.37,0-1.09-.05-2.8-.24a15.83,15.83,0,0,1-1.75-.26,25.82,25.82,0,0,1,1.37-3.75A22.63,22.63,0,0,1,179.75,34.13Z"/><path class="cls-1" d="M206,50.46v.28h0v-.28c-2.13,0-5.47,0-6.37-.07,0-1.92.42-14.6.56-18.94,0-1.14.06-1.85.06-1.87,0-.54-.21-2.29-2.86-2.29a3.73,3.73,0,0,0-1.77.39,1.75,1.75,0,0,0-1,1.55c0,.85-.39,20.84-.38,21.27s0,1.18.06,2.24c0,1.5.21,2.14.68,2.55s.78.59,7.43.59c1.68,0,4-.06,5-.55a2.72,2.72,0,0,0,1.43-2.59C208.89,52.21,208.68,50.46,206,50.46Z"/><path class="cls-1" d="M219.35,29.54a1.92,1.92,0,0,0-1.91-1.65,3.51,3.51,0,0,0-1.93.55,2.67,2.67,0,0,0-1.17,1.49l0,.17c0,.21.11,21-.16,23.69a1.92,1.92,0,0,0,2.05,2.09,3.24,3.24,0,0,0,1.88-.63,2.47,2.47,0,0,0,1.13-1.75c.22-2.67.33-6,.33-9.75-.08-6.22-.14-10.89-.16-14Z"/><path class="cls-1" d="M242.74,38.29a6.8,6.8,0,0,0,1.73-4.17,4.84,4.84,0,0,0-1.67-3.76c-4.2-3.7-12.18-3.26-13.93-2.44-2,.83-2,2.6-2,4.63,0,.25,0,.5,0,.75L227,43.48c0,3.52,0,7.11.12,10.7l0,.2A2,2,0,0,0,229.11,56a3,3,0,0,0,2-.82,2.68,2.68,0,0,0,.94-2l-.18-5.94c1,.84,2.73,2.56,4.41,4.24C239.84,55,240.94,56,241.36,56a2.74,2.74,0,0,0,1.87-.69,2.22,2.22,0,0,0,.84-1.68c0-1.36-1-3.09-3-5.29a40.17,40.17,0,0,0-5.34-4.78,22.92,22.92,0,0,0,3-1.68A16.8,16.8,0,0,0,242.74,38.29ZM236.58,38a13.36,13.36,0,0,1-4.68,2c0-3.68,0-6.07,0-7.45a10.91,10.91,0,0,1,2.79-.31,7.33,7.33,0,0,1,3.59.82,2,2,0,0,1,1.22,1.84C239.53,35.39,239.15,36.39,236.58,38Z"/><path class="cls-1" d="M264.11,32.52h0a17.67,17.67,0,0,0-1.91-3.91,3,3,0,0,0-2.42-1.24c-1.74,0-3.25,1.28-4.61,3.92-1,1.86-2.17,5.48-3.63,11.07s-2.18,9.31-2.18,11.35a2,2,0,0,0,2.29,2.09c1.75,0,2.3-.84,2.45-1.56.93-6.82,1.46-8.68,1.67-9.18l.45,0c.4,0,1.32.06,3.51.32a22.66,22.66,0,0,1,2.67.43,46.6,46.6,0,0,1,1.05,4.78c.3,1.54.5,2.58.61,3.11a2.61,2.61,0,0,0,1,1.69,2.93,2.93,0,0,0,1.72.51,2.48,2.48,0,0,0,1.71-.58,1.79,1.79,0,0,0,.68-1.33,2.66,2.66,0,0,0-.05-.62C267.51,44,265.82,37,264.11,32.52Zm-4.53,1.61a19.74,19.74,0,0,1,.93,2.79c.76,2.71,1,3.69,1,4-.37,0-1.09-.05-2.8-.24a17.62,17.62,0,0,1-1.76-.26,27.79,27.79,0,0,1,1.37-3.75A20.48,20.48,0,0,1,259.58,34.13Z"/><path class="cls-1" d="M296.55,29.28v0c-.38-1.95-1.63-2.16-2.14-2.16-1.07,0-1.94.73-2.83,2.36a92.29,92.29,0,0,1-6.24,8.83c-.68-.56-2.85-4.28-4.17-6.54A21.76,21.76,0,0,0,279,28.22a3,3,0,0,0-1.65-.49,2.21,2.21,0,0,0-1.84,1,3.2,3.2,0,0,0-.64,1.87V42.11c0,5.22,0,9.1,0,11.52a2,2,0,0,0,2,2.25,3.49,3.49,0,0,0,2-.63A2.58,2.58,0,0,0,279.91,53c0-2.13-.07-10.12-.08-12.69,1.52,1.53,4.27,4.07,5.64,4.07s4.39-3.17,6-5.21c0,3.16.16,14.36.16,14.49a1.94,1.94,0,0,0,2,2.21,3,3,0,0,0,2.29-.78,3.62,3.62,0,0,0,.76-2.26c.06-.84.09-3.81.09-9.05S296.69,33.63,296.55,29.28Z"/><path class="cls-2" d="M56.79,62.3c5.52.21,9,.11,14.4-2.17C82.29,55.45,84,43.78,82.35,31.63,79.43,9.5,55.7-1.57,35.67,7,26.05,11,23.44,21.13,13.47,27.31,6.25,31.79-.11,35.69-.11,44.84c0,8.95,4.18,18.9,12.81,21.82,9.26,3.13,18.69-2.49,27.61-4.1C45.79,61.56,51.3,62.09,56.79,62.3Z"/><path class="cls-1" d="M68.54,63.68Q64.05,60,60,56c-3.12-4.93-7.23-10.78-9.5-11.31-1.09-.26-3-.75-4.73-1.28a6,6,0,0,0,.6-.36,4.79,4.79,0,0,0,2.29-3,2.34,2.34,0,0,0,0-.38C53.14,39,62,34.92,62.19,34s-12.09,0-15,.29L47.07,34c3.57-2.59,13.24-9.69,12.87-10.13S46,25.3,44,27.68c-.22-.41-.44-.84-.67-1.25A7.29,7.29,0,0,0,42,24.8a.94.94,0,0,0-.32-.84,13.23,13.23,0,0,0-3.19-2c-1.27-.56-2.76-1.1-4.09-.46A1.14,1.14,0,0,0,34,23.09a1.11,1.11,0,0,0,.41.37A9.66,9.66,0,0,0,30,26.8c-1.18,1.6-1.35,3.64-1.5,5.56a37.55,37.55,0,0,0,.06,7.19,9.66,9.66,0,0,0,1.29,4.53,5.65,5.65,0,0,0-3,1.85,17,17,0,0,0-2.53,3.33,2.81,2.81,0,0,0,.08,2.52c1,3.06,10.1,9.71,13.84,12.06l.12,4.91a10.67,10.67,0,0,0,0,1.13c0,.09-.08.18-.12.25a22.08,22.08,0,0,1-3,4.37,10.91,10.91,0,0,0-2.06-.11A1.16,1.16,0,0,0,32,75.53a1.21,1.21,0,0,0,.48.9l-.07,0a7,7,0,0,0-1.66,1.06c-1,1.09.63,2.69,1.6,1.6-.24.27.07,0,.26-.14l1-.61A21.29,21.29,0,0,0,35.83,77l0,0,.34.1h0l.14.06.33.18c.17.1.33.21.49.32l0,0h0l.08.06.16.14a8.05,8.05,0,0,0,.92.74,1.13,1.13,0,1,0,1.14-2l-.09-.07-.05,0L39,76.18a7.87,7.87,0,0,0-1.25-.89l-.14-.06a28.34,28.34,0,0,0,2.31-3.44,4.43,4.43,0,0,0,.74-1.47,4.41,4.41,0,0,0,0-.89c0-1.4-.07-2.8-.1-4.21,0-.12,0-.24,0-.36a70.13,70.13,0,0,0,9.24,1.54.82.82,0,0,0,.05.41c1.16,2.85,1.83,5.86,2.74,8.79l-2.31.22-.69.06A1.17,1.17,0,0,0,48.45,77a1.15,1.15,0,0,0,1.13,1.13l3.89-.37c.2.22.43.41.64.6l1.06,1c1.07,1,2.67-.61,1.6-1.6L56,77a.9.9,0,0,0,.14-.52A1.14,1.14,0,0,0,55,75.37h-.07c-.35-1.13-.69-2.27-1-3.4-.55-1.79-1-3.62-1.73-5.37,1.71.12,3.42.21,5.12.25.84,0,1.68,0,2.51,0,0,0,3.69,3.09,5.44,2.06.66-.39,1.59-.77,1.36-1.73a9.78,9.78,0,0,0-1.22-2.11c-.46-.78-.91-1.58-1.36-2.37a1.8,1.8,0,0,0-.1-.18c1,.89,2.06,1.77,3.12,2.63a1.1,1.1,0,0,0,1.5,0A1.08,1.08,0,0,0,68.54,63.68ZM30.68,35a23.9,23.9,0,0,1,.55-5.47c0-.18.09-.35.14-.52l.06-.15s0,0,0,0l0,0a6.47,6.47,0,0,1,1-1.37,6.94,6.94,0,0,1,3-1.94,4.92,4.92,0,0,1,5.86,2.12,73.08,73.08,0,0,1,3.92,8.06,24.35,24.35,0,0,1,.88,2.48,3.27,3.27,0,0,1,.23,1.54c-.24,1-1.33,1.54-2.13,2a11.1,11.1,0,0,1-1.84.71c-.34.12-.69.22-1,.33-2.25.7-4.67,2.12-7.11,1.76a3.62,3.62,0,0,1-1.7-.74,3.74,3.74,0,0,1-.95-1,5.59,5.59,0,0,1-.56-1.77A29.32,29.32,0,0,1,30.68,35Z"/><path class="cls-1" d="M37.25,77.66h0c.12.1.13.11.1.07a.1.1,0,0,1,0,0Z"/><path class="cls-3" d="M46.39,39.65c-.24,1-1.33,1.54-2.13,2a18.32,18.32,0,0,1-2.88,1c-2.25.7-4.67,2.12-7.11,1.76a4,4,0,0,1-2.65-1.73,5.59,5.59,0,0,1-.56-1.77A29.32,29.32,0,0,1,30.68,35a23.9,23.9,0,0,1,.55-5.47c0-.18.09-.35.14-.52l.06-.15s0,0,0,0l0,0a6.47,6.47,0,0,1,1-1.37,6.94,6.94,0,0,1,3-1.94,4.92,4.92,0,0,1,5.86,2.12,73.08,73.08,0,0,1,3.92,8.06,24.35,24.35,0,0,1,.88,2.48A3.27,3.27,0,0,1,46.39,39.65Z"/><path class="cls-1" d="M56.62,28.23a3.8,3.8,0,0,0,.74,3.93c1.83,2.25,5.67.16,6.63-1.95.68-1.46.84-4.11-1-4.77A5.18,5.18,0,0,0,56.62,28.23Z"/><path class="cls-3" d="M57.56,61.55a.64.64,0,0,1-.2,0c-2.7-1-7.89-3.44-10.21-6.22a9.23,9.23,0,0,1-2-3.6.56.56,0,0,1,.41-.69.58.58,0,0,1,.69.41A8.13,8.13,0,0,0,48,54.58c2.16,2.6,7.31,5,9.72,5.88a.55.55,0,0,1,.34.72A.57.57,0,0,1,57.56,61.55Z"/><path class="cls-3" d="M46.39,39.65c-.24,1-1.33,1.54-2.13,2a11.1,11.1,0,0,1-1.84.71c-.34.12-.69.22-1,.33-2.25.7-4.67,2.12-7.11,1.76a3.62,3.62,0,0,1-1.7-.74,3.74,3.74,0,0,1-.95-1,5.59,5.59,0,0,1-.56-1.77A29.32,29.32,0,0,1,30.68,35a23.9,23.9,0,0,1,.55-5.47c0-.18.09-.35.14-.52l.06-.15s0,0,0,0l0,0a6.47,6.47,0,0,1,1-1.37,6.94,6.94,0,0,1,3-1.94,4.92,4.92,0,0,1,5.86,2.12,73.08,73.08,0,0,1,3.92,8.06,24.35,24.35,0,0,1,.88,2.48A3.27,3.27,0,0,1,46.39,39.65Z"/><rect class="cls-4" width="297" height="85"/><path class="cls-1" d="M41,32.47a3.81,3.81,0,0,0-3.68-3.15,3.41,3.41,0,0,0-3.63,2.05,6.2,6.2,0,0,0-.14.75,6,6,0,0,0-.13,1.11,3.37,3.37,0,0,0,1.1,2.49,4.64,4.64,0,0,0,2.9,1.3,3.36,3.36,0,0,0,2.21-.8,5.85,5.85,0,0,0,1.21-1.46A2.41,2.41,0,0,0,41,32.47Zm-3-1h0C38.12,31.55,38,31.53,38,31.51Zm-2.55,2.18a.08.08,0,0,0,0,0S35.43,33.7,35.43,33.69ZM37.33,35s.05,0,0,0Zm.32,0h0C37.48,35.05,37.58,35,37.65,35Zm.63-.31-.05,0,0,0-.16.1a.91.91,0,0,0-.14.07h0l-.17,0h-.06c-.1,0-.25,0-.34,0h0L37,35l-.24-.08-.09-.05a4.25,4.25,0,0,1-.58-.35L36,34.4h0l-.24-.21L35.59,34c.13.16,0-.05-.06-.11l-.06-.09v0l0-.09c0-.07,0-.15,0-.22h0c0-.13,0-.26,0-.39s0-.12,0-.18h0l.12-.66a1.67,1.67,0,0,1,.06-.29l0,0,0,0v0c0-.12,0-.07,0,0l.05-.09,0,0,0,0v0c.06-.1,0-.05,0,0l.06-.07a.1.1,0,0,1,.05,0l.07-.06.26-.14h0l.19-.06c.1,0,.25,0,.35-.08h.23l.45,0h0l.25.05.37.12.08,0,.19.1.05,0a2,2,0,0,0-1,1.48,1.64,1.64,0,0,0,1.13,1.38s0,0-.05,0Z"/><path class="cls-5" d="M35.66,31.77l0,0h0Z"/><path class="cls-5" d="M35.57,31.92h0s0,0,0,0S35.57,31.91,35.57,31.92Z"/></g></svg>